<svg width="107" height="36" viewBox="0 0 107 36" fill="none" xmlns="http://www.w3.org/2000/svg">
<path d="M4.79395 10.667C6.54395 6.8252 9.20312 4.9043 12.7715 4.9043C14.5078 4.9043 15.9844 5.47168 17.2012 6.60645C18.4316 7.72754 19.0469 9.26563 19.0469 11.2207C19.0469 12.4238 18.7598 13.5859 18.1855 14.707C17.6113 15.8145 16.8594 16.8262 15.9297 17.7422C15 18.6445 13.9746 19.54 12.8535 20.4287C11.7324 21.3037 10.6045 22.1992 9.46973 23.1152C8.34863 24.0312 7.31641 24.9678 6.37305 25.9248C5.42969 26.8682 4.65039 27.9551 4.03516 29.1855C3.41992 30.4023 3.0918 31.6738 3.05078 33H21.8975V30.5186H6.74219C7.17969 29.6436 7.80859 28.7617 8.62891 27.873C9.46289 26.9707 10.3447 26.1436 11.2744 25.3916C12.2178 24.626 13.209 23.8398 14.248 23.0332C15.3008 22.2266 16.2988 21.3994 17.2422 20.5518C18.1855 19.7041 19.04 18.8223 19.8057 17.9062C20.5713 16.9766 21.1797 15.9443 21.6309 14.8096C22.0957 13.6748 22.3281 12.4922 22.3281 11.2617C22.3281 9.75781 22.0547 8.4248 21.5078 7.2627C20.9746 6.10059 20.2432 5.17773 19.3135 4.49414C18.3838 3.79688 17.3447 3.27734 16.1963 2.93555C15.0479 2.58008 13.8242 2.40234 12.5254 2.40234C10.1738 2.40234 8.13672 2.9834 6.41406 4.14551C4.69141 5.29395 3.26953 7.1123 2.14844 9.60059L4.79395 10.667ZM39.541 32.3848C40.8809 33.1367 42.4053 33.5127 44.1143 33.5127C45.8232 33.5127 47.3477 33.1367 48.6875 32.3848C50.0273 31.6328 51.1211 30.5732 51.9688 29.2061C52.8164 27.8389 53.459 26.2256 53.8965 24.3662C54.334 22.4932 54.5527 20.4219 54.5527 18.1523C54.5527 15.8691 54.334 13.7773 53.8965 11.877C53.459 9.97656 52.8096 8.32227 51.9482 6.91406C51.1006 5.49219 50.0068 4.3916 48.667 3.6123C47.3408 2.81934 45.8232 2.42285 44.1143 2.42285C42.4053 2.42285 40.8809 2.81934 39.541 3.6123C38.2148 4.3916 37.1211 5.49219 36.2598 6.91406C35.4121 8.32227 34.7695 9.97656 34.332 11.877C33.8945 13.7773 33.6758 15.8691 33.6758 18.1523C33.6758 20.4219 33.8945 22.4932 34.332 24.3662C34.7695 26.2256 35.4121 27.8389 36.2598 29.2061C37.1074 30.5732 38.2012 31.6328 39.541 32.3848ZM40.1152 6.56543C41.2227 5.40332 42.5557 4.82227 44.1143 4.82227C45.6729 4.82227 47.0059 5.40332 48.1133 6.56543C49.2207 7.71387 50.041 9.2793 50.5742 11.2617C51.1074 13.2441 51.374 15.541 51.374 18.1523C51.374 20.6953 51.1143 22.9238 50.5947 24.8379C50.0889 26.7383 49.2822 28.2559 48.1748 29.3906C47.0674 30.5254 45.7139 31.0928 44.1143 31.0928C42.5146 31.0928 41.1611 30.5254 40.0537 29.3906C38.9463 28.2559 38.1328 26.7383 37.6133 24.8379C37.1074 22.9238 36.8545 20.6953 36.8545 18.1523C36.8545 15.541 37.1211 13.2441 37.6543 11.2617C38.1875 9.2793 39.0078 7.71387 40.1152 6.56543ZM69.7969 5.76562V33H72.791V2.97656H70.1455L65.0801 5.02734L65.9824 7.40625L69.7969 5.76562ZM95.5 13.9688C97.0996 13.9688 98.5215 14.2354 99.7656 14.7686C101.01 15.2881 102.001 15.999 102.739 16.9014C103.491 17.8037 104.059 18.8223 104.441 19.957C104.824 21.0781 105.016 22.2744 105.016 23.5459C105.016 24.6807 104.872 25.7539 104.585 26.7656C104.298 27.7773 103.867 28.6934 103.293 29.5137C102.732 30.3203 102.056 31.0176 101.263 31.6055C100.47 32.1934 99.5332 32.6514 98.4531 32.9795C97.3867 33.2939 96.2314 33.4512 94.9873 33.4512C92.6768 33.4512 90.667 32.8975 88.958 31.79C87.2627 30.6689 85.9639 28.96 85.0615 26.6631L87.6045 25.6377C88.3838 27.333 89.4023 28.6592 90.6602 29.6162C91.9316 30.5732 93.3125 31.0518 94.8027 31.0518C95.9375 31.0518 96.9629 30.8535 97.8789 30.457C98.8086 30.0469 99.5605 29.5 100.135 28.8164C100.723 28.1328 101.174 27.3535 101.488 26.4785C101.803 25.6035 101.96 24.6807 101.96 23.71C101.96 22.7666 101.816 21.8711 101.529 21.0234C101.256 20.1621 100.853 19.3896 100.319 18.7061C99.7998 18.0088 99.1094 17.4551 98.248 17.0449C97.4004 16.6348 96.4434 16.4297 95.377 16.4297C93.1484 16.4297 90.9199 17.2705 88.6914 18.9521L86.8252 17.7422L88.7939 2.97656H103.17V5.58105H91.4805L90.0654 15.4453L90.168 15.4043C91.8906 14.4473 93.668 13.9688 95.5 13.9688Z" fill="#EC5242"/>
<path d="M4.79395 10.667L4.23314 12.0582L5.56412 12.5947L6.159 11.2888L4.79395 10.667ZM17.2012 6.60645L16.1781 7.70344L16.1845 7.70938L16.1909 7.71524L17.2012 6.60645ZM18.1855 14.707L19.5172 15.3975L19.5206 15.3908L18.1855 14.707ZM15.9297 17.7422L16.9744 18.8186L16.9825 18.8107L15.9297 17.7422ZM12.8535 20.4287L13.7764 21.6112L13.7853 21.6042L12.8535 20.4287ZM9.46973 23.1152L8.52753 21.948L8.52064 21.9537L9.46973 23.1152ZM6.37305 25.9248L7.43373 26.9855L7.44131 26.9778L6.37305 25.9248ZM4.03516 29.1855L5.37379 29.8624L5.3768 29.8564L4.03516 29.1855ZM3.05078 33L1.5515 32.9536L1.50367 34.5H3.05078V33ZM21.8975 33V34.5H23.3975V33H21.8975ZM21.8975 30.5186H23.3975V29.0186H21.8975V30.5186ZM6.74219 30.5186L5.40055 29.8477L4.31514 32.0186H6.74219V30.5186ZM8.62891 27.873L7.52734 26.8549L7.5267 26.8556L8.62891 27.873ZM11.2744 25.3916L12.2177 26.5579L12.2197 26.5563L11.2744 25.3916ZM14.248 23.0332L13.3357 21.8425L13.3282 21.8483L14.248 23.0332ZM19.8057 17.9062L20.9566 18.8682L20.9636 18.8598L19.8057 17.9062ZM21.6309 14.8096L20.2428 14.241L20.2399 14.2482L20.237 14.2554L21.6309 14.8096ZM21.5078 7.2627L20.1445 7.88823L20.1475 7.89482L20.1506 7.90139L21.5078 7.2627ZM19.3135 4.49414L18.4135 5.69414L18.4192 5.69841L18.4249 5.70262L19.3135 4.49414ZM16.1963 2.93555L15.7528 4.36848L15.7606 4.37089L15.7684 4.37323L16.1963 2.93555ZM6.41406 4.14551L7.24613 5.3936L7.25293 5.38901L6.41406 4.14551ZM2.14844 9.60059L0.780837 8.98441L0.139425 10.408L1.58763 10.9918L2.14844 9.60059ZM6.159 11.2888C6.95634 9.53838 7.91284 8.3312 8.97918 7.56091C10.0304 6.80151 11.2735 6.4043 12.7715 6.4043V3.4043C10.7011 3.4043 8.83039 3.96754 7.22248 5.12903C5.62964 6.27964 4.38155 7.95381 3.4289 10.0452L6.159 11.2888ZM12.7715 6.4043C14.1463 6.4043 15.2521 6.83984 16.1781 7.70344L18.2242 5.50945C16.7166 4.10352 14.8693 3.4043 12.7715 3.4043V6.4043ZM16.1909 7.71524C17.0545 8.50202 17.5469 9.60711 17.5469 11.2207H20.5469C20.5469 8.92414 19.8088 6.95306 18.2114 5.49765L16.1909 7.71524ZM17.5469 11.2207C17.5469 12.1748 17.3215 13.1035 16.8505 14.0232L19.5206 15.3908C20.198 14.0684 20.5469 12.6729 20.5469 11.2207H17.5469ZM16.8539 14.0166C16.3555 14.9777 15.6996 15.8631 14.8769 16.6737L16.9825 18.8107C18.0191 17.7892 18.8671 16.6512 19.5172 15.3975L16.8539 14.0166ZM14.885 16.6658C13.9947 17.5299 13.0075 18.3925 11.9217 19.2532L13.7853 21.6042C14.9417 20.6876 16.0053 19.7592 16.9744 18.8186L14.885 16.6658ZM11.9306 19.2462C10.8029 20.1264 9.66853 21.027 8.52755 21.9481L10.4119 24.2824C11.5405 23.3714 12.662 22.481 13.7764 21.6112L11.9306 19.2462ZM8.52064 21.9537C7.36107 22.9011 6.28866 23.8737 5.30478 24.8718L7.44131 26.9778C8.34415 26.0619 9.3362 25.1614 10.4188 24.2768L8.52064 21.9537ZM5.31239 24.8641C4.25148 25.925 3.37858 27.1446 2.69352 28.5147L5.3768 29.8564C5.9222 28.7656 6.60789 27.8113 7.43371 26.9855L5.31239 24.8641ZM2.69654 28.5087C1.98509 29.9158 1.59949 31.4019 1.5515 32.9536L4.55006 33.0464C4.5841 31.9457 4.85476 30.8889 5.37378 29.8624L2.69654 28.5087ZM3.05078 34.5H21.8975V31.5H3.05078V34.5ZM23.3975 33V30.5186H20.3975V33H23.3975ZM21.8975 29.0186H6.74219V32.0186H21.8975V29.0186ZM8.08383 31.1894C8.4454 30.4662 8.98491 29.6989 9.73111 28.8905L7.5267 26.8556C6.63228 27.8246 5.91398 28.8209 5.40055 29.8477L8.08383 31.1894ZM9.73047 28.8912C10.5167 28.0405 11.3458 27.2631 12.2177 26.5579L10.3311 24.2253C9.34364 25.024 8.40909 25.9009 7.52734 26.8549L9.73047 28.8912ZM12.2197 26.5563C13.154 25.798 14.1367 25.0186 15.1679 24.2181L13.3282 21.8483C12.2813 22.6611 11.2816 23.4539 10.3292 24.2269L12.2197 26.5563ZM15.1604 24.2239C16.2427 23.3945 17.271 22.5425 18.2447 21.6675L16.2396 19.436C15.3267 20.2564 14.3588 21.0586 13.3357 21.8425L15.1604 24.2239ZM18.2447 21.6675C19.2379 20.7751 20.1425 19.8422 20.9566 18.8682L18.6547 16.9443C17.9376 17.8023 17.1332 18.6331 16.2396 19.436L18.2447 21.6675ZM20.9636 18.8598C21.8295 17.8084 22.5169 16.641 23.0247 15.3638L20.237 14.2554C19.8425 15.2476 19.3131 16.1448 18.6478 16.9527L20.9636 18.8598ZM23.0189 15.3782C23.5579 14.0623 23.8281 12.6865 23.8281 11.2617H20.8281C20.8281 12.2979 20.6335 13.2873 20.2428 14.241L23.0189 15.3782ZM23.8281 11.2617C23.8281 9.57449 23.5207 8.01725 22.865 6.624L20.1506 7.90139C20.5887 8.83236 20.8281 9.94114 20.8281 11.2617H23.8281ZM22.8712 6.63716C22.2435 5.26913 21.3584 4.13593 20.2021 3.28566L18.4249 5.70262C19.1279 6.21953 19.7057 6.93204 20.1445 7.88823L22.8712 6.63716ZM20.2135 3.29414C19.1373 2.48701 17.9374 1.88872 16.6242 1.49787L15.7684 4.37323C16.752 4.66597 17.6303 5.10674 18.4135 5.69414L20.2135 3.29414ZM16.6398 1.50262C15.3367 1.09926 13.9625 0.902344 12.5254 0.902344V3.90234C13.6859 3.90234 14.759 4.06089 15.7528 4.36848L16.6398 1.50262ZM12.5254 0.902344C9.9156 0.902344 7.57739 1.55132 5.57519 2.90201L7.25293 5.38901C8.69605 4.41548 10.4321 3.90234 12.5254 3.90234V0.902344ZM5.58201 2.89743C3.56153 4.24442 1.98161 6.31929 0.780837 8.98441L3.51604 10.2168C4.55746 7.90532 5.82129 6.34347 7.24611 5.39358L5.58201 2.89743ZM1.58763 10.9918L4.23314 12.0582L5.35475 9.27577L2.70924 8.20936L1.58763 10.9918ZM53.8965 24.3662L55.3566 24.7098L55.3572 24.7074L53.8965 24.3662ZM51.9482 6.91406L50.6598 7.68216L50.6642 7.68948L50.6686 7.69674L51.9482 6.91406ZM48.667 3.6123L47.8972 4.89971L47.905 4.90437L47.9128 4.90893L48.667 3.6123ZM39.541 3.6123L40.301 4.90555L40.305 4.90317L39.541 3.6123ZM36.2598 6.91406L34.9768 6.13688L34.9746 6.14048L36.2598 6.91406ZM34.332 24.3662L32.8713 24.7074L32.8719 24.7098L34.332 24.3662ZM40.1152 6.56543L41.195 7.60665L41.2011 7.60023L40.1152 6.56543ZM48.1133 6.56543L47.0274 7.60025L47.0335 7.60663L48.1133 6.56543ZM50.5947 24.8379L49.1471 24.445L49.1452 24.452L50.5947 24.8379ZM37.6133 24.8379L36.163 25.2212L36.1664 25.2334L37.6133 24.8379ZM38.8069 33.6928C40.3953 34.5843 42.1777 35.0127 44.1143 35.0127V32.0127C42.6329 32.0127 41.3664 31.6891 40.2751 31.0767L38.8069 33.6928ZM44.1143 35.0127C46.0509 35.0127 47.8332 34.5843 49.4216 33.6928L47.9534 31.0767C46.8621 31.6891 45.5956 32.0127 44.1143 32.0127V35.0127ZM49.4216 33.6928C50.9931 32.8109 52.2689 31.5686 53.2436 29.9965L50.6939 28.4156C49.9733 29.5779 49.0616 30.4547 47.9534 31.0767L49.4216 33.6928ZM53.2436 29.9965C54.1911 28.4683 54.8887 26.6983 55.3566 24.7098L52.4364 24.0227C52.0293 25.7528 51.4417 27.2095 50.6939 28.4156L53.2436 29.9965ZM55.3572 24.7074C55.825 22.7046 56.0527 20.5168 56.0527 18.1523H53.0527C53.0527 20.327 52.843 22.2817 52.4358 24.025L55.3572 24.7074ZM56.0527 18.1523C56.0527 15.7746 55.825 13.568 55.3582 11.5404L52.4347 12.2135C52.8429 13.9866 53.0527 15.9637 53.0527 18.1523H56.0527ZM55.3582 11.5404C54.8909 9.5103 54.1873 7.69993 53.2279 6.13138L50.6686 7.69674C51.4319 8.9446 52.0271 10.4428 52.4347 12.2135L55.3582 11.5404ZM53.2367 6.14597C52.2678 4.52078 50.996 3.23165 49.4212 2.31568L47.9128 4.90893C49.0177 5.55155 49.9334 6.4636 50.6598 7.68216L53.2367 6.14597ZM49.4368 2.3249C47.8538 1.37837 46.0648 0.922852 44.1143 0.922852V3.92285C45.5817 3.92285 46.8278 4.2603 47.8972 4.89971L49.4368 2.3249ZM44.1143 0.922852C42.1635 0.922852 40.3704 1.37842 38.777 2.32144L40.305 4.90317C41.3913 4.26025 42.647 3.92285 44.1143 3.92285V0.922852ZM38.7811 2.31906C37.2234 3.23441 35.9563 4.51992 34.9768 6.13688L37.5427 7.69124C38.2859 6.46445 39.2063 5.5488 40.301 4.90555L38.7811 2.31906ZM34.9746 6.14048C34.0319 7.70669 33.3368 9.51387 32.8703 11.5404L35.7938 12.2135C36.2022 10.4393 36.7924 8.93784 37.5449 7.68764L34.9746 6.14048ZM32.8703 11.5404C32.4035 13.568 32.1758 15.7746 32.1758 18.1523H35.1758C35.1758 15.9637 35.3856 13.9866 35.7938 12.2135L32.8703 11.5404ZM32.1758 18.1523C32.1758 20.5168 32.4035 22.7046 32.8713 24.7074L35.7927 24.025C35.3855 22.2817 35.1758 20.327 35.1758 18.1523H32.1758ZM32.8719 24.7098C33.3398 26.6983 34.0374 28.4683 34.9849 29.9965L37.5346 28.4156C36.7868 27.2095 36.1993 25.7528 35.7922 24.0227L32.8719 24.7098ZM34.9849 29.9965C35.9597 31.5686 37.2354 32.8109 38.8069 33.6928L40.2751 31.0767C39.1669 30.4547 38.2552 29.5779 37.5346 28.4156L34.9849 29.9965ZM41.2011 7.60023C42.035 6.72517 42.9797 6.32227 44.1143 6.32227V3.32227C42.1317 3.32227 40.4103 4.08147 39.0293 5.53063L41.2011 7.60023ZM44.1143 6.32227C45.2488 6.32227 46.1935 6.72517 47.0274 7.60023L49.1992 5.53063C47.8182 4.08147 46.0969 3.32227 44.1143 3.32227V6.32227ZM47.0335 7.60663C47.9215 8.52752 48.6399 9.84532 49.1257 11.6513L52.0227 10.8721C51.4421 8.71328 50.5199 6.90022 49.193 5.52423L47.0335 7.60663ZM49.1257 11.6513C49.6169 13.4777 49.874 15.6388 49.874 18.1523H52.874C52.874 15.4433 52.5979 13.0106 52.0227 10.8721L49.1257 11.6513ZM49.874 18.1523C49.874 20.5979 49.6237 22.6891 49.1471 24.445L52.0423 25.2308C52.6048 23.1586 52.874 20.7927 52.874 18.1523H49.874ZM49.1452 24.452C48.6899 26.1624 47.9901 27.4322 47.1013 28.343L49.2483 30.4383C50.5743 29.0795 51.4878 27.3142 52.0443 25.2237L49.1452 24.452ZM47.1013 28.343C46.279 29.1856 45.3137 29.5928 44.1143 29.5928V32.5928C46.114 32.5928 47.8558 31.8652 49.2483 30.4383L47.1013 28.343ZM44.1143 29.5928C42.9148 29.5928 41.9496 29.1856 41.1272 28.343L38.9802 30.4383C40.3727 31.8652 42.1145 32.5928 44.1143 32.5928V29.5928ZM41.1272 28.343C40.2358 27.4295 39.5287 26.1559 39.0602 24.4423L36.1664 25.2334C36.737 27.3206 37.6568 29.0822 38.9802 30.4383L41.1272 28.343ZM39.0635 24.4546C38.5985 22.6952 38.3545 20.6006 38.3545 18.1523H35.3545C35.3545 20.79 35.6163 23.1524 36.1631 25.2212L39.0635 24.4546ZM38.3545 18.1523C38.3545 15.6388 38.6116 13.4777 39.1028 11.6513L36.2058 10.8721C35.6306 13.0106 35.3545 15.4433 35.3545 18.1523H38.3545ZM39.1028 11.6513C39.5886 9.84532 40.307 8.52752 41.195 7.60663L39.0355 5.52423C37.7086 6.90022 36.7864 8.71328 36.2058 10.8721L39.1028 11.6513ZM69.7969 5.76562H71.2969V3.4876L69.2042 4.38768L69.7969 5.76562ZM69.7969 33H68.2969V34.5H69.7969V33ZM72.791 33V34.5H74.291V33H72.791ZM72.791 2.97656H74.291V1.47656H72.791V2.97656ZM70.1455 2.97656V1.47656H69.8534L69.5826 1.58619L70.1455 2.97656ZM65.0801 5.02734L64.5172 3.63697L63.1573 4.18755L63.6776 5.55933L65.0801 5.02734ZM65.9824 7.40625L64.5799 7.93823L65.1357 9.40331L66.5751 8.7842L65.9824 7.40625ZM68.2969 5.76562V33H71.2969V5.76562H68.2969ZM69.7969 34.5H72.791V31.5H69.7969V34.5ZM74.291 33V2.97656H71.291V33H74.291ZM72.791 1.47656H70.1455V4.47656H72.791V1.47656ZM69.5826 1.58619L64.5172 3.63697L65.643 6.41772L70.7084 4.36694L69.5826 1.58619ZM63.6776 5.55933L64.5799 7.93823L67.3849 6.87427L66.4826 4.49536L63.6776 5.55933ZM66.5751 8.7842L70.3895 7.14357L69.2042 4.38768L65.3898 6.0283L66.5751 8.7842ZM99.7656 14.7686L99.1747 16.1473L99.1876 16.1527L99.7656 14.7686ZM102.739 16.9014L101.578 17.8513L101.587 17.8616L102.739 16.9014ZM104.441 19.957L103.02 20.4365L103.022 20.4417L104.441 19.957ZM103.293 29.5137L102.064 28.6535L102.061 28.6577L103.293 29.5137ZM98.4531 32.9795L98.8774 34.4183L98.8891 34.4147L98.4531 32.9795ZM88.958 31.79L88.1306 33.0413L88.1423 33.0489L88.958 31.79ZM85.0615 26.6631L84.5006 25.2719L83.1218 25.8279L83.6654 27.2116L85.0615 26.6631ZM87.6045 25.6377L88.9674 25.0112L88.37 23.7117L87.0435 24.2465L87.6045 25.6377ZM90.6602 29.6162L89.7519 30.81L89.7581 30.8147L90.6602 29.6162ZM97.8789 30.457L98.4748 31.8336L98.4844 31.8294L97.8789 30.457ZM100.135 28.8164L98.9975 27.8383L98.9918 27.845L98.9862 27.8516L100.135 28.8164ZM101.529 21.0234L100.1 21.4773L100.104 21.491L100.109 21.5046L101.529 21.0234ZM100.319 18.7061L99.1165 19.6023L99.1264 19.6156L99.1366 19.6286L100.319 18.7061ZM98.248 17.0449L97.5947 18.3952L97.6031 18.3992L98.248 17.0449ZM88.6914 18.9521L87.8754 20.2108L88.7566 20.7821L89.5949 20.1495L88.6914 18.9521ZM86.8252 17.7422L85.3384 17.5439L85.2129 18.4846L86.0092 19.0008L86.8252 17.7422ZM88.7939 2.97656V1.47656H87.4807L87.3071 2.77832L88.7939 2.97656ZM103.17 2.97656H104.67V1.47656H103.17V2.97656ZM103.17 5.58105V7.08105H104.67V5.58105H103.17ZM91.4805 5.58105V4.08105H90.1803L89.9957 5.36806L91.4805 5.58105ZM90.0654 15.4453L88.5806 15.2323L88.212 17.8022L90.6225 16.838L90.0654 15.4453ZM90.168 15.4043L90.7251 16.797L90.8133 16.7617L90.8964 16.7155L90.168 15.4043ZM95.5 15.4688C96.9328 15.4688 98.1481 15.7073 99.1747 16.1473L100.357 13.3898C98.8949 12.7634 97.2664 12.4688 95.5 12.4688V15.4688ZM99.1876 16.1527C100.24 16.5924 101.019 17.1671 101.578 17.8512L103.9 15.9515C102.983 14.8309 101.779 13.9838 100.344 13.3844L99.1876 16.1527ZM101.587 17.8616C102.218 18.6189 102.695 19.4737 103.02 20.4365L105.863 19.4776C105.422 18.1708 104.764 16.9885 103.892 15.9411L101.587 17.8616ZM103.022 20.4417C103.348 21.3957 103.516 22.4272 103.516 23.5459H106.516C106.516 22.1216 106.301 20.7605 105.861 19.4723L103.022 20.4417ZM103.516 23.5459C103.516 24.5531 103.388 25.4877 103.142 26.3561L106.028 27.1751C106.356 26.0201 106.516 24.8083 106.516 23.5459H103.516ZM103.142 26.3561C102.898 27.2149 102.538 27.9772 102.064 28.6535L104.522 30.3739C105.197 29.4095 105.697 28.3398 106.028 27.1751L103.142 26.3561ZM102.061 28.6577C101.594 29.3297 101.032 29.9093 100.369 30.4005L102.156 32.8104C103.079 32.1259 103.871 31.3109 104.525 30.3697L102.061 28.6577ZM100.369 30.4005C99.7328 30.8724 98.956 31.259 98.0171 31.5443L98.8891 34.4147C100.11 34.0437 101.207 33.5143 102.156 32.8104L100.369 30.4005ZM98.0289 31.5407C97.1155 31.8101 96.1047 31.9512 94.9873 31.9512V34.9512C96.3582 34.9512 97.6579 34.7778 98.8774 34.4182L98.0289 31.5407ZM94.9873 31.9512C92.9261 31.9512 91.2082 31.4607 89.7737 30.5312L88.1423 33.0489C90.1258 34.3342 92.4274 34.9512 94.9873 34.9512V31.9512ZM89.7854 30.5389C88.3983 29.6216 87.2718 28.1869 86.4576 26.1146L83.6654 27.2116C84.656 29.7331 86.1271 31.7163 88.1306 33.0412L89.7854 30.5389ZM85.6225 28.0542L88.1654 27.0289L87.0435 24.2465L84.5006 25.2719L85.6225 28.0542ZM86.2416 26.2642C87.1051 28.1427 88.2658 29.6792 89.7519 30.81L91.5684 28.4225C90.5389 27.6391 89.6625 26.5233 88.9674 25.0112L86.2416 26.2642ZM89.7581 30.8147C91.2708 31.9533 92.9643 32.5518 94.8027 32.5518V29.5518C93.6607 29.5518 92.5925 29.1932 91.5622 28.4178L89.7581 30.8147ZM94.8027 32.5518C96.1145 32.5518 97.3466 32.3219 98.4747 31.8336L97.2831 29.0804C96.5792 29.3851 95.7605 29.5518 94.8027 29.5518V32.5518ZM98.4844 31.8294C99.5947 31.3395 100.542 30.6632 101.283 29.7812L98.9862 27.8516C98.5787 28.3368 98.0224 28.7542 97.2734 29.0847L98.4844 31.8294ZM101.272 29.7945C101.983 28.9677 102.525 28.0277 102.9 26.9858L100.077 25.9712C99.8222 26.6793 99.4622 27.298 98.9975 27.8383L101.272 29.7945ZM102.9 26.9858C103.275 25.941 103.46 24.8459 103.46 23.71H100.46C100.46 24.5154 100.33 25.266 100.077 25.9712L102.9 26.9858ZM103.46 23.71C103.46 22.6119 103.292 21.5531 102.95 20.5422L100.109 21.5046C100.34 22.1891 100.46 22.9213 100.46 23.71H103.46ZM102.959 20.5696C102.634 19.5459 102.149 18.6133 101.502 17.7835L99.1366 19.6286C99.5557 20.166 99.8777 20.7783 100.1 21.4773L102.959 20.5696ZM101.522 17.8098C100.843 16.8982 99.9529 16.1954 98.8929 15.6906L97.6031 18.3992C98.2658 18.7148 98.7567 19.1194 99.1165 19.6023L101.522 17.8098ZM98.9014 15.6947C97.8246 15.1736 96.6395 14.9297 95.377 14.9297V17.9297C96.2472 17.9297 96.9762 18.0959 97.5947 18.3952L98.9014 15.6947ZM95.377 14.9297C92.7476 14.9297 90.2099 15.9271 87.7879 17.7548L89.5949 20.1495C91.63 18.6139 93.5493 17.9297 95.377 17.9297V14.9297ZM89.5074 17.6935L87.6412 16.4836L86.0092 19.0008L87.8754 20.2108L89.5074 17.6935ZM88.312 17.9404L90.2808 3.17481L87.3071 2.77832L85.3384 17.5439L88.312 17.9404ZM88.7939 4.47656H103.17V1.47656H88.7939V4.47656ZM101.67 2.97656V5.58105H104.67V2.97656H101.67ZM103.17 4.08105H91.4805V7.08105H103.17V4.08105ZM89.9957 5.36806L88.5806 15.2323L91.5502 15.6583L92.9653 5.79405L89.9957 5.36806ZM90.6225 16.838L90.7251 16.797L89.6109 14.0116L89.5083 14.0526L90.6225 16.838ZM90.8964 16.7155C92.4136 15.8727 93.942 15.4688 95.5 15.4688V12.4688C93.3939 12.4688 91.3676 13.0219 89.4395 14.0931L90.8964 16.7155Z" fill="#EC5242"/>
</svg>
