<svg width="51" height="53" viewBox="0 0 51 53" fill="none" xmlns="http://www.w3.org/2000/svg">
<path d="M27.5 16C27.5 16.4 28.8333 19.5 29.5 21C29.5441 21.0883 29.8385 21.3963 30.5 22.0096L34.2056 18C33.5636 17.4265 33.1361 17.068 33 17C32 16.5 27.5 15.5 27.5 16Z" fill="#EC5242"/>
<path d="M30.5 22.0096C29.8385 21.3963 29.5441 21.0883 29.5 21C28.8333 19.5 27.5 16.4 27.5 16C27.5 15.5 32 16.5 33 17C33.1361 17.068 33.5636 17.4265 34.2056 18M30.5 22.0096L34.2056 18M30.5 22.0096C31.0078 22.4804 31.7319 23.131 32.7252 24C35.3243 26.2738 39.7666 30.043 47 36L50 33C45.574 28.7123 37.3373 20.7976 34.2056 18" stroke="white" stroke-width="1.2" stroke-linecap="round" stroke-linejoin="round"/>
<path d="M37.243 3.89387H31.243L31.11 1.01046C31.0837 0.441954 30.7534 0 30.3546 0H26.8725C26.6631 0 26.4631 0.123955 26.3199 0.342444C26.1768 0.560934 26.1034 0.854272 26.1172 1.15291L26.2437 3.89387H11.7563L11.8829 1.1528C11.8967 0.854163 11.8232 0.560825 11.6802 0.342336C11.5369 0.123955 11.3369 0 11.1275 0H7.64542C7.24665 0 6.9163 0.441954 6.89004 1.01046L6.75696 3.89387H0.756972C0.338896 3.89387 0 4.37812 0 4.9755V34.0714C0 34.6687 0.338896 35.153 0.756972 35.153H5.31402L5.23916 36.7754H1.21116C0.79308 36.7754 0.454183 37.2597 0.454183 37.8571C0.454183 38.4545 0.79308 38.9387 1.21116 38.9387H5.13931L4.5435 51.8471C4.52972 52.1457 4.60315 52.4391 4.74629 52.6576C4.88943 52.876 5.08943 53 5.29888 53H8.78095C9.17973 53 9.51007 52.558 9.53633 51.9895L10.1387 38.9388H27.8614L28.4638 51.9895C28.4901 52.558 28.8204 53 29.2192 53H32.7013C32.9107 53 33.1107 52.876 33.2539 52.6576C33.397 52.4391 33.4704 52.1457 33.4567 51.8471L32.8607 38.9388H33.4582C33.8762 38.9388 34.2151 38.4546 34.2151 37.8572C34.2151 37.2598 33.8762 36.7755 33.4582 36.7755H32.7608L32.686 35.1531H37.243C37.6611 35.1531 38 34.6689 38 34.0715V4.97561C38 4.37812 37.6611 3.89387 37.243 3.89387ZM29.6459 2.16326L29.7258 3.89387H27.761L27.681 2.16326H29.6459ZM8.3541 2.16326H10.319L10.239 3.89387H8.27416L8.3541 2.16326ZM8.0722 50.8367H6.10733L6.65651 38.9388H8.62138L8.0722 50.8367ZM8.7213 36.7755H6.75643L6.8313 35.1531H8.79617L8.7213 36.7755ZM10.2385 36.7755L10.3134 35.1531H27.6866L27.7615 36.7755H10.2385ZM29.2038 35.1531H31.1687L31.2436 36.7755H29.2787L29.2038 35.1531ZM29.9278 50.8367L29.3786 38.9388H31.3435L31.8927 50.8367H29.9278ZM36.4861 32.9898H1.51394V6.05724H36.4861V32.9898Z" fill="white"/>
<path d="M11.6667 22H13.3333C13.7015 22 14 21.3285 14 20.5C14 19.6716 13.7015 19 13.3333 19H11.6667C11.2985 19 11 19.6716 11 20.5C11 21.3285 11.2985 22 11.6667 22Z" fill="#EC5242"/>
<path d="M23.6667 22H25.3333C25.7015 22 26 21.3285 26 20.5C26 19.6716 25.7015 19 25.3333 19H23.6667C23.2985 19 23 19.6716 23 20.5C23 21.3285 23.2985 22 23.6667 22Z" fill="#EC5242"/>
<path d="M17.6667 22H19.3333C19.7015 22 20 21.3285 20 20.5C20 19.6716 19.7015 19 19.3333 19H17.6667C17.2985 19 17 19.6716 17 20.5C17 21.3285 17.2985 22 17.6667 22Z" fill="white"/>
<line x1="1" y1="37.5" x2="34" y2="37.5" stroke="#EC5242"/>
</svg>
