<?xml version="1.0"?>
<svg xmlns="http://www.w3.org/2000/svg" width="512" height="512" viewBox="0 0 128 128"><g><path d="M110.375,43.333a1.75,1.75,0,0,0-1.75,1.75V57.5a1.75,1.75,0,1,0,3.5,0V45.083A1.75,1.75,0,0,0,110.375,43.333Z"/><path d="M121.5,79.25h-3.37V14a1.75,1.75,0,0,0-1.75-1.75H68.75V6.5A1.75,1.75,0,0,0,67,4.75H61A1.75,1.75,0,0,0,59.25,6.5v5.75H11.62A1.75,1.75,0,0,0,9.87,14V79.25H6.5A1.75,1.75,0,0,0,4.75,81v9A1.75,1.75,0,0,0,6.5,91.75H46.651L34.266,116.366a4.75,4.75,0,0,0,8.487,4.27L57.288,91.75H70.712l14.536,28.888a4.75,4.75,0,1,0,8.485-4.274L81.349,91.75H121.5A1.75,1.75,0,0,0,123.25,90V81A1.75,1.75,0,0,0,121.5,79.25Zm-58.75-71h2.5v4h-2.5Zm-49.38,7.5H114.63v63.5H13.37ZM39.627,119.062a1.25,1.25,0,1,1-2.233-1.125L50.569,91.75h2.8Zm50.981-1.123a1.249,1.249,0,0,1-1.118,1.811,1.26,1.26,0,0,1-1.116-.687L74.63,91.75h2.8ZM119.75,88.25H8.25v-5.5h111.5Z"/></g></svg>
