<?xml version="1.0" encoding="iso-8859-1"?>
<!-- Generator: Adobe Illustrator 19.0.0, SVG Export Plug-In . SVG Version: 6.00 Build 0)  -->
<svg version="1.1" id="Layer_1" xmlns="http://www.w3.org/2000/svg" xmlns:xlink="http://www.w3.org/1999/xlink" x="0px" y="0px"
	 viewBox="0 0 502 502" style="enable-background:new 0 0 502 502;" xml:space="preserve">
<g>
	<g>
		<g>
			<path d="M492,41.999h-79.263l-1.758-26.658c-0.347-5.256-4.711-9.342-9.979-9.342h-46c-2.767,0-5.409,1.146-7.3,3.166
				c-1.891,2.02-2.86,4.732-2.678,7.493l1.671,25.341H155.307l1.672-25.342c0.182-2.761-0.788-5.473-2.678-7.493
				c-1.892-2.019-4.534-3.165-7.301-3.165h-46c-5.268,0-9.632,4.086-9.979,9.342l-1.758,26.658H10c-5.523,0-10,4.477-10,10v269
				c0,5.523,4.477,10,10,10h60.201l-0.989,15H16c-5.523,0-10,4.477-10,10s4.477,10,10,10h51.893l-7.871,119.342
				c-0.182,2.761,0.788,5.473,2.679,7.493c1.891,2.02,4.533,3.166,7.3,3.166h46c5.268,0,9.632-4.086,9.979-9.342L133.937,366
				h234.127l7.958,120.658c0.347,5.256,4.711,9.342,9.979,9.342h46c2.767,0,5.409-1.146,7.3-3.166
				c1.891-2.02,2.861-4.732,2.679-7.493L434.107,366H442c5.523,0,10-4.477,10-10s-4.477-10-10-10h-9.212l-0.989-15H492
				c5.523,0,10-4.477,10-10v-269C502,46.476,497.523,41.999,492,41.999z M391.638,25.999l1.056,16h-25.957l-1.056-16H391.638z
				 M110.362,25.999h25.957l-1.056,16h-25.957L110.362,25.999z M106.638,476H80.681l7.255-110h25.957L106.638,476z M115.213,346
				H89.256l0.989-15h25.957L115.213,346z M135.256,346l0.989-15h229.51l0.989,15H135.256z M385.798,331h25.957l0.989,15h-25.957
				L385.798,331z M395.362,476l-7.255-110h25.957l7.255,110H395.362z M482,311H20v-249h462V311z"/>
			<path d="M486,346h-9c-5.523,0-10,4.477-10,10s4.477,10,10,10h9c5.523,0,10-4.477,10-10S491.523,346,486,346z"/>
			<path d="M55,101.999h226c5.523,0,10-4.477,10-10s-4.477-10-10-10H55c-5.523,0-10,4.477-10,10S49.477,101.999,55,101.999z"/>
			<path d="M324,101.999h25c5.523,0,10-4.477,10-10s-4.477-10-10-10h-25c-5.523,0-10,4.477-10,10S318.477,101.999,324,101.999z"/>
		</g>
	</g>
</g>
<g>
</g>
<g>
</g>
<g>
</g>
<g>
</g>
<g>
</g>
<g>
</g>
<g>
</g>
<g>
</g>
<g>
</g>
<g>
</g>
<g>
</g>
<g>
</g>
<g>
</g>
<g>
</g>
<g>
</g>
</svg>
