<svg width="64" height="64" viewBox="0 0 64 64" fill="none" xmlns="http://www.w3.org/2000/svg">
<g clip-path="url(#clip0)">
<rect x="5" y="5" width="5" height="5" fill="#BDBDBD"/>
<rect x="15" y="5" width="5" height="5" fill="#BDBDBD"/>
<rect x="45" y="5" width="5" height="5" fill="#BDBDBD"/>
<rect x="25" y="5" width="5" height="5" fill="#BDBDBD"/>
<rect x="35" y="5" width="5" height="5" fill="#BDBDBD"/>
<rect x="55" y="5" width="5" height="5" fill="#BDBDBD"/>
<rect width="5" height="5" fill="#BDBDBD"/>
<rect x="10" width="5" height="5" fill="#BDBDBD"/>
<rect x="40" width="5" height="5" fill="#BDBDBD"/>
<rect x="50" width="5" height="5" fill="#BDBDBD"/>
<rect x="20" width="5" height="5" fill="#BDBDBD"/>
<rect x="30" width="5" height="5" fill="#BDBDBD"/>
<rect x="60" width="4" height="5" fill="#BDBDBD"/>
<rect x="5" y="15" width="5" height="5" fill="#BDBDBD"/>
<rect x="15" y="15" width="5" height="5" fill="#BDBDBD"/>
<rect x="45" y="15" width="5" height="5" fill="#BDBDBD"/>
<rect x="25" y="15" width="5" height="5" fill="#BDBDBD"/>
<rect x="35" y="15" width="5" height="5" fill="#BDBDBD"/>
<rect x="55" y="15" width="5" height="5" fill="#BDBDBD"/>
<rect y="10" width="5" height="5" fill="#BDBDBD"/>
<rect x="10" y="10" width="5" height="5" fill="#BDBDBD"/>
<rect x="40" y="10" width="5" height="5" fill="#BDBDBD"/>
<rect x="50" y="10" width="5" height="5" fill="#BDBDBD"/>
<rect x="20" y="10" width="5" height="5" fill="#BDBDBD"/>
<rect x="30" y="10" width="5" height="5" fill="#BDBDBD"/>
<rect x="60" y="10" width="4" height="5" fill="#BDBDBD"/>
<rect x="5" y="5" width="5" height="5" fill="#BDBDBD"/>
<rect x="15" y="5" width="5" height="5" fill="#BDBDBD"/>
<rect x="45" y="5" width="5" height="5" fill="#BDBDBD"/>
<rect x="25" y="5" width="5" height="5" fill="#BDBDBD"/>
<rect x="35" y="5" width="5" height="5" fill="#BDBDBD"/>
<rect x="55" y="5" width="5" height="5" fill="#BDBDBD"/>
<rect y="20" width="5" height="5" fill="#BDBDBD"/>
<rect x="10" y="20" width="5" height="5" fill="#BDBDBD"/>
<rect x="40" y="20" width="5" height="5" fill="#BDBDBD"/>
<rect x="50" y="20" width="5" height="5" fill="#BDBDBD"/>
<rect x="20" y="20" width="5" height="5" fill="#BDBDBD"/>
<rect x="30" y="20" width="5" height="5" fill="#BDBDBD"/>
<rect x="60" y="20" width="4" height="5" fill="#BDBDBD"/>
<rect x="5" y="25" width="5" height="5" fill="#BDBDBD"/>
<rect x="15" y="25" width="5" height="5" fill="#BDBDBD"/>
<rect x="45" y="25" width="5" height="5" fill="#BDBDBD"/>
<rect x="25" y="25" width="5" height="5" fill="#BDBDBD"/>
<rect x="35" y="25" width="5" height="5" fill="#BDBDBD"/>
<rect x="55" y="25" width="5" height="5" fill="#BDBDBD"/>
<rect x="5" y="15" width="5" height="5" fill="#BDBDBD"/>
<rect x="15" y="15" width="5" height="5" fill="#BDBDBD"/>
<rect x="45" y="15" width="5" height="5" fill="#BDBDBD"/>
<rect x="25" y="15" width="5" height="5" fill="#BDBDBD"/>
<rect x="35" y="15" width="5" height="5" fill="#BDBDBD"/>
<rect x="55" y="15" width="5" height="5" fill="#BDBDBD"/>
<rect y="10" width="5" height="5" fill="#BDBDBD"/>
<rect x="10" y="10" width="5" height="5" fill="#BDBDBD"/>
<rect x="40" y="10" width="5" height="5" fill="#BDBDBD"/>
<rect x="50" y="10" width="5" height="5" fill="#BDBDBD"/>
<rect x="20" y="10" width="5" height="5" fill="#BDBDBD"/>
<rect x="30" y="10" width="5" height="5" fill="#BDBDBD"/>
<rect x="60" y="10" width="4" height="5" fill="#BDBDBD"/>
<rect y="30" width="5" height="5" fill="#BDBDBD"/>
<rect x="10" y="30" width="5" height="5" fill="#BDBDBD"/>
<rect x="40" y="30" width="5" height="5" fill="#BDBDBD"/>
<rect x="50" y="30" width="5" height="5" fill="#BDBDBD"/>
<rect x="20" y="30" width="5" height="5" fill="#BDBDBD"/>
<rect x="30" y="30" width="5" height="5" fill="#BDBDBD"/>
<rect x="60" y="30" width="4" height="5" fill="#BDBDBD"/>
<rect x="5" y="35" width="5" height="5" fill="#BDBDBD"/>
<rect x="15" y="35" width="5" height="5" fill="#BDBDBD"/>
<rect x="45" y="35" width="5" height="5" fill="#BDBDBD"/>
<rect x="25" y="35" width="5" height="5" fill="#BDBDBD"/>
<rect x="35" y="35" width="5" height="5" fill="#BDBDBD"/>
<rect x="55" y="35" width="5" height="5" fill="#BDBDBD"/>
<rect x="5" y="45" width="5" height="5" fill="#BDBDBD"/>
<rect x="15" y="45" width="5" height="5" fill="#BDBDBD"/>
<rect x="45" y="45" width="5" height="5" fill="#BDBDBD"/>
<rect x="25" y="45" width="5" height="5" fill="#BDBDBD"/>
<rect x="35" y="45" width="5" height="5" fill="#BDBDBD"/>
<rect x="55" y="45" width="5" height="5" fill="#BDBDBD"/>
<rect y="40" width="5" height="5" fill="#BDBDBD"/>
<rect x="10" y="40" width="5" height="5" fill="#BDBDBD"/>
<rect x="40" y="40" width="5" height="5" fill="#BDBDBD"/>
<rect x="50" y="40" width="5" height="5" fill="#BDBDBD"/>
<rect x="20" y="40" width="5" height="5" fill="#BDBDBD"/>
<rect x="30" y="40" width="5" height="5" fill="#BDBDBD"/>
<rect x="60" y="40" width="4" height="5" fill="#BDBDBD"/>
<rect y="50" width="5" height="5" fill="#BDBDBD"/>
<rect x="10" y="50" width="5" height="5" fill="#BDBDBD"/>
<rect x="40" y="50" width="5" height="5" fill="#BDBDBD"/>
<rect x="50" y="50" width="5" height="5" fill="#BDBDBD"/>
<rect x="20" y="50" width="5" height="5" fill="#BDBDBD"/>
<rect x="30" y="50" width="5" height="5" fill="#BDBDBD"/>
<rect x="60" y="50" width="4" height="5" fill="#BDBDBD"/>
<rect x="5" y="55" width="5" height="5" fill="#BDBDBD"/>
<rect x="15" y="55" width="5" height="5" fill="#BDBDBD"/>
<rect x="45" y="55" width="5" height="5" fill="#BDBDBD"/>
<rect x="25" y="55" width="5" height="5" fill="#BDBDBD"/>
<rect x="35" y="55" width="5" height="5" fill="#BDBDBD"/>
<rect x="55" y="55" width="5" height="5" fill="#BDBDBD"/>
<rect y="60" width="5" height="4" fill="#BDBDBD"/>
<rect x="10" y="60" width="5" height="4" fill="#BDBDBD"/>
<rect x="40" y="60" width="5" height="4" fill="#BDBDBD"/>
<rect x="50" y="60" width="5" height="4" fill="#BDBDBD"/>
<rect x="20" y="60" width="5" height="4" fill="#BDBDBD"/>
<rect x="30" y="60" width="5" height="4" fill="#BDBDBD"/>
<rect x="60" y="60" width="4" height="4" fill="#BDBDBD"/>
</g>
<defs>
<clipPath id="clip0">
<rect width="64" height="64" fill="white"/>
</clipPath>
</defs>
</svg>
