<svg width="71" height="71" viewBox="0 0 71 71" fill="none" xmlns="http://www.w3.org/2000/svg">
<mask id="mask0" mask-type="alpha" maskUnits="userSpaceOnUse" x="0" y="0" width="71" height="71">
<path d="M17.7985 17.6596C27.5716 7.90652 43.4007 7.92271 53.1538 17.6958C62.907 27.4689 62.8908 43.298 53.1177 53.0511C43.3446 62.8042 27.5155 62.788 17.7624 53.015C8.00924 43.2419 8.02543 27.4127 17.7985 17.6596Z" fill="#C4C4C4"/>
</mask>
<g mask="url(#mask0)">
<path fill-rule="evenodd" clip-rule="evenodd" d="M-1.89721 35.7956L34.1283 71.8949L33.4205 72.6013L-2.60504 36.502L-1.89721 35.7956Z" fill="#EC5242"/>
<path fill-rule="evenodd" clip-rule="evenodd" d="M-1.89721 35.7956L34.1283 71.8949L33.4205 72.6013L-2.60504 36.502L-1.89721 35.7956Z" fill="#EC5242"/>
<path fill-rule="evenodd" clip-rule="evenodd" d="M-0.481533 34.3828L35.544 70.4821L34.8362 71.1885L-1.18936 35.0892L-0.481533 34.3828Z" fill="#EC5242"/>
<path fill-rule="evenodd" clip-rule="evenodd" d="M2.10279 1.99977L60.1028 58.9997L58 61.1394L-3.63216e-07 4.13946L2.10279 1.99977Z" fill="#EC5242"/>
<path fill-rule="evenodd" clip-rule="evenodd" d="M-0.897207 6.00002L57.1028 63L55 65.1396L-3 8.1397L-0.897207 6.00002Z" fill="#EC5242"/>
<path fill-rule="evenodd" clip-rule="evenodd" d="M-9.89721 11L48.1028 68L46 70.1396L-12 13.1397L-9.89721 11Z" fill="#EC5242"/>
<path fill-rule="evenodd" clip-rule="evenodd" d="M-10.8972 17L47.1028 74L45 76.1396L-13 19.1397L-10.8972 17Z" fill="#EC5242"/>
<path fill-rule="evenodd" clip-rule="evenodd" d="M22.1028 -14L80.1028 43L78 45.1396L20 -11.8603L22.1028 -14Z" fill="#EC5242"/>
<path fill-rule="evenodd" clip-rule="evenodd" d="M-4.89721 9.00002L53.1028 66L51 68.1396L-7 11.1397L-4.89721 9.00002Z" fill="#EC5242"/>
<path fill-rule="evenodd" clip-rule="evenodd" d="M69.1028 53.9999L67 56.1396L8.99998 -0.860338L11.1028 -3.00003L69.1028 53.9999ZM15.6542 -5.56996L73.6542 51.43L71.5514 53.5697L13.5514 -3.43027L15.6542 -5.56996Z" fill="#EC5242"/>
<path fill-rule="evenodd" clip-rule="evenodd" d="M20.1028 -9.00023L78.1028 47.9997L76 50.1394L18 -6.86054L20.1028 -9.00023Z" fill="#EC5242"/>
<path fill-rule="evenodd" clip-rule="evenodd" d="M7.10279 1.80854e-05L65.1028 57L63 59.1396L5 2.1397L7.10279 1.80854e-05Z" fill="#EC5242"/>
<path fill-rule="evenodd" clip-rule="evenodd" d="M34.9099 -0.936308L70.9355 35.163L70.2277 35.8694L34.2021 -0.229925L34.9099 -0.936308Z" fill="#EC5242"/>
<path fill-rule="evenodd" clip-rule="evenodd" d="M34.9099 -0.936308L70.9355 35.163L70.2277 35.8694L34.2021 -0.229925L34.9099 -0.936308Z" fill="#EC5242"/>
<path fill-rule="evenodd" clip-rule="evenodd" d="M36.3256 -2.34915L72.3511 33.7502L71.6433 34.4565L35.6178 -1.64277L36.3256 -2.34915Z" fill="#EC5242"/>
<path fill-rule="evenodd" clip-rule="evenodd" d="M36.3256 -2.34915L72.3511 33.7502L71.6433 34.4565L35.6178 -1.64277L36.3256 -2.34915Z" fill="#EC5242"/>
<path fill-rule="evenodd" clip-rule="evenodd" d="M37.7412 -3.76199L73.7668 32.3373L73.059 33.0437L37.0334 -3.05561L37.7412 -3.76199Z" fill="#EC5242"/>
<path fill-rule="evenodd" clip-rule="evenodd" d="M37.7412 -3.76199L73.7668 32.3373L73.059 33.0437L37.0334 -3.05561L37.7412 -3.76199Z" fill="#EC5242"/>
</g>
</svg>
