<svg width="50" height="50" viewBox="0 0 50 50" fill="none" xmlns="http://www.w3.org/2000/svg">
<g id="Frame 56">
<mask id="mask0" mask-type="alpha" maskUnits="userSpaceOnUse" x="0" y="0" width="50" height="50">
<circle id="Ellipse 1" cx="25" cy="25" r="25" fill="#C4C4C4"/>
</mask>
<g mask="url(#mask0)">
<g id="Group">
<path id="Vector" d="M26.4529 3.51972L22.0316 7.24854L25.6417 11.5289L30.0629 7.80008L26.4529 3.51972Z" fill="#C4C4C4"/>
<path id="Vector_2" d="M35.2955 -3.93815L30.8742 -0.209229L34.4842 4.07114L38.9055 0.342215L35.2955 -3.93815Z" fill="#C4C4C4"/>
<path id="Vector_3" d="M33.6732 12.0808L29.2519 15.8096L32.8625 20.0906L37.2838 16.3618L33.6732 12.0808Z" fill="#C4C4C4"/>
<path id="Vector_4" d="M42.5158 4.62289L38.0945 8.35181L41.7051 12.6329L46.1264 8.90395L42.5158 4.62289Z" fill="#C4C4C4"/>
<path id="Vector_5" d="M18.4213 2.96766L14 6.69653L17.6103 10.9772L22.0316 7.24835L18.4213 2.96766Z" fill="#C4C4C4"/>
<path id="Vector_6" d="M27.2638 -4.49004L22.8426 -0.76123L26.4528 3.51945L30.8741 -0.209362L27.2638 -4.49004Z" fill="#C4C4C4"/>
<path id="Vector_7" d="M25.6416 11.5287L21.2203 15.2576L24.8307 19.5384L29.252 15.8095L25.6416 11.5287Z" fill="#C4C4C4"/>
<path id="Vector_8" d="M34.4841 4.07099L30.0628 7.7998L33.6732 12.0806L38.0944 8.3518L34.4841 4.07099Z" fill="#C4C4C4"/>
<path id="Vector_9" d="M32.8625 20.0905L28.4413 23.8193L32.0518 28.1003L36.4731 24.3715L32.8625 20.0905Z" fill="#C4C4C4"/>
<path id="Vector_10" d="M41.705 12.633L37.2838 16.3618L40.8944 20.6428L45.3156 16.914L41.705 12.633Z" fill="#C4C4C4"/>
</g>
<path id="Vector_11" d="M10.7413 46.9178L14.4193 51.3816L18.7407 47.8208L15.0627 43.3571L10.7413 46.9178Z" fill="#C4C4C4"/>
<path id="Vector_12" d="M26.7405 48.7236L30.4184 53.1873L34.7406 49.6259L31.0626 45.1623L26.7405 48.7236Z" fill="#C4C4C4"/>
<path id="Vector_13" d="M19.3845 39.796L23.0625 44.2598L27.3846 40.6984L23.7066 36.2347L19.3845 39.796Z" fill="#C4C4C4"/>
<path id="Vector_14" d="M11.3331 38.8308L15.011 43.2944L19.3329 39.7333L15.655 35.2697L11.3331 38.8308Z" fill="#C4C4C4"/>
<path id="Vector_15" d="M18.7407 47.821L22.4186 52.2847L26.7405 48.7235L23.0626 44.2599L18.7407 47.821Z" fill="#C4C4C4"/>
<path id="Vector_16" d="M19.9771 31.7085L23.655 36.1721L27.9771 32.6108L24.2991 28.1472L19.9771 31.7085Z" fill="#C4C4C4"/>
<path id="Vector_17" d="M27.3847 40.6985L31.0626 45.1621L35.3847 41.6008L31.7067 37.1372L27.3847 40.6985Z" fill="#C4C4C4"/>
<g id="Group_2">
<path id="Vector_18" d="M4.40742 29.698L8.08536 34.1616L12.4068 30.6009L8.72885 26.1372L4.40742 29.698Z" fill="#C4C4C4"/>
<path id="Vector_19" d="M-2.94864 20.7706L0.729401 25.2344L5.05083 21.6736L1.37279 17.2099L-2.94864 20.7706Z" fill="#C4C4C4"/>
<path id="Vector_20" d="M13.0506 22.5764L16.7285 27.04L21.0507 23.4787L17.3727 19.0151L13.0506 22.5764Z" fill="#C4C4C4"/>
<path id="Vector_21" d="M5.69455 13.6488L9.37259 18.1125L13.6947 14.5512L10.0167 10.0874L5.69455 13.6488Z" fill="#C4C4C4"/>
<path id="Vector_22" d="M3.76348 37.7228L7.44147 42.1865L11.7632 38.6255L8.08523 34.1618L3.76348 37.7228Z" fill="#C4C4C4"/>
<path id="Vector_23" d="M-3.59242 28.7954L0.0855103 33.259L4.40726 29.698L0.729328 25.2344L-3.59242 28.7954Z" fill="#C4C4C4"/>
<path id="Vector_24" d="M12.4066 30.601L16.0846 35.0647L20.4065 31.5036L16.7285 27.0399L12.4066 30.601Z" fill="#C4C4C4"/>
<path id="Vector_25" d="M-2.35683 12.6836L1.32111 17.1472L5.64298 13.5861L1.96505 9.12245L-2.35683 12.6836Z" fill="#C4C4C4"/>
<path id="Vector_26" d="M5.05077 21.6738L8.7287 26.1375L13.0506 22.5763L9.37265 18.1127L5.05077 21.6738Z" fill="#C4C4C4"/>
<path id="Vector_27" d="M21.0507 23.4787L24.7286 27.9424L29.0507 24.3811L25.3727 19.9174L21.0507 23.4787Z" fill="#C4C4C4"/>
<path id="Vector_28" d="M6.28716 5.56126L9.96509 10.0249L14.2872 6.46362L10.6092 1.99998L6.28716 5.56126Z" fill="#C4C4C4"/>
<path id="Vector_29" d="M13.6947 14.5513L17.3727 19.0149L21.6947 15.4536L18.0168 10.99L13.6947 14.5513Z" fill="#C4C4C4"/>
</g>
<g id="Group_3">
<path id="Vector_30" d="M39.4529 28.5197L35.0316 32.2485L38.6417 36.5289L43.0629 32.8001L39.4529 28.5197Z" fill="#C4C4C4"/>
<path id="Vector_31" d="M48.2956 21.0619L43.8742 24.7908L47.4842 29.0711L51.9056 25.3422L48.2956 21.0619Z" fill="#C4C4C4"/>
<path id="Vector_32" d="M46.6732 37.0808L42.252 40.8096L45.8626 45.0906L50.2838 41.3618L46.6732 37.0808Z" fill="#C4C4C4"/>
<path id="Vector_33" d="M31.4213 27.9677L27 31.6965L30.6103 35.9772L35.0316 32.2483L31.4213 27.9677Z" fill="#C4C4C4"/>
<path id="Vector_34" d="M40.2638 20.51L35.8426 24.2388L39.4528 28.5195L43.8741 24.7906L40.2638 20.51Z" fill="#C4C4C4"/>
<path id="Vector_35" d="M38.6416 36.5287L34.2203 40.2576L37.8307 44.5384L42.252 40.8095L38.6416 36.5287Z" fill="#C4C4C4"/>
<path id="Vector_36" d="M49.1684 12.9999L44.7472 16.7288L48.3575 21.0094L52.7787 17.2806L49.1684 12.9999Z" fill="#C4C4C4"/>
<path id="Vector_37" d="M47.484 29.071L43.0628 32.7998L46.6732 37.0806L51.0944 33.3518L47.484 29.071Z" fill="#C4C4C4"/>
</g>
</g>
</g>
</svg>
