<?xml version="1.0" encoding="iso-8859-1"?>
<!-- Generator: Adobe Illustrator 19.0.0, SVG Export Plug-In . SVG Version: 6.00 Build 0)  -->
<svg version="1.1" id="Layer_1" xmlns="http://www.w3.org/2000/svg" xmlns:xlink="http://www.w3.org/1999/xlink" x="0px" y="0px"
	 viewBox="0 0 512 512" style="enable-background:new 0 0 512 512;" xml:space="preserve">
<g>
	<g>
		<g>
			<path d="M394.667,234.667H342.72l-7.488-59.947c-3.307-26.645-26.069-46.72-52.907-46.72h-52.672
				c-26.837,0-49.6,20.075-52.928,46.72l-7.488,59.947h-51.904c-23.531,0-42.667,19.136-42.667,42.667
				c0,23.531,19.136,42.667,42.667,42.667h1.109l20.288,182.507c0.597,5.419,5.163,9.493,10.603,9.493h213.333
				c5.44,0,10.005-4.075,10.603-9.493L393.557,320h1.109c23.531,0,42.667-19.136,42.667-42.667
				C437.333,253.803,418.197,234.667,394.667,234.667z M197.888,177.365c2.005-15.979,15.659-28.032,31.765-28.032h52.672
				c16.107,0,29.76,12.053,31.765,28.032l7.168,57.301H190.72L197.888,177.365z M353.109,490.667H158.891L139.925,320h232.171
				L353.109,490.667z M394.667,298.667H117.333c-11.755,0-21.333-9.579-21.333-21.333C96,265.579,105.579,256,117.333,256h277.333
				c11.755,0,21.333,9.579,21.333,21.333C416,289.088,406.421,298.667,394.667,298.667z"/>
			<path d="M256,106.667c29.397,0,53.333-23.936,53.333-53.333S285.397,0,256,0s-53.333,23.936-53.333,53.333
				S226.603,106.667,256,106.667z M256,21.333c17.643,0,32,14.357,32,32c0,17.643-14.357,32-32,32c-17.643,0-32-14.357-32-32
				C224,35.691,238.357,21.333,256,21.333z"/>
		</g>
	</g>
</g>
<g>
</g>
<g>
</g>
<g>
</g>
<g>
</g>
<g>
</g>
<g>
</g>
<g>
</g>
<g>
</g>
<g>
</g>
<g>
</g>
<g>
</g>
<g>
</g>
<g>
</g>
<g>
</g>
<g>
</g>
</svg>
