<svg width="48" height="49" viewBox="0 0 48 49" fill="none" xmlns="http://www.w3.org/2000/svg">
<path d="M24 46C35.598 46 45 36.3741 45 24.5C45 12.6259 35.598 3 24 3C12.402 3 3 12.6259 3 24.5C3 36.3741 12.402 46 24 46Z" stroke="#E5E5E5" stroke-width="6" stroke-miterlimit="0.2" stroke-linecap="square" stroke-linejoin="round"/>
<path d="M5 18C45 33 45 33 45 33" stroke="#E5E5E5" stroke-width="6"/>
<path d="M28.3125 22.6331C27.0004 21.9525 25.6055 21.4338 24.2244 20.8958C23.4233 20.5846 22.6568 20.2216 21.98 19.716C20.6473 18.7176 20.9028 17.097 22.4634 16.4552C22.9054 16.2737 23.3681 16.2153 23.8376 16.1894C25.6469 16.0987 27.3664 16.4098 29.003 17.1488C29.8179 17.5184 30.0872 17.4017 30.3634 16.6043C30.6535 15.7616 30.8951 14.9059 31.1645 14.0566C31.344 13.4862 31.123 13.1102 30.5499 12.8703C29.5002 12.436 28.4229 12.1248 27.2904 11.9563C25.8126 11.7424 25.8126 11.7359 25.8057 10.3421C25.7988 8.37788 25.7988 8.37788 23.6995 8.37788C23.3957 8.37788 23.0918 8.3714 22.788 8.37788C21.8074 8.40381 21.6417 8.56588 21.6141 9.49289C21.6002 9.90778 21.6141 10.3227 21.6071 10.744C21.6002 11.9757 21.5933 11.9563 20.3365 12.3841C17.2981 13.4213 15.4198 15.3661 15.2195 18.4778C15.0399 21.2329 16.573 23.0934 18.983 24.4483C20.4677 25.2845 22.1113 25.7772 23.6857 26.4319C24.3003 26.6848 24.8873 26.9765 25.3983 27.3784C26.9106 28.5517 26.6344 30.503 24.839 31.242C23.8791 31.6375 22.864 31.7347 21.8212 31.6115C20.2122 31.4235 18.6723 31.0281 17.2221 30.3215C16.3727 29.9066 16.1241 30.0168 15.8341 30.879C15.5855 31.6245 15.3645 32.3765 15.1435 33.1285C14.8466 34.1397 14.9571 34.3796 15.986 34.8528C17.2981 35.4492 18.6999 35.7539 20.1294 35.9678C21.2481 36.1364 21.2826 36.1818 21.2964 37.2708C21.3033 37.7635 21.3033 38.2627 21.3102 38.7554C21.3171 39.3777 21.6348 39.7407 22.3184 39.7537C23.0918 39.7666 23.8722 39.7666 24.6456 39.7472C25.2809 39.7342 25.6055 39.4101 25.6055 38.8072C25.6055 38.133 25.64 37.4524 25.6124 36.7782C25.5779 36.091 25.8955 35.7409 26.5999 35.5594C28.2227 35.1445 29.6038 34.3277 30.6673 33.109C33.6228 29.7381 32.4972 24.8048 28.3125 22.6331Z" fill="#E5E5E5"/>
</svg>
