<svg width="13" height="16" viewBox="0 0 13 16" fill="none" xmlns="http://www.w3.org/2000/svg">
<g clip-path="url(#clip0)">
<path d="M10.8936 2.72346C11.4576 2.72346 11.9149 2.26622 11.9149 1.70218C11.9149 1.13815 11.4576 0.680908 10.8936 0.680908C10.3296 0.680908 9.87231 1.13815 9.87231 1.70218C9.87231 2.26622 10.3296 2.72346 10.8936 2.72346Z" fill="#1C284E"/>
<path d="M6.38298 16.0001C9.9082 16.0001 12.766 13.1423 12.766 9.61711C12.766 6.09189 9.9082 3.23413 6.38298 3.23413C2.85776 3.23413 0 6.09189 0 9.61711C0 13.1423 2.85776 16.0001 6.38298 16.0001Z" fill="#C4C4C4" fill-opacity="0.45"/>
<path d="M6.38298 15.5746C9.67319 15.5746 12.3404 12.9073 12.3404 9.61711C12.3404 6.32691 9.67319 3.65967 6.38298 3.65967C3.09278 3.65967 0.425537 6.32691 0.425537 9.61711C0.425537 12.9073 3.09278 15.5746 6.38298 15.5746Z" stroke="black" stroke-opacity="0.58"/>
<path d="M5.78714 3.74468C6.8212 3.74468 7.65948 2.90641 7.65948 1.87234C7.65948 0.838275 6.8212 0 5.78714 0C4.75307 0 3.91479 0.838275 3.91479 1.87234C3.91479 2.90641 4.75307 3.74468 5.78714 3.74468Z" fill="#A4A4A4"/>
<path d="M2.89352 6.12762C4.30361 6.12762 5.44672 4.98452 5.44672 3.57443C5.44672 2.16434 4.30361 1.02124 2.89352 1.02124C1.48343 1.02124 0.340332 2.16434 0.340332 3.57443C0.340332 4.98452 1.48343 6.12762 2.89352 6.12762Z" fill="#F05133"/>
<path d="M4.6248 7.73291C4.9666 7.73291 5.25689 7.81793 5.49564 7.98797C5.73612 8.1563 5.90187 8.40535 5.9929 8.73514L5.64766 8.81502C5.58582 8.57454 5.46902 8.38474 5.29726 8.24563C5.1255 8.10477 4.89704 8.03434 4.61192 8.03434C4.18422 8.03434 3.87677 8.17347 3.68955 8.45174C3.50403 8.73 3.41129 9.13708 3.41129 9.67298C3.41129 9.90142 3.42245 10.1007 3.44478 10.2707C3.46883 10.4408 3.50919 10.5945 3.56587 10.7319C3.62255 10.8693 3.69641 10.9818 3.78746 11.0694C3.8802 11.1553 3.99529 11.2214 4.1327 11.2678C4.27011 11.3125 4.43243 11.3348 4.61964 11.3348C5.15384 11.3348 5.50853 11.0909 5.68373 10.6031L6.00579 10.7036C5.90272 11.0145 5.72752 11.2481 5.48019 11.4044C5.23457 11.5607 4.94085 11.6388 4.59903 11.6388C4.06657 11.6388 3.66979 11.4834 3.40872 11.1725C3.14763 10.8599 3.01709 10.36 3.01709 9.67298C3.01709 9.00997 3.15707 8.5213 3.43706 8.20697C3.71702 7.89092 4.11294 7.73291 4.6248 7.73291ZM8.36686 7.73291C8.70866 7.73291 8.99895 7.81793 9.2377 7.98797C9.47816 8.1563 9.64391 8.40535 9.73496 8.73514L9.3897 8.81502C9.32788 8.57454 9.21108 8.38474 9.03932 8.24563C8.86754 8.10477 8.6391 8.03434 8.35397 8.03434C7.92628 8.03434 7.61883 8.17347 7.43159 8.45174C7.24609 8.73 7.15335 9.13708 7.15335 9.67298C7.15335 9.90142 7.16451 10.1007 7.18684 10.2707C7.21088 10.4408 7.25125 10.5945 7.30793 10.7319C7.36461 10.8693 7.43847 10.9818 7.5295 11.0694C7.62226 11.1553 7.73735 11.2214 7.87476 11.2678C8.01215 11.3125 8.17449 11.3348 8.3617 11.3348C8.89588 11.3348 9.25059 11.0909 9.42579 10.6031L9.74783 10.7036C9.64478 11.0145 9.46958 11.2481 9.22225 11.4044C8.97661 11.5607 8.68289 11.6388 8.34109 11.6388C7.80861 11.6388 7.41185 11.4834 7.15076 11.1725C6.88969 10.8599 6.75915 10.36 6.75915 9.67298C6.75915 9.00997 6.89913 8.5213 7.1791 8.20697C7.45908 7.89092 7.855 7.73291 8.36686 7.73291Z" fill="black"/>
<path d="M5.49574 7.98807L5.29826 8.26534L5.29938 8.26616L5.30052 8.26696L5.49574 7.98807ZM5.993 8.73523L6.06973 9.06691L6.41562 8.98689L6.32115 8.64466L5.993 8.73523ZM5.64775 8.81511L5.31805 8.8999L5.40079 9.22165L5.72449 9.14677L5.64775 8.81511ZM5.29735 8.24572L5.08149 8.50895L5.08307 8.51025L5.29735 8.24572ZM3.68964 8.45183L3.40719 8.26179L3.40639 8.263L3.68964 8.45183ZM3.44488 10.2708L3.10735 10.3151L3.10757 10.3168L3.1078 10.3185L3.44488 10.2708ZM3.78755 11.0695L3.5515 11.3148L3.55385 11.3171L3.55625 11.3193L3.78755 11.0695ZM4.13279 11.2679L4.02392 11.5904L4.02575 11.5911L4.02757 11.5917L4.13279 11.2679ZM5.68382 10.6032L5.78522 10.2782L5.47373 10.181L5.36343 10.4881L5.68382 10.6032ZM6.00588 10.7037L6.32901 10.8108L6.43803 10.4819L6.10728 10.3787L6.00588 10.7037ZM5.48028 11.4045L5.29843 11.1167L5.29751 11.1173L5.48028 11.4045ZM3.40881 11.1726L3.14752 11.3908L3.14811 11.3915L3.40881 11.1726ZM3.43715 8.20706L3.69135 8.4335L3.69196 8.4328L3.43715 8.20706ZM4.62489 8.07343C4.90804 8.07343 5.12631 8.14289 5.29826 8.26534L5.69323 7.71077C5.38767 7.49314 5.02537 7.39258 4.62489 7.39258V8.07343ZM5.30052 8.26696C5.46568 8.38257 5.59121 8.55908 5.66484 8.82582L6.32115 8.64466C6.21271 8.25183 6.00673 7.93023 5.69095 7.70917L5.30052 8.26696ZM5.91626 8.40357L5.57102 8.48344L5.72449 9.14677L6.06973 9.06691L5.91626 8.40357ZM5.97746 8.73033C5.89977 8.42826 5.74707 8.1719 5.51162 7.98117L5.08307 8.51025C5.19116 8.59779 5.27206 8.72104 5.31805 8.8999L5.97746 8.73033ZM5.5132 7.98247C5.26506 7.779 4.95313 7.69401 4.61201 7.69401V8.37486C4.84115 8.37486 4.9861 8.43074 5.08149 8.50895L5.5132 7.98247ZM4.61201 7.69401C4.10607 7.69401 3.675 7.86376 3.40719 8.26179L3.97208 8.64187C4.07872 8.48339 4.26258 8.37486 4.61201 8.37486V7.69401ZM3.40639 8.263C3.16733 8.62158 3.07095 9.10694 3.07095 9.67307H3.7518C3.7518 9.16739 3.84093 8.8386 3.97289 8.64066L3.40639 8.263ZM3.07095 9.67307C3.07095 9.91181 3.08258 10.1265 3.10735 10.3151L3.78241 10.2265C3.76251 10.075 3.7518 9.89123 3.7518 9.67307H3.07095ZM3.1078 10.3185C3.13524 10.5125 3.18219 10.6944 3.25126 10.8618L3.88067 10.6022C3.83638 10.4948 3.80261 10.3692 3.78195 10.2231L3.1078 10.3185ZM3.25126 10.8618C3.32277 11.0352 3.42108 11.1893 3.5515 11.3148L4.02358 10.8242C3.97192 10.7745 3.92253 10.7037 3.88067 10.6022L3.25126 10.8618ZM3.55625 11.3193C3.68906 11.4423 3.8477 11.531 4.02392 11.5904L4.24164 10.9453C4.14306 10.9121 4.07153 10.8685 4.01883 10.8197L3.55625 11.3193ZM4.02757 11.5917C4.20731 11.6501 4.40677 11.6753 4.61974 11.6753V10.9945C4.45827 10.9945 4.3331 10.975 4.23802 10.9442L4.02757 11.5917ZM4.61974 11.6753C4.93899 11.6753 5.23283 11.602 5.47929 11.4325C5.7266 11.2624 5.89752 11.0153 6.00421 10.7182L5.36343 10.4881C5.29492 10.6789 5.20089 10.7976 5.09351 10.8715C4.98529 10.9459 4.83468 10.9945 4.61974 10.9945V11.6753ZM5.58243 10.9282L5.90449 11.0286L6.10728 10.3787L5.78522 10.2782L5.58243 10.9282ZM5.68275 10.5965C5.60132 10.8422 5.47121 11.0075 5.29843 11.1167L5.66214 11.6922C5.98403 11.4888 6.20431 11.1869 6.32901 10.8108L5.68275 10.5965ZM5.29751 11.1173C5.11543 11.2331 4.88765 11.2985 4.59912 11.2985V11.9793C4.99422 11.9793 5.35388 11.8884 5.66304 11.6917L5.29751 11.1173ZM4.59912 11.2985C4.13373 11.2985 3.84707 11.1651 3.66949 10.9537L3.14811 11.3915C3.49271 11.8018 3.99958 11.9793 4.59912 11.9793V11.2985ZM3.67009 10.9543C3.48506 10.7328 3.35761 10.3306 3.35761 9.67307H2.67676C2.67676 10.3896 2.81037 10.9871 3.14752 11.3908L3.67009 10.9543ZM3.35761 9.67307C3.35761 9.04781 3.49123 8.65816 3.69135 8.4335L3.18294 7.98065C2.82311 8.38463 2.67676 8.97231 2.67676 9.67307H3.35761ZM3.69196 8.4328C3.89376 8.205 4.18797 8.07343 4.62489 8.07343V7.39258C4.0381 7.39258 3.54047 7.57704 3.18232 7.98133L3.69196 8.4328ZM9.2378 7.98807L9.0403 8.26534L9.04144 8.26616L9.04258 8.26696L9.2378 7.98807ZM9.73506 8.73523L9.81177 9.06691L10.1577 8.98689L10.0632 8.64466L9.73506 8.73523ZM9.3898 8.81511L9.06011 8.8999L9.14285 9.22165L9.46653 9.14677L9.3898 8.81511ZM9.03941 8.24572L8.82355 8.50895L8.82513 8.51025L9.03941 8.24572ZM7.43169 8.45183L7.14925 8.26179L7.14843 8.263L7.43169 8.45183ZM7.18694 10.2708L6.8494 10.3151L6.84963 10.3168L6.84986 10.3185L7.18694 10.2708ZM7.52959 11.0695L7.29356 11.3148L7.29591 11.3171L7.29831 11.3193L7.52959 11.0695ZM7.87485 11.2679L7.76598 11.5904L7.76781 11.5911L7.76963 11.5917L7.87485 11.2679ZM9.42588 10.6032L9.52726 10.2782L9.21579 10.181L9.10549 10.4881L9.42588 10.6032ZM9.74792 10.7037L10.0711 10.8108L10.1801 10.4819L9.84932 10.3787L9.74792 10.7037ZM9.22234 11.4045L9.04047 11.1167L9.03957 11.1173L9.22234 11.4045ZM7.15085 11.1726L6.88957 11.3908L6.89017 11.3915L7.15085 11.1726ZM7.17919 8.20706L7.4334 8.4335L7.43402 8.4328L7.17919 8.20706ZM8.36695 8.07343C8.65009 8.07343 8.86837 8.14289 9.0403 8.26534L9.43528 7.71077C9.12971 7.49314 8.76743 7.39258 8.36695 7.39258V8.07343ZM9.04258 8.26696C9.20774 8.38257 9.33327 8.55908 9.4069 8.82582L10.0632 8.64466C9.95477 8.25183 9.74879 7.93023 9.43301 7.70917L9.04258 8.26696ZM9.65832 8.40357L9.31308 8.48344L9.46653 9.14677L9.81177 9.06691L9.65832 8.40357ZM9.7195 8.73033C9.64183 8.42826 9.48913 8.1719 9.25368 7.98117L8.82513 8.51025C8.93322 8.59779 9.01412 8.72104 9.06011 8.8999L9.7195 8.73033ZM9.25526 7.98247C9.00712 7.779 8.69519 7.69401 8.35407 7.69401V8.37486C8.58319 8.37486 8.72816 8.43074 8.82355 8.50895L9.25526 7.98247ZM8.35407 7.69401C7.84811 7.69401 7.41706 7.86376 7.14925 8.26179L7.71414 8.64187C7.82078 8.48339 8.00462 8.37486 8.35407 8.37486V7.69401ZM7.14843 8.263C6.90939 8.62158 6.81301 9.10694 6.81301 9.67307H7.49386C7.49386 9.16739 7.58299 8.8386 7.71494 8.64066L7.14843 8.263ZM6.81301 9.67307C6.81301 9.91181 6.82462 10.1265 6.8494 10.3151L7.52445 10.2265C7.50457 10.075 7.49386 9.89123 7.49386 9.67307H6.81301ZM6.84986 10.3185C6.87729 10.5125 6.92425 10.6944 6.99332 10.8618L7.62273 10.6022C7.57844 10.4948 7.54466 10.3692 7.52399 10.2231L6.84986 10.3185ZM6.99332 10.8618C7.06483 11.0352 7.16314 11.1893 7.29356 11.3148L7.76564 10.8242C7.71398 10.7745 7.66459 10.7037 7.62273 10.6022L6.99332 10.8618ZM7.29831 11.3193C7.43111 11.4423 7.58976 11.531 7.76598 11.5904L7.9837 10.9453C7.8851 10.9121 7.81359 10.8685 7.76089 10.8197L7.29831 11.3193ZM7.76963 11.5917C7.94935 11.6501 8.14883 11.6753 8.3618 11.6753V10.9945C8.20032 10.9945 8.07516 10.975 7.98006 10.9442L7.76963 11.5917ZM8.3618 11.6753C8.68105 11.6753 8.97487 11.602 9.22134 11.4325C9.46866 11.2624 9.63958 11.0153 9.74626 10.7182L9.10549 10.4881C9.03696 10.6789 8.94295 10.7976 8.83557 10.8715C8.72735 10.9459 8.57672 10.9945 8.3618 10.9945V11.6753ZM9.32449 10.9282L9.64655 11.0286L9.84932 10.3787L9.52726 10.2782L9.32449 10.9282ZM9.42479 10.5965C9.34338 10.8422 9.21327 11.0075 9.04047 11.1167L9.4042 11.6922C9.72609 11.4888 9.94637 11.1869 10.0711 10.8108L9.42479 10.5965ZM9.03957 11.1173C8.85749 11.2331 8.62971 11.2985 8.34118 11.2985V11.9793C8.73628 11.9793 9.09592 11.8884 9.4051 11.6917L9.03957 11.1173ZM8.34118 11.2985C7.87579 11.2985 7.58912 11.1651 7.41155 10.9537L6.89017 11.3915C7.23477 11.8018 7.74164 11.9793 8.34118 11.9793V11.2985ZM7.41215 10.9543C7.22712 10.7328 7.09967 10.3306 7.09967 9.67307H6.41882C6.41882 10.3896 6.55243 10.9871 6.88957 11.3908L7.41215 10.9543ZM7.09967 9.67307C7.09967 9.04781 7.23329 8.65816 7.4334 8.4335L6.925 7.98065C6.56517 8.38463 6.41882 8.97231 6.41882 9.67307H7.09967ZM7.43402 8.4328C7.63582 8.205 7.93002 8.07343 8.36695 8.07343V7.39258C7.78016 7.39258 7.28253 7.57704 6.92438 7.98133L7.43402 8.4328Z" fill="black"/>
</g>
<defs>
<clipPath id="clip0">
<rect width="12.766" height="16" fill="white"/>
</clipPath>
</defs>
</svg>
