<?xml version="1.0" encoding="iso-8859-1"?>
<!-- Generator: Adobe Illustrator 18.1.1, SVG Export Plug-In . SVG Version: 6.00 Build 0)  -->
<svg version="1.1" id="Capa_1" xmlns="http://www.w3.org/2000/svg" xmlns:xlink="http://www.w3.org/1999/xlink" x="0px" y="0px"
	 viewBox="0 0 53 53" style="enable-background:new 0 0 53 53;" xml:space="preserve">
<g>
	<path style="fill:#010002;" d="M7,45.875h39c0.553,0,1-0.447,1-1v-26c0-0.552-0.447-1-1-1H7c-0.552,0-1,0.448-1,1v26
		C6,45.428,6.448,45.875,7,45.875z M8,19.875h37v24H8V19.875z M52,11.875H32.196c-0.126-4.836-1.598-9.75-5.425-9.75
		c-3.828,0-5.3,4.914-5.426,9.75H1c-0.552,0-1,0.448-1,1v37c0,0.553,0.448,1,1,1h51c0.553,0,1-0.447,1-1v-37
		C53,12.323,52.553,11.875,52,11.875z M26.771,4.125c2.518,0,3.319,4.732,3.423,7.75h-6.848C23.451,8.857,24.252,4.125,26.771,4.125
		z M51,48.875H2v-35h49V48.875z M28.667,6.833c0,1.036-0.839,1.875-1.875,1.875s-1.875-0.839-1.875-1.875s0.839-1.875,1.875-1.875
		S28.667,5.797,28.667,6.833z"/>
</g>
<g>
</g>
<g>
</g>
<g>
</g>
<g>
</g>
<g>
</g>
<g>
</g>
<g>
</g>
<g>
</g>
<g>
</g>
<g>
</g>
<g>
</g>
<g>
</g>
<g>
</g>
<g>
</g>
<g>
</g>
</svg>
