<svg width="348" height="33" viewBox="0 0 348 33" fill="none" xmlns="http://www.w3.org/2000/svg">
<path d="M16.7875 26.9812C15.35 26.9937 14 26.7312 12.7375 26.1937C11.4875 25.6562 10.4 24.9187 9.475 23.9812C8.5625 23.0437 7.8375 21.9437 7.3 20.6812C6.775 19.4062 6.5125 18.05 6.5125 16.6125C6.5125 15.1625 6.76875 13.8125 7.28125 12.5625C7.80625 11.3 8.525 10.2062 9.4375 9.28125C10.3625 8.35625 11.45 7.63125 12.7 7.10625C13.9625 6.56875 15.325 6.3 16.7875 6.3C18 6.3 19.125 6.5 20.1625 6.9C21.2125 7.3 22.175 7.83125 23.05 8.49375C23.2 8.60625 23.35 8.6625 23.5 8.6625C23.6125 8.6625 23.7063 8.64375 23.7813 8.60625C23.8688 8.55625 23.9313 8.5 23.9688 8.4375L25.2063 6.65625C25.2688 6.56875 25.3063 6.44375 25.3188 6.28125C25.3313 6.11875 25.225 5.95 25 5.775C23.85 4.875 22.5938 4.175 21.2313 3.675C19.8813 3.175 18.3875 2.925 16.75 2.925C14.85 2.925 13.0625 3.28125 11.3875 3.99375C9.7125 4.70625 8.25 5.68125 7 6.91875C5.7625 8.15625 4.78125 9.60625 4.05625 11.2687C3.34375 12.9312 2.9875 14.7125 2.9875 16.6125C2.9875 18.5125 3.35 20.3 4.075 21.975C4.8 23.6375 5.7875 25.0875 7.0375 26.325C8.2875 27.5625 9.75 28.5437 11.425 29.2687C13.1 29.9812 14.8875 30.3375 16.7875 30.3375C18.425 30.3375 19.95 30.0938 21.3625 29.6062C22.775 29.1062 24.0438 28.4437 25.1688 27.6187C25.2938 27.5312 25.3813 27.425 25.4313 27.3C25.4813 27.175 25.5063 27.0437 25.5063 26.9062V18.8437C25.5063 18.5937 25.4438 18.4187 25.3188 18.3187C25.2063 18.2187 25.0625 18.1687 24.8875 18.1687H22.8063C22.5938 18.1687 22.4313 18.2312 22.3188 18.3562C22.2188 18.4687 22.1688 18.6312 22.1688 18.8437V25.4062C21.5313 25.8937 20.725 26.275 19.75 26.55C18.7875 26.825 17.8 26.9687 16.7875 26.9812ZM33.468 29.3625C33.468 29.7875 33.6742 30 34.0867 30H50.0992C50.3117 30 50.4805 29.95 50.6055 29.85C50.743 29.7375 50.8117 29.575 50.8117 29.3625V27.3562C50.8117 27.1437 50.743 26.9875 50.6055 26.8875C50.4805 26.7875 50.3117 26.7375 50.0992 26.7375H36.9367V3.95625C36.9367 3.49375 36.7367 3.2625 36.3367 3.2625H34.0867C33.8992 3.2625 33.7492 3.325 33.6367 3.45C33.5242 3.575 33.468 3.74375 33.468 3.95625V29.3625ZM55.3094 16.65C55.3094 18.55 55.6656 20.3312 56.3781 21.9937C57.1031 23.6562 58.0906 25.1062 59.3406 26.3437C60.5906 27.5687 62.0469 28.5375 63.7094 29.25C65.3844 29.9625 67.1719 30.3188 69.0719 30.3188C70.9719 30.3188 72.7531 29.9625 74.4156 29.25C76.0781 28.5375 77.5219 27.5687 78.7469 26.3437C79.9844 25.1062 80.9531 23.6562 81.6531 21.9937C82.3656 20.3312 82.7219 18.55 82.7219 16.65C82.7219 14.75 82.3656 12.9687 81.6531 11.3062C80.9531 9.63125 79.9844 8.175 78.7469 6.9375C77.5219 5.6875 76.0781 4.70625 74.4156 3.99375C72.7531 3.26875 70.9719 2.90625 69.0719 2.90625C67.1719 2.90625 65.3844 3.26875 63.7094 3.99375C62.0469 4.70625 60.5906 5.6875 59.3406 6.9375C58.0906 8.175 57.1031 9.63125 56.3781 11.3062C55.6656 12.9687 55.3094 14.75 55.3094 16.65ZM58.8156 16.65C58.8156 15.2 59.0781 13.85 59.6031 12.6C60.1281 11.3375 60.8531 10.2437 61.7781 9.31875C62.7031 8.38125 63.7906 7.64375 65.0406 7.10625C66.2906 6.56875 67.6344 6.3 69.0719 6.3C70.5219 6.3 71.8594 6.56875 73.0844 7.10625C74.3219 7.64375 75.3969 8.38125 76.3094 9.31875C77.2219 10.2437 77.9344 11.3375 78.4469 12.6C78.9594 13.85 79.2156 15.2 79.2156 16.65C79.2156 18.0875 78.9594 19.4312 78.4469 20.6812C77.9344 21.9312 77.2219 23.025 76.3094 23.9625C75.3969 24.8875 74.3219 25.6187 73.0844 26.1562C71.8594 26.6812 70.5219 26.9437 69.0719 26.9437C67.6344 26.9437 66.2906 26.6812 65.0406 26.1562C63.7906 25.6187 62.7031 24.8875 61.7781 23.9625C60.8531 23.025 60.1281 21.9312 59.6031 20.6812C59.0781 19.4312 58.8156 18.0875 58.8156 16.65ZM103.094 17.925C103.606 17.925 104.119 18.0312 104.631 18.2437C105.156 18.4437 105.631 18.7375 106.056 19.125C106.481 19.5125 106.825 19.9937 107.088 20.5687C107.35 21.1312 107.481 21.7687 107.481 22.4812C107.481 22.9437 107.4 23.4187 107.238 23.9062C107.075 24.3937 106.819 24.8375 106.469 25.2375C106.131 25.6375 105.694 25.9687 105.156 26.2312C104.631 26.4937 103.994 26.625 103.244 26.625H94.3188V17.925H103.094ZM101.931 6.61875C103.219 6.61875 104.238 6.95625 104.988 7.63125C105.738 8.29375 106.113 9.25 106.113 10.5C106.113 11.7625 105.731 12.7437 104.969 13.4437C104.206 14.1437 103.181 14.4937 101.894 14.4937H94.3188V6.61875H101.931ZM90.8313 29.3625C90.8313 29.7875 91.0375 30 91.45 30H103.675C104.65 30 105.581 29.8 106.469 29.4C107.356 29 108.138 28.4625 108.813 27.7875C109.488 27.1 110.025 26.3062 110.425 25.4062C110.825 24.5062 111.025 23.5625 111.025 22.575C111.025 21.8625 110.931 21.1625 110.744 20.475C110.556 19.775 110.288 19.1312 109.938 18.5437C109.588 17.9437 109.169 17.4062 108.681 16.9312C108.206 16.4562 107.669 16.075 107.069 15.7875C107.931 15.2 108.563 14.45 108.963 13.5375C109.363 12.6125 109.563 11.5687 109.563 10.4062C109.563 9.39375 109.388 8.45625 109.038 7.59375C108.7 6.71875 108.225 5.9625 107.613 5.325C107.013 4.675 106.294 4.16875 105.456 3.80625C104.619 3.43125 103.706 3.24375 102.719 3.24375H91.45C91.0375 3.24375 90.8313 3.45 90.8313 3.8625V29.3625ZM133.661 20.8875H123.798L128.786 8.5875L133.661 20.8875ZM116.636 29.2312C116.536 29.4812 116.536 29.675 116.636 29.8125C116.748 29.9375 116.911 30 117.123 30H119.748C119.886 30 120.011 29.9625 120.123 29.8875C120.248 29.8125 120.355 29.6687 120.442 29.4562L122.467 24.3375H135.03L137.073 29.4562C137.148 29.6687 137.242 29.8125 137.355 29.8875C137.48 29.9625 137.611 30 137.748 30H140.186C140.386 30 140.542 29.9375 140.655 29.8125C140.767 29.675 140.773 29.4812 140.673 29.2312L130.323 3.825C130.236 3.6125 130.123 3.46875 129.986 3.39375C129.861 3.30625 129.73 3.2625 129.592 3.2625H127.905C127.767 3.2625 127.63 3.30625 127.492 3.39375C127.367 3.46875 127.261 3.6125 127.173 3.825L116.636 29.2312ZM147.702 29.3625C147.702 29.7875 147.909 30 148.321 30H164.334C164.546 30 164.715 29.95 164.84 29.85C164.977 29.7375 165.046 29.575 165.046 29.3625V27.3562C165.046 27.1437 164.977 26.9875 164.84 26.8875C164.715 26.7875 164.546 26.7375 164.334 26.7375H151.171V3.95625C151.171 3.49375 150.971 3.2625 150.571 3.2625H148.321C148.134 3.2625 147.984 3.325 147.871 3.45C147.759 3.575 147.702 3.74375 147.702 3.95625V29.3625ZM185.134 25.8562C185.747 26.5562 186.428 27.1875 187.178 27.75C187.941 28.3 188.728 28.7687 189.541 29.1562C190.366 29.5437 191.203 29.8375 192.053 30.0375C192.916 30.25 193.759 30.3563 194.584 30.3563C196.009 30.3563 197.347 30.1813 198.597 29.8312C199.847 29.4812 200.934 28.9625 201.859 28.275C202.797 27.5875 203.534 26.7375 204.072 25.725C204.609 24.7125 204.878 23.55 204.878 22.2375C204.878 20.975 204.584 19.9187 203.997 19.0687C203.422 18.2187 202.672 17.5 201.747 16.9125C200.834 16.325 199.803 15.8375 198.653 15.45C197.516 15.0625 196.384 14.7 195.259 14.3625C194.497 14.1375 193.753 13.9062 193.028 13.6687C192.316 13.4312 191.678 13.15 191.116 12.825C190.566 12.5 190.122 12.1125 189.784 11.6625C189.447 11.2 189.278 10.6375 189.278 9.975C189.278 9.2375 189.453 8.63125 189.803 8.15625C190.166 7.66875 190.616 7.2875 191.153 7.0125C191.703 6.725 192.303 6.525 192.953 6.4125C193.603 6.2875 194.216 6.225 194.791 6.225C195.428 6.225 196.034 6.3125 196.609 6.4875C197.197 6.65 197.747 6.8625 198.259 7.125C198.784 7.3875 199.272 7.68125 199.722 8.00625C200.172 8.33125 200.578 8.65 200.941 8.9625C201.078 9.0875 201.209 9.19375 201.334 9.28125C201.459 9.35625 201.591 9.39375 201.728 9.39375C201.853 9.39375 201.991 9.3375 202.141 9.225L203.509 7.875C203.684 7.6875 203.766 7.5 203.753 7.3125C203.741 7.125 203.653 6.94375 203.491 6.76875C202.953 6.18125 202.353 5.65625 201.691 5.19375C201.028 4.71875 200.322 4.31875 199.572 3.99375C198.834 3.65625 198.059 3.4 197.247 3.225C196.447 3.0375 195.634 2.94375 194.809 2.94375C193.359 2.94375 192.066 3.125 190.928 3.4875C189.803 3.85 188.847 4.35 188.059 4.9875C187.284 5.625 186.691 6.375 186.278 7.2375C185.878 8.0875 185.678 9.0125 185.678 10.0125C185.678 11 185.841 11.8687 186.166 12.6187C186.503 13.3562 187.009 14.0125 187.684 14.5875C188.372 15.1625 189.241 15.6812 190.291 16.1437C191.353 16.5937 192.616 17.025 194.078 17.4375C194.503 17.55 194.972 17.6812 195.484 17.8312C196.009 17.9687 196.541 18.1312 197.078 18.3187C197.616 18.4937 198.141 18.7 198.653 18.9375C199.166 19.175 199.622 19.4562 200.022 19.7812C200.422 20.0937 200.741 20.4562 200.978 20.8687C201.228 21.2687 201.353 21.7312 201.353 22.2562C201.353 23.1062 201.147 23.8312 200.734 24.4312C200.322 25.0312 199.797 25.525 199.159 25.9125C198.534 26.2875 197.847 26.5625 197.097 26.7375C196.359 26.9125 195.659 27 194.997 27C194.247 27 193.522 26.9062 192.822 26.7187C192.122 26.5187 191.459 26.2625 190.834 25.95C190.209 25.625 189.628 25.2562 189.091 24.8437C188.553 24.4187 188.078 23.975 187.666 23.5125C187.416 23.2625 187.191 23.1375 186.991 23.1375C186.841 23.1375 186.709 23.1875 186.597 23.2875L185.003 24.6937C184.791 24.9062 184.722 25.1125 184.797 25.3125C184.872 25.5 184.984 25.6812 185.134 25.8562ZM215.676 3.9C215.676 3.7125 215.632 3.55625 215.545 3.43125C215.47 3.30625 215.313 3.24375 215.076 3.24375H212.788C212.601 3.24375 212.451 3.30625 212.338 3.43125C212.238 3.55625 212.188 3.7125 212.188 3.9V19.3875C212.188 21.1375 212.488 22.7 213.088 24.075C213.688 25.4375 214.501 26.5937 215.526 27.5437C216.551 28.4812 217.738 29.2 219.088 29.7C220.451 30.1875 221.888 30.4313 223.401 30.4313C224.913 30.4313 226.326 30.1875 227.638 29.7C228.951 29.2125 230.095 28.5062 231.07 27.5812C232.045 26.6437 232.813 25.5 233.376 24.15C233.938 22.7875 234.22 21.2312 234.22 19.4812V3.91875C234.22 3.74375 234.163 3.5875 234.051 3.45C233.938 3.3125 233.776 3.24375 233.563 3.24375H231.37C231.157 3.24375 230.995 3.3125 230.882 3.45C230.782 3.575 230.732 3.73125 230.732 3.91875V19.2375C230.732 20.375 230.545 21.425 230.17 22.3875C229.807 23.3375 229.301 24.1625 228.651 24.8625C228.001 25.55 227.226 26.0875 226.326 26.475C225.426 26.8625 224.451 27.0562 223.401 27.0562C222.351 27.0562 221.357 26.8687 220.42 26.4937C219.495 26.1187 218.676 25.5875 217.963 24.9C217.263 24.2125 216.707 23.3937 216.295 22.4437C215.882 21.4812 215.676 20.4125 215.676 19.2375V3.9ZM254.896 28.4062C254.984 28.6062 255.077 28.7375 255.177 28.8C255.277 28.85 255.39 28.875 255.515 28.875H257.39C257.515 28.875 257.621 28.85 257.709 28.8C257.809 28.7375 257.902 28.6062 257.99 28.4062L265.996 9.0375L268.096 29.3812C268.121 29.5937 268.177 29.75 268.265 29.85C268.365 29.95 268.521 30 268.734 30H271.059C271.484 30 271.677 29.7812 271.64 29.3437L268.659 3.84375C268.621 3.44375 268.402 3.24375 268.002 3.24375H264.946C264.696 3.24375 264.502 3.41875 264.365 3.76875L256.471 23.1187L248.484 3.73125C248.359 3.40625 248.184 3.24375 247.959 3.24375H244.921C244.709 3.24375 244.546 3.3 244.434 3.4125C244.334 3.525 244.271 3.66875 244.246 3.84375L241.396 29.3062C241.359 29.7687 241.559 30 241.996 30H244.134C244.521 30 244.734 29.7875 244.771 29.3625L246.984 9.05625L254.896 28.4062ZM291.224 28.4062C291.312 28.6062 291.405 28.7375 291.505 28.8C291.605 28.85 291.718 28.875 291.843 28.875H293.718C293.843 28.875 293.949 28.85 294.037 28.8C294.137 28.7375 294.23 28.6062 294.318 28.4062L302.324 9.0375L304.424 29.3812C304.449 29.5937 304.505 29.75 304.593 29.85C304.693 29.95 304.849 30 305.062 30H307.387C307.812 30 308.005 29.7812 307.968 29.3437L304.987 3.84375C304.949 3.44375 304.73 3.24375 304.33 3.24375H301.274C301.024 3.24375 300.83 3.41875 300.693 3.76875L292.799 23.1187L284.812 3.73125C284.687 3.40625 284.512 3.24375 284.287 3.24375H281.249C281.037 3.24375 280.874 3.3 280.762 3.4125C280.662 3.525 280.599 3.66875 280.574 3.84375L277.724 29.3062C277.687 29.7687 277.887 30 278.324 30H280.462C280.849 30 281.062 29.7875 281.099 29.3625L283.312 9.05625L291.224 28.4062ZM315.29 29.3062C315.29 29.7687 315.496 30 315.909 30H318.159C318.571 30 318.777 29.7687 318.777 29.3062V3.91875C318.777 3.70625 318.727 3.54375 318.627 3.43125C318.527 3.30625 318.371 3.24375 318.159 3.24375H315.909C315.709 3.24375 315.552 3.30625 315.44 3.43125C315.34 3.54375 315.29 3.70625 315.29 3.91875V29.3062ZM325.659 6.09375C325.659 6.51875 325.871 6.73125 326.296 6.73125H334.021V29.3625C334.021 29.7875 334.234 30 334.659 30H336.909C337.321 30 337.527 29.7875 337.527 29.3625V6.73125H345.271C345.671 6.73125 345.871 6.51875 345.871 6.09375V3.88125C345.871 3.45625 345.671 3.24375 345.271 3.24375H326.296C325.871 3.24375 325.659 3.45625 325.659 3.88125V6.09375Z" fill="#EC5242"/>
<path d="M16.7875 26.9812L16.8049 28.9812L16.8122 28.9811L16.7875 26.9812ZM12.7375 26.1937L11.9474 28.0311L11.9541 28.0339L12.7375 26.1937ZM9.475 23.9812L8.04177 25.3763L8.05133 25.3859L9.475 23.9812ZM7.3 20.6813L5.45064 21.4427L5.45517 21.4537L5.45983 21.4647L7.3 20.6813ZM7.28125 12.5625L5.43453 11.7946L5.43075 11.8038L7.28125 12.5625ZM9.4375 9.28125L8.02325 7.867L8.0137 7.87669L9.4375 9.28125ZM12.7 7.10625L13.4745 8.95023L13.4834 8.94642L12.7 7.10625ZM20.1625 6.9L19.443 8.76613L19.4505 8.76897L20.1625 6.9ZM23.05 8.49375L21.8427 10.0883L21.85 10.0938L23.05 8.49375ZM23.7813 8.60625L24.6757 10.3951L24.7253 10.3703L24.7735 10.3427L23.7813 8.60625ZM23.9688 8.4375L22.3262 7.29639L22.2881 7.35123L22.2538 7.40849L23.9688 8.4375ZM25.2063 6.65625L23.5788 5.49378L23.5712 5.50441L23.5637 5.51513L25.2063 6.65625ZM25.3188 6.28125L27.3129 6.43466L27.3129 6.43464L25.3188 6.28125ZM25 5.775L23.7674 7.35001L23.7721 7.35371L25 5.775ZM21.2313 3.675L20.5366 5.55051L20.5422 5.55257L21.2313 3.675ZM11.3875 3.99374L10.6046 2.15334H10.6046L11.3875 3.99374ZM7 6.91875L5.59289 5.49743L5.58579 5.50453L7 6.91875ZM4.05625 11.2687L2.22295 10.4693L2.21796 10.4809L4.05625 11.2687ZM4.075 21.975L2.23955 22.7694L2.24174 22.7745L4.075 21.975ZM7.0375 26.325L5.63041 27.7463H5.63041L7.0375 26.325ZM11.425 29.2688L10.6305 31.1042L10.6421 31.1092L11.425 29.2688ZM21.3625 29.6062L22.015 31.4968L22.0225 31.4942L22.0299 31.4916L21.3625 29.6062ZM25.1688 27.6188L24.0218 25.9803L24.0038 25.9929L23.986 26.0059L25.1688 27.6188ZM25.4313 27.3L23.5743 26.5572L23.5743 26.5572L25.4313 27.3ZM25.3188 18.3187L23.99 19.8136L24.0288 19.8481L24.0694 19.8805L25.3188 18.3187ZM22.3188 18.3562L20.8321 17.0183L20.8239 17.0275L22.3188 18.3562ZM22.1688 25.4062L23.3837 26.995L24.1688 26.3946V25.4062H22.1688ZM19.75 26.55L19.2071 24.6251L19.2006 24.627L19.75 26.55ZM16.7701 24.9813C15.5943 24.9915 14.5183 24.7782 13.5209 24.3536L11.9541 28.0339C13.4817 28.6843 15.1057 28.9959 16.8049 28.9812L16.7701 24.9813ZM13.5276 24.3564C12.5067 23.9174 11.6363 23.3242 10.8987 22.5766L8.05133 25.3859C9.16366 26.5133 10.4683 27.3951 11.9474 28.0311L13.5276 24.3564ZM10.9082 22.5863C10.1763 21.8343 9.58572 20.9443 9.14017 19.8978L5.45983 21.4647C6.08928 22.9432 6.94873 24.2532 8.04181 25.3762L10.9082 22.5863ZM9.14936 19.9197C8.72804 18.8966 8.5125 17.8001 8.5125 16.6125H4.5125C4.5125 18.2999 4.82196 19.9159 5.45064 21.4427L9.14936 19.9197ZM8.5125 16.6125C8.5125 15.4035 8.72502 14.3132 9.13175 13.3212L5.43075 11.8038C4.81248 13.3118 4.5125 14.9215 4.5125 16.6125H8.5125ZM9.12794 13.3304C9.55946 12.2927 10.1387 11.4183 10.8613 10.6858L8.0137 7.87669C6.91128 8.99422 6.05304 10.3073 5.43456 11.7946L9.12794 13.3304ZM10.8517 10.6955C11.5867 9.96052 12.4547 9.37852 13.4745 8.95021L11.9255 5.26228C10.4453 5.88398 9.13834 6.75198 8.02329 7.86703L10.8517 10.6955ZM13.4834 8.94642C14.4822 8.52121 15.5763 8.3 16.7875 8.3V4.3C15.0737 4.3 13.4428 4.61629 11.9166 5.26608L13.4834 8.94642ZM16.7875 8.3C17.7763 8.3 18.655 8.4623 19.443 8.76611L20.882 5.03389C19.595 4.5377 18.2237 4.3 16.7875 4.3V8.3ZM19.4505 8.76897C20.3275 9.10306 21.1226 9.54299 21.8427 10.0883L24.2573 6.89924C23.2274 6.11951 22.0975 5.49693 20.8745 5.03102L19.4505 8.76897ZM21.85 10.0938C22.2583 10.4 22.819 10.6625 23.5 10.6625V6.6625C23.881 6.6625 24.1417 6.81249 24.25 6.89375L21.85 10.0938ZM23.5 10.6625C23.8218 10.6625 24.2448 10.6106 24.6757 10.3951L22.8868 6.8174C23.1677 6.67694 23.4032 6.6625 23.5 6.6625V10.6625ZM24.7735 10.3427C25.0502 10.1847 25.4152 9.91399 25.6837 9.4665L22.2538 7.40849C22.4473 7.08601 22.6873 6.92784 22.789 6.86976L24.7735 10.3427ZM25.6113 9.57861L26.8488 7.79736L23.5637 5.51513L22.3262 7.29639L25.6113 9.57861ZM26.8337 7.81871C27.1905 7.31927 27.2857 6.78714 27.3129 6.43466L23.3246 6.12784C23.3268 6.0999 23.3345 6.02583 23.3656 5.92217C23.3969 5.8177 23.4584 5.66232 23.5788 5.49378L26.8337 7.81871ZM27.3129 6.43464C27.4059 5.22458 26.5896 4.47759 26.2279 4.19629L23.7721 7.35371C23.7671 7.34981 23.7423 7.33016 23.7063 7.29286C23.6708 7.25595 23.6149 7.19196 23.556 7.09844C23.4325 6.90234 23.2912 6.56316 23.3246 6.12786L27.3129 6.43464ZM26.2326 4.19999C24.9193 3.1722 23.4799 2.36976 21.9203 1.79743L20.5422 5.55257C21.7076 5.98024 22.7807 6.57779 23.7674 7.35001L26.2326 4.19999ZM21.9259 1.7995C20.3252 1.20666 18.5924 0.924995 16.75 0.924995V4.925C18.1826 4.925 19.4373 5.14334 20.5366 5.5505L21.9259 1.7995ZM16.75 0.924995C14.593 0.924995 12.538 1.33092 10.6046 2.15334L12.1704 5.83416C13.587 5.23158 15.107 4.925 16.75 4.925V0.924995ZM10.6046 2.15334C8.70519 2.9613 7.02889 4.07583 5.59291 5.49744L8.40709 8.34005C9.47111 7.28667 10.7198 6.45119 12.1704 5.83416L10.6046 2.15334ZM5.58579 5.50453C4.16496 6.92537 3.04429 8.58595 2.22299 10.4693L5.88951 12.0682C6.51821 10.6266 7.36004 9.38713 8.41421 8.33296L5.58579 5.50453ZM2.21796 10.4809C1.39342 12.4048 0.9875 14.4556 0.9875 16.6125H4.9875C4.9875 14.9694 5.29408 13.4576 5.89454 12.0566L2.21796 10.4809ZM0.9875 16.6125C0.9875 18.7743 1.40155 20.8334 2.23956 22.7694L5.91044 21.1805C5.29845 19.7666 4.9875 18.2507 4.9875 16.6125H0.9875ZM2.24174 22.7745C3.06488 24.662 4.19459 26.3248 5.63041 27.7463L8.44459 24.9037C7.38041 23.8502 6.53512 22.613 5.90826 21.1755L2.24174 22.7745ZM5.63041 27.7463C7.06375 29.1653 8.73611 30.2842 10.6306 31.1042L12.2194 27.4333C10.7639 26.8033 9.51125 25.9597 8.44459 24.9037L5.63041 27.7463ZM10.6421 31.1092C12.5755 31.9316 14.6305 32.3375 16.7875 32.3375V28.3375C15.1445 28.3375 13.6245 28.0309 12.2079 27.4283L10.6421 31.1092ZM16.7875 32.3375C18.6259 32.3375 20.3734 32.0634 22.015 31.4968L20.71 27.7157C19.5266 28.1241 18.2241 28.3375 16.7875 28.3375V32.3375ZM22.0299 31.4916C23.613 30.9312 25.0577 30.1803 26.3515 29.2316L23.986 26.0059C23.0298 26.7072 21.937 27.2813 20.6951 27.7209L22.0299 31.4916ZM26.3157 29.2572C26.7156 28.9772 27.075 28.5757 27.2882 28.0428L23.5743 26.5572C23.6875 26.2743 23.8719 26.0853 24.0218 25.9803L26.3157 29.2572ZM27.2882 28.0428C27.4347 27.6765 27.5063 27.2926 27.5063 26.9062H23.5063C23.5063 26.7949 23.5278 26.6735 23.5743 26.5572L27.2882 28.0428ZM27.5063 26.9062V18.8438H23.5063V26.9062H27.5063ZM27.5063 18.8438C27.5063 18.3302 27.3832 17.4091 26.5681 16.757L24.0694 19.8805C23.5043 19.4284 23.5063 18.8573 23.5063 18.8438H27.5063ZM26.6475 16.8239C26.1102 16.3464 25.4677 16.1687 24.8875 16.1687V20.1687C24.7843 20.1687 24.6379 20.1538 24.4695 20.0952C24.2967 20.0351 24.1319 19.9397 23.99 19.8136L26.6475 16.8239ZM24.8875 16.1687H22.8063V20.1687H24.8875V16.1687ZM22.8063 16.1687C22.1868 16.1687 21.4192 16.3661 20.8322 17.0183L23.8053 19.6942C23.6431 19.8745 23.4453 20.0045 23.243 20.0823C23.0507 20.1562 22.893 20.1687 22.8063 20.1687V16.1687ZM20.8239 17.0275C20.2862 17.6325 20.1688 18.342 20.1688 18.8438H24.1688C24.1688 18.9205 24.1513 19.305 23.8136 19.685L20.8239 17.0275ZM20.1688 18.8438V25.4062H24.1688V18.8438H20.1688ZM20.9539 23.8175C20.5621 24.1171 20.0001 24.4014 19.2071 24.6251L20.2929 28.4749C21.4499 28.1486 22.5004 27.6704 23.3837 26.995L20.9539 23.8175ZM19.2006 24.627C18.4108 24.8526 17.5998 24.9711 16.7628 24.9814L16.8122 28.9811C18.0002 28.9664 19.1642 28.7974 20.2994 28.473L19.2006 24.627ZM50.6055 29.85L51.8549 31.4117L51.8634 31.4049L51.8719 31.3979L50.6055 29.85ZM50.6055 26.8875L49.3561 28.4492L49.392 28.4779L49.4291 28.505L50.6055 26.8875ZM36.9367 26.7375H34.9367V28.7375H36.9367V26.7375ZM33.6367 3.45L35.1233 4.78793L35.1233 4.78793L33.6367 3.45ZM31.468 29.3625C31.468 29.8686 31.5902 30.6182 32.1875 31.2336C32.7955 31.86 33.5568 32 34.0867 32V28C34.2042 28 34.656 28.0337 35.0578 28.4477C35.4488 28.8506 35.468 29.2814 35.468 29.3625H31.468ZM34.0867 32H50.0992V28H34.0867V32ZM50.0992 32C50.6168 32 51.2741 31.8763 51.8549 31.4117L49.3561 28.2883C49.6868 28.0237 50.0067 28 50.0992 28V32ZM51.8719 31.3979C52.566 30.8301 52.8117 30.0445 52.8117 29.3625H48.8117C48.8117 29.2545 48.8293 29.0747 48.9182 28.8645C49.0113 28.6444 49.1582 28.45 49.339 28.3021L51.8719 31.3979ZM52.8117 29.3625V27.3562H48.8117V29.3625H52.8117ZM52.8117 27.3562C52.8117 26.6822 52.5659 25.8402 51.7818 25.27L49.4291 28.505C49.2106 28.346 49.037 28.1294 48.9295 27.8852C48.8284 27.6554 48.8117 27.4614 48.8117 27.3562H52.8117ZM51.8549 25.3258C51.2741 24.8612 50.6168 24.7375 50.0992 24.7375V28.7375C50.0067 28.7375 49.6868 28.7138 49.3561 28.4492L51.8549 25.3258ZM50.0992 24.7375H36.9367V28.7375H50.0992V24.7375ZM38.9367 26.7375V3.95625H34.9367V26.7375H38.9367ZM38.9367 3.95625C38.9367 3.48213 38.8404 2.75316 38.2994 2.12763C37.7104 1.44657 36.9268 1.2625 36.3367 1.2625V5.2625C36.1466 5.2625 35.663 5.19405 35.274 4.74424C34.933 4.34997 34.9367 3.96786 34.9367 3.95625H38.9367ZM36.3367 1.2625H34.0867V5.2625H36.3367V1.2625ZM34.0867 1.2625C33.4048 1.2625 32.6879 1.51457 32.1501 2.11208L35.1233 4.78793C34.9882 4.93803 34.8113 5.06864 34.6028 5.15553C34.3995 5.24024 34.2168 5.2625 34.0867 5.2625V1.2625ZM32.1501 2.11207C31.6268 2.69358 31.468 3.3846 31.468 3.95625H35.468C35.468 4.10291 35.4217 4.45642 35.1233 4.78793L32.1501 2.11207ZM31.468 3.95625V29.3625H35.468V3.95625H31.468ZM56.3781 21.9938L54.5398 22.7816L54.5449 22.7932L56.3781 21.9938ZM59.3406 26.3438L57.9335 27.7651L57.9408 27.7722L59.3406 26.3438ZM63.7094 29.25L62.9215 31.0883L62.9265 31.0904L63.7094 29.25ZM74.4156 29.25L75.2035 31.0883L74.4156 29.25ZM78.7469 26.3438L77.3327 24.9295L78.7469 26.3438ZM81.6531 21.9938L79.8148 21.2059L79.8099 21.2176L81.6531 21.9938ZM81.6531 11.3063L79.8078 12.0774L79.8113 12.0858L79.8148 12.0941L81.6531 11.3063ZM78.7469 6.9375L77.3185 8.33736L77.3255 8.34457L77.3327 8.35171L78.7469 6.9375ZM74.4156 3.99374L73.6161 5.82705L73.6278 5.83204L74.4156 3.99374ZM63.7094 3.99374L64.4972 5.83205L64.5038 5.82919L63.7094 3.99374ZM59.3406 6.9375L60.7477 8.35882L60.7548 8.35172L59.3406 6.9375ZM56.3781 11.3063L54.5427 10.5118L54.5398 10.5184L56.3781 11.3063ZM59.6031 12.6L61.4471 13.3745L61.4498 13.3679L59.6031 12.6ZM61.7781 9.31875L63.1924 10.733L63.2018 10.7234L61.7781 9.31875ZM65.0406 7.10625L65.8307 8.94359L65.0406 7.10625ZM73.0844 7.10625L72.2808 8.93772L72.2876 8.94068L73.0844 7.10625ZM76.3094 9.31875L74.8762 10.7138L74.8856 10.7233L76.3094 9.31875ZM78.4469 12.6L76.5937 13.3523L76.5964 13.3587L78.4469 12.6ZM78.4469 20.6813L80.2974 21.44L78.4469 20.6813ZM76.3094 23.9625L77.7332 25.3671L77.7426 25.3575L76.3094 23.9625ZM73.0844 26.1562L73.8722 27.9946L73.8811 27.9907L73.0844 26.1562ZM65.0406 26.1562L64.2506 27.9936L64.2584 27.9969L64.2662 28.0002L65.0406 26.1562ZM61.7781 23.9625L60.3544 25.3672L60.3639 25.3767L61.7781 23.9625ZM59.6031 20.6813L61.4471 19.9068L59.6031 20.6813ZM53.3094 16.65C53.3094 18.8069 53.7153 20.8577 54.5398 22.7816L58.2164 21.2059C57.616 19.8048 57.3094 18.2931 57.3094 16.65H53.3094ZM54.5449 22.7932C55.368 24.6808 56.4977 26.3436 57.9335 27.7651L60.7477 24.9224C59.6835 23.8689 58.8382 22.6317 58.2114 21.1943L54.5449 22.7932ZM57.9408 27.7722C59.3736 29.1763 61.0392 30.2816 62.9215 31.0883L64.4972 27.4117C63.0546 26.7934 61.8077 25.9612 60.7405 24.9153L57.9408 27.7722ZM62.9265 31.0904C64.8599 31.9128 66.9149 32.3187 69.0719 32.3187V28.3187C67.4289 28.3187 65.9088 28.0122 64.4922 27.4096L62.9265 31.0904ZM69.0719 32.3187C71.2288 32.3187 73.2795 31.9128 75.2035 31.0883L73.6278 27.4117C72.2267 28.0122 70.7149 28.3187 69.0719 28.3187V32.3187ZM75.2035 31.0883C77.0894 30.2801 78.7483 29.1708 80.1611 27.758L77.3327 24.9295C76.2955 25.9667 75.0669 26.795 73.6278 27.4117L75.2035 31.0883ZM80.1611 27.758C81.5872 26.3319 82.6991 24.6633 83.4964 22.7699L79.8099 21.2176C79.2071 22.6492 78.3816 23.8806 77.3327 24.9295L80.1611 27.758ZM83.4914 22.7816C84.316 20.8577 84.7219 18.8069 84.7219 16.65H80.7219C80.7219 18.2931 80.4153 19.8048 79.8148 21.2059L83.4914 22.7816ZM84.7219 16.65C84.7219 14.4931 84.316 12.4423 83.4914 10.5184L79.8148 12.0941C80.4153 13.4952 80.7219 15.0069 80.7219 16.65H84.7219ZM83.4985 10.5351C82.7018 8.62883 81.5897 6.95188 80.1611 5.52328L77.3327 8.35171C78.3791 9.39812 79.2044 10.6337 79.8078 12.0774L83.4985 10.5351ZM80.1753 5.53764C78.7613 4.0948 77.0979 2.96735 75.2035 2.15546L73.6278 5.83204C75.0584 6.44514 76.2824 7.2802 77.3185 8.33736L80.1753 5.53764ZM75.2151 2.16048C73.2885 1.3203 71.2336 0.90625 69.0719 0.90625V4.90625C70.7101 4.90625 72.2178 5.2172 73.6162 5.82701L75.2151 2.16048ZM69.0719 0.90625C66.91 0.90625 64.851 1.3203 62.9149 2.1583L64.5038 5.82919C65.9177 5.2172 67.4337 4.90625 69.0719 4.90625V0.90625ZM62.9215 2.15546C61.0307 2.96581 59.3605 4.08916 57.9264 5.52328L60.7548 8.35172C61.8207 7.28584 63.063 6.44669 64.4972 5.83204L62.9215 2.15546ZM57.9335 5.5162C56.4952 6.94015 55.3652 8.6114 54.5427 10.5118L58.2136 12.1007C58.841 10.6511 59.686 9.40985 60.7477 8.3588L57.9335 5.5162ZM54.5398 10.5184C53.7153 12.4423 53.3094 14.4931 53.3094 16.65H57.3094C57.3094 15.0069 57.616 13.4952 58.2164 12.0941L54.5398 10.5184ZM60.8156 16.65C60.8156 15.4473 61.0321 14.3626 61.4471 13.3745L57.7592 11.8255C57.1242 13.3374 56.8156 14.9528 56.8156 16.65H60.8156ZM61.4498 13.3679C61.879 12.336 62.4607 11.4646 63.1923 10.733L60.3639 7.90453C59.2455 9.02292 58.3773 10.339 57.7564 11.8321L61.4498 13.3679ZM63.2018 10.7234C63.9395 9.97581 64.8098 9.38256 65.8307 8.94359L64.2506 5.26891C62.7714 5.90494 61.4668 6.78669 60.3545 7.91405L63.2018 10.7234ZM65.8307 8.94359C66.8172 8.5194 67.8904 8.3 69.0719 8.3V4.3C67.3783 4.3 65.7641 4.6181 64.2506 5.26891L65.8307 8.94359ZM69.0719 8.3C70.2687 8.3 71.3298 8.52042 72.2808 8.93771L73.888 5.2748C72.389 4.61708 70.775 4.3 69.0719 4.3V8.3ZM72.2876 8.94068C73.294 9.37782 74.1509 9.96859 74.8762 10.7137L77.7426 7.92377C76.6428 6.79391 75.3497 5.90968 73.8811 5.27181L72.2876 8.94068ZM74.8856 10.7233C75.6046 11.4522 76.1752 12.3212 76.5937 13.3523L80.3 11.8477C79.6935 10.3538 78.8392 9.03534 77.7332 7.91418L74.8856 10.7233ZM76.5964 13.3587C77.0031 14.3507 77.2156 15.4409 77.2156 16.65H81.2156C81.2156 14.959 80.9156 13.3493 80.2974 11.8413L76.5964 13.3587ZM77.2156 16.65C77.2156 17.8442 77.004 18.9284 76.5964 19.9225L80.2974 21.44C80.9148 19.9341 81.2156 18.3308 81.2156 16.65H77.2156ZM76.5964 19.9225C76.1777 20.9436 75.6043 21.8195 74.8762 22.5675L77.7426 25.3575C78.8395 24.2305 79.691 22.9189 80.2974 21.44L76.5964 19.9225ZM74.8856 22.5579C74.1596 23.2939 73.2997 23.8822 72.2876 24.3218L73.8811 27.9907C75.3441 27.3553 76.6342 26.4811 77.7332 25.3671L74.8856 22.5579ZM72.2965 24.318C71.3417 24.7272 70.2751 24.9437 69.0719 24.9437V28.9437C70.7687 28.9437 72.3771 28.6353 73.8722 27.9945L72.2965 24.318ZM69.0719 24.9437C67.8841 24.9437 66.8053 24.7282 65.8151 24.3123L64.2662 28.0002C65.7759 28.6343 67.3847 28.9437 69.0719 28.9437V24.9437ZM65.8307 24.3189C64.8042 23.8775 63.9308 23.2868 63.1923 22.5483L60.3639 25.3767C61.4754 26.4882 62.7771 27.36 64.2506 27.9936L65.8307 24.3189ZM63.2018 22.5578C62.4611 21.8071 61.8764 20.9289 61.4471 19.9068L57.7592 21.4557C58.3799 22.9336 59.2452 24.2429 60.3545 25.3672L63.2018 22.5578ZM61.4471 19.9068C61.0312 18.9166 60.8156 17.8378 60.8156 16.65H56.8156C56.8156 18.3372 57.1251 19.9459 57.7592 21.4557L61.4471 19.9068ZM104.631 18.2438L103.865 20.0912L103.892 20.1024L103.919 20.1127L104.631 18.2438ZM106.056 19.125L107.404 17.6471H107.404L106.056 19.125ZM107.088 20.5687L105.268 21.3993L105.272 21.4069L105.275 21.4145L107.088 20.5687ZM106.469 25.2375L104.964 23.9205L104.952 23.934L104.94 23.9478L106.469 25.2375ZM105.156 26.2312L104.279 24.4341L104.27 24.4382L104.262 24.4424L105.156 26.2312ZM94.3187 26.625H92.3187V28.625H94.3187V26.625ZM94.3187 17.925V15.925H92.3187V17.925H94.3187ZM104.988 7.63125L103.65 9.11784L103.656 9.12405L103.663 9.1302L104.988 7.63125ZM104.969 13.4437L103.616 11.9704L104.969 13.4437ZM94.3187 14.4938H92.3187V16.4938H94.3187V14.4938ZM94.3187 6.61875V4.61875H92.3187V6.61875H94.3187ZM106.469 29.4L105.647 27.5766L106.469 29.4ZM108.812 27.7875L110.227 29.2017L110.233 29.1952L110.24 29.1887L108.812 27.7875ZM110.425 25.4062L112.253 26.2185L110.425 25.4062ZM110.744 20.475L108.812 20.9925L108.814 21.0012L110.744 20.475ZM109.938 18.5437L108.21 19.5515L108.215 19.5594L108.219 19.5674L109.938 18.5437ZM108.681 16.9313L107.267 18.3455L107.276 18.3546L107.286 18.3637L108.681 16.9313ZM107.069 15.7875L105.943 14.1345L103.072 16.0901L106.205 17.5911L107.069 15.7875ZM108.963 13.5375L110.794 14.3405L110.798 14.3313L108.963 13.5375ZM109.037 7.59375L107.172 8.31349L107.178 8.3297L107.184 8.34578L109.037 7.59375ZM107.613 5.325L106.143 6.68156L106.156 6.69624L106.17 6.71065L107.613 5.325ZM105.456 3.80625L104.639 5.63161L104.65 5.63673L104.662 5.64169L105.456 3.80625ZM103.094 19.925C103.322 19.925 103.575 19.971 103.865 20.0912L105.397 16.3963C104.662 16.0915 103.89 15.925 103.094 15.925V19.925ZM103.919 20.1127C104.204 20.2213 104.465 20.3804 104.709 20.6029L107.404 17.6471C106.798 17.0946 106.108 16.6662 105.343 16.3748L103.919 20.1127ZM104.709 20.6029C104.915 20.7914 105.106 21.0453 105.268 21.3993L108.907 19.7382C108.544 18.9422 108.047 18.2336 107.404 17.6471L104.709 20.6029ZM105.275 21.4145C105.397 21.6757 105.481 22.0179 105.481 22.4812H109.481C109.481 21.5196 109.303 20.5868 108.9 19.723L105.275 21.4145ZM105.481 22.4812C105.481 22.7063 105.442 22.9678 105.34 23.2738L109.135 24.5387C109.358 23.8697 109.481 23.1812 109.481 22.4812H105.481ZM105.34 23.2738C105.265 23.5006 105.145 23.7134 104.964 23.9205L107.974 26.5545C108.493 25.9616 108.885 25.2869 109.135 24.5387L105.34 23.2738ZM104.94 23.9478C104.806 24.1069 104.602 24.2763 104.279 24.4341L106.034 28.0284C106.786 27.6612 107.457 27.1681 107.997 26.5272L104.94 23.9478ZM104.262 24.4424C104.081 24.5329 103.767 24.625 103.244 24.625V28.625C104.221 28.625 105.182 28.4546 106.051 28.0201L104.262 24.4424ZM103.244 24.625H94.3187V28.625H103.244V24.625ZM96.3187 26.625V17.925H92.3187V26.625H96.3187ZM94.3187 19.925H103.094V15.925H94.3187V19.925ZM101.931 8.61875C102.865 8.61875 103.36 8.8568 103.65 9.11784L106.325 6.14466C105.115 5.0557 103.572 4.61875 101.931 4.61875V8.61875ZM103.663 9.1302C103.88 9.32179 104.113 9.66944 104.113 10.5H108.113C108.113 8.83056 107.595 7.2657 106.312 6.1323L103.663 9.1302ZM104.113 10.5C104.113 11.3352 103.877 11.7306 103.616 11.9704L106.321 14.9171C107.585 13.7569 108.113 12.1898 108.113 10.5H104.113ZM103.616 11.9704C103.307 12.2543 102.808 12.4938 101.894 12.4938V16.4938C103.555 16.4938 105.106 16.0332 106.321 14.9171L103.616 11.9704ZM101.894 12.4938H94.3187V16.4938H101.894V12.4938ZM96.3187 14.4938V6.61875H92.3187V14.4938H96.3187ZM94.3187 8.61875H101.931V4.61875H94.3187V8.61875ZM88.8313 29.3625C88.8313 29.8686 88.9535 30.6182 89.5508 31.2336C90.1588 31.86 90.92 32 91.45 32V28C91.5675 28 92.0193 28.0337 92.4211 28.4477C92.8121 28.8506 92.8313 29.2814 92.8313 29.3625H88.8313ZM91.45 32H103.675V28H91.45V32ZM103.675 32C104.933 32 106.144 31.74 107.291 31.2234L105.647 27.5766C105.018 27.86 104.367 28 103.675 28V32ZM107.291 31.2234C108.394 30.7259 109.377 30.0512 110.227 29.2017L107.398 26.3733C106.898 26.8738 106.318 27.2741 105.647 27.5766L107.291 31.2234ZM110.24 29.1887C111.086 28.3266 111.758 27.3323 112.253 26.2185L108.597 24.594C108.292 25.2802 107.889 25.8734 107.385 26.3863L110.24 29.1887ZM112.253 26.2185C112.767 25.0621 113.025 23.8416 113.025 22.575H109.025C109.025 23.2834 108.883 23.9504 108.597 24.594L112.253 26.2185ZM113.025 22.575C113.025 21.6847 112.908 20.8077 112.673 19.9488L108.814 21.0012C108.955 21.5173 109.025 22.0403 109.025 22.575H113.025ZM112.676 19.9575C112.443 19.0904 112.105 18.2749 111.656 17.5201L108.219 19.5674C108.47 19.9876 108.669 20.4596 108.812 20.9925L112.676 19.9575ZM111.665 17.536C111.226 16.7833 110.696 16.1023 110.077 15.4988L107.286 18.3637C107.641 18.7102 107.949 19.1042 108.21 19.5515L111.665 17.536ZM110.095 15.517C109.462 14.8836 108.739 14.3701 107.933 13.9839L106.205 17.5911C106.598 17.7799 106.95 18.0289 107.267 18.3455L110.095 15.517ZM108.195 17.4405C109.352 16.652 110.236 15.6137 110.794 14.3405L107.131 12.7345C106.889 13.2863 106.51 13.748 105.943 14.1345L108.195 17.4405ZM110.798 14.3313C111.322 13.1201 111.562 11.8002 111.562 10.4062H107.562C107.562 11.3373 107.403 12.1049 107.127 12.7437L110.798 14.3313ZM111.562 10.4062C111.562 9.15871 111.346 7.96331 110.891 6.84171L107.184 8.34578C107.429 8.94919 107.562 9.62878 107.562 10.4062H111.562ZM110.904 6.874C110.476 5.76639 109.862 4.77994 109.055 3.93935L106.17 6.71065C106.588 7.14506 106.924 7.67111 107.172 8.31349L110.904 6.874ZM109.082 3.96844C108.287 3.10693 107.336 2.44051 106.251 1.9708L104.662 5.64169C105.252 5.89699 105.738 6.24307 106.143 6.68156L109.082 3.96844ZM106.274 1.98088C105.16 1.48219 103.966 1.24375 102.719 1.24375V5.24375C103.446 5.24375 104.078 5.38031 104.639 5.63161L106.274 1.98088ZM102.719 1.24375H91.45V5.24375H102.719V1.24375ZM91.45 1.24375C90.9355 1.24375 90.1822 1.37374 89.5717 1.98422C88.9612 2.5947 88.8313 3.34796 88.8313 3.8625H92.8313C92.8313 3.96454 92.8044 4.40842 92.4001 4.81265C91.9959 5.21688 91.552 5.24375 91.45 5.24375V1.24375ZM88.8313 3.8625V29.3625H92.8313V3.8625H88.8313ZM133.661 20.8875V22.8875H136.605L135.52 20.1506L133.661 20.8875ZM123.798 20.8875L121.945 20.136L120.829 22.8875H123.798V20.8875ZM128.786 8.5875L130.645 7.85059L128.807 3.21288L126.933 7.83596L128.786 8.5875ZM116.636 29.2312L114.789 28.465L114.784 28.4767L114.779 28.4885L116.636 29.2312ZM116.636 29.8125L115.018 30.9888L115.08 31.073L115.149 31.1504L116.636 29.8125ZM120.123 29.8875L119.094 28.1725L119.054 28.197L119.014 28.2234L120.123 29.8875ZM120.442 29.4563L122.292 30.2178L122.297 30.2049L122.302 30.192L120.442 29.4563ZM122.467 24.3375V22.3375H121.108L120.607 23.6018L122.467 24.3375ZM135.03 24.3375L136.887 23.5959L136.385 22.3375H135.03V24.3375ZM137.073 29.4563L138.959 28.7906L138.946 28.7523L138.931 28.7146L137.073 29.4563ZM137.355 29.8875L136.245 31.5516L136.285 31.578L136.326 31.6025L137.355 29.8875ZM140.655 29.8125L142.141 31.1504L142.173 31.1154L142.203 31.079L140.655 29.8125ZM140.673 29.2312L142.53 28.4885L142.526 28.4767L140.673 29.2312ZM130.323 3.825L132.176 3.07044L132.173 3.0635L130.323 3.825ZM129.986 3.39375L128.839 5.03221L128.93 5.09615L129.028 5.14954L129.986 3.39375ZM127.492 3.39375L128.521 5.10873L128.544 5.0952L128.566 5.08107L127.492 3.39375ZM127.173 3.825L129.021 4.59123L129.023 4.5865L127.173 3.825ZM133.661 18.8875H123.798V22.8875H133.661V18.8875ZM125.652 21.639L130.639 9.33904L126.933 7.83596L121.945 20.136L125.652 21.639ZM126.927 9.32441L131.802 21.6244L135.52 20.1506L130.645 7.85059L126.927 9.32441ZM114.779 28.4885C114.58 28.9872 114.317 30.0246 115.018 30.9888L118.253 28.6362C118.486 28.9558 118.561 29.2997 118.561 29.5641C118.561 29.7999 118.503 29.9484 118.493 29.974L114.779 28.4885ZM115.149 31.1504C115.736 31.8027 116.504 32 117.123 32V28C117.21 28 117.368 28.0125 117.56 28.0864C117.762 28.1643 117.96 28.2943 118.123 28.4746L115.149 31.1504ZM117.123 32H119.748V28H117.123V32ZM119.748 32C120.274 32 120.786 31.8495 121.233 31.5516L119.014 28.2234C119.236 28.0755 119.498 28 119.748 28V32ZM121.152 31.6025C121.804 31.2113 122.128 30.6146 122.292 30.2178L118.593 28.6947C118.595 28.69 118.621 28.6261 118.689 28.5347C118.758 28.4413 118.886 28.2975 119.094 28.1725L121.152 31.6025ZM122.302 30.192L124.327 25.0732L120.607 23.6018L118.582 28.7205L122.302 30.192ZM122.467 26.3375H135.03V22.3375H122.467V26.3375ZM133.172 25.0791L135.216 30.1979L138.931 28.7146L136.887 23.5959L133.172 25.0791ZM135.187 30.1219C135.319 30.4949 135.603 31.1232 136.245 31.5516L138.464 28.2234C138.685 28.3707 138.812 28.5347 138.875 28.6309C138.938 28.7264 138.959 28.7905 138.959 28.7906L135.187 30.1219ZM136.326 31.6025C136.742 31.8523 137.226 32 137.748 32V28C137.995 28 138.217 28.0727 138.384 28.1725L136.326 31.6025ZM137.748 32H140.186V28H137.748V32ZM140.186 32C140.836 32 141.578 31.7767 142.141 31.1504L139.168 28.4746C139.317 28.3092 139.504 28.1786 139.71 28.0962C139.908 28.0169 140.078 28 140.186 28V32ZM142.203 31.079C142.988 30.1195 142.749 29.0341 142.53 28.4885L138.816 29.974C138.801 29.9358 138.736 29.7639 138.745 29.4996C138.754 29.1996 138.859 28.849 139.107 28.546L142.203 31.079ZM142.526 28.4767L132.176 3.07045L128.471 4.57955L138.821 29.9858L142.526 28.4767ZM132.173 3.0635C131.99 2.61884 131.634 2.01453 130.944 1.63796L129.028 5.14954C128.613 4.92297 128.482 4.60616 128.474 4.5865L132.173 3.0635ZM131.133 1.75529C130.71 1.45943 130.185 1.2625 129.592 1.2625V5.2625C129.275 5.2625 129.012 5.15307 128.839 5.03221L131.133 1.75529ZM129.592 1.2625H127.905V5.2625H129.592V1.2625ZM127.905 1.2625C127.321 1.2625 126.817 1.45309 126.418 1.70643L128.566 5.08107C128.443 5.15941 128.213 5.2625 127.905 5.2625V1.2625ZM126.463 1.67876C125.811 2.06999 125.487 2.66666 125.324 3.0635L129.023 4.5865C129.021 4.59127 128.995 4.65519 128.927 4.7466C128.858 4.83998 128.729 4.98378 128.521 5.10873L126.463 1.67876ZM125.326 3.05877L114.789 28.465L118.483 29.9975L129.021 4.59122L125.326 3.05877ZM164.84 29.85L166.089 31.4117L166.098 31.4049L166.106 31.3979L164.84 29.85ZM164.84 26.8875L163.59 28.4492L163.626 28.4779L163.663 28.505L164.84 26.8875ZM151.171 26.7375H149.171V28.7375H151.171V26.7375ZM147.871 3.45L149.358 4.78793V4.78793L147.871 3.45ZM145.702 29.3625C145.702 29.8686 145.825 30.6182 146.422 31.2336C147.03 31.86 147.791 32 148.321 32V28C148.439 28 148.89 28.0337 149.292 28.4477C149.683 28.8506 149.702 29.2814 149.702 29.3625H145.702ZM148.321 32H164.334V28H148.321V32ZM164.334 32C164.851 32 165.508 31.8763 166.089 31.4117L163.59 28.2883C163.921 28.0237 164.241 28 164.334 28V32ZM166.106 31.3979C166.8 30.8301 167.046 30.0445 167.046 29.3625H163.046C163.046 29.2545 163.064 29.0747 163.153 28.8645C163.246 28.6444 163.393 28.45 163.573 28.3021L166.106 31.3979ZM167.046 29.3625V27.3562H163.046V29.3625H167.046ZM167.046 27.3562C167.046 26.6822 166.8 25.8402 166.016 25.27L163.663 28.505C163.445 28.346 163.271 28.1294 163.164 27.8852C163.063 27.6554 163.046 27.4614 163.046 27.3562H167.046ZM166.089 25.3258C165.508 24.8612 164.851 24.7375 164.334 24.7375V28.7375C164.241 28.7375 163.921 28.7138 163.59 28.4492L166.089 25.3258ZM164.334 24.7375H151.171V28.7375H164.334V24.7375ZM153.171 26.7375V3.95625H149.171V26.7375H153.171ZM153.171 3.95625C153.171 3.48213 153.075 2.75316 152.534 2.12763C151.945 1.44657 151.161 1.2625 150.571 1.2625V5.2625C150.381 5.2625 149.897 5.19405 149.508 4.74424C149.167 4.34997 149.171 3.96786 149.171 3.95625H153.171ZM150.571 1.2625H148.321V5.2625H150.571V1.2625ZM148.321 1.2625C147.639 1.2625 146.922 1.51457 146.385 2.11208L149.358 4.78793C149.223 4.93803 149.046 5.06864 148.837 5.15553C148.634 5.24024 148.451 5.2625 148.321 5.2625V1.2625ZM146.385 2.11207C145.861 2.69358 145.702 3.3846 145.702 3.95625H149.702C149.702 4.10291 149.656 4.45642 149.358 4.78793L146.385 2.11207ZM145.702 3.95625V29.3625H149.702V3.95625H145.702ZM185.134 25.8562L183.616 27.1578L183.622 27.1656L183.629 27.1733L185.134 25.8562ZM187.178 27.75L185.978 29.35L185.993 29.3612L186.008 29.3721L187.178 27.75ZM189.541 29.1562L188.68 30.9615L188.69 30.9665L189.541 29.1562ZM192.053 30.0375L192.532 28.0956L192.521 28.0931L192.511 28.0907L192.053 30.0375ZM198.597 29.8313L198.058 27.9053L198.597 29.8313ZM201.859 28.275L200.677 26.6622L200.666 26.6698L201.859 28.275ZM204.072 25.725L202.305 24.7872L204.072 25.725ZM203.997 19.0687L202.34 20.1894L202.346 20.1977L202.352 20.2059L203.997 19.0687ZM201.747 16.9125L200.664 18.5941L200.675 18.6008L201.747 16.9125ZM198.653 15.45L198.008 17.3432L198.014 17.3453L198.653 15.45ZM195.259 14.3625L195.834 12.4468L195.825 12.4443L195.259 14.3625ZM193.028 13.6687L192.396 15.5661L192.406 15.5694L193.028 13.6687ZM191.116 12.825L190.098 14.5469L190.107 14.5518L190.115 14.5567L191.116 12.825ZM189.784 11.6625L188.169 12.8414L188.177 12.852L188.184 12.8625L189.784 11.6625ZM189.803 8.15625L188.198 6.96283L188.193 6.96985L189.803 8.15625ZM191.153 7.0125L192.064 8.79299L192.072 8.78901L192.08 8.78495L191.153 7.0125ZM192.953 6.4125L193.294 8.3832L193.313 8.38003L193.331 8.37651L192.953 6.4125ZM196.609 6.4875L196.027 8.40085L196.052 8.40829L196.076 8.41512L196.609 6.4875ZM198.259 7.125L197.348 8.90508L197.356 8.90951L197.365 8.91386L198.259 7.125ZM199.722 8.00625L200.893 6.38489L199.722 8.00625ZM200.941 8.9625L202.286 7.48262L202.266 7.46489L202.247 7.44768L200.941 8.9625ZM201.334 9.28125L200.187 10.9197L200.245 10.96L200.305 10.9962L201.334 9.28125ZM202.141 9.225L203.341 10.825L203.449 10.7439L203.545 10.6489L202.141 9.225ZM203.509 7.875L204.914 9.29893L204.943 9.26988L204.971 9.23964L203.509 7.875ZM203.491 6.76875L202.015 8.11877L202.02 8.12423L202.025 8.12965L203.491 6.76875ZM201.691 5.19375L200.525 6.81914L200.535 6.82647L200.546 6.83366L201.691 5.19375ZM199.572 3.99374L198.74 5.81236L198.758 5.8208L198.777 5.82886L199.572 3.99374ZM197.247 3.225L196.79 5.17223L196.808 5.17635L196.826 5.18016L197.247 3.225ZM190.928 3.4875L190.321 1.58191L190.315 1.58389L190.928 3.4875ZM188.059 4.9875L186.801 3.43301L186.795 3.43794L186.789 3.44292L188.059 4.9875ZM186.278 7.2375L184.474 6.37457L184.468 6.3859L186.278 7.2375ZM186.166 12.6188L184.331 13.414L184.339 13.4326L184.347 13.451L186.166 12.6188ZM187.684 14.5875L186.387 16.11L186.394 16.1159L186.401 16.1217L187.684 14.5875ZM190.291 16.1437L189.484 17.9741L189.497 17.9798L189.511 17.9854L190.291 16.1437ZM194.078 17.4375L193.535 19.3624L193.551 19.3668L193.566 19.3709L194.078 17.4375ZM195.484 17.8312L194.923 19.7507L194.95 19.7588L194.978 19.766L195.484 17.8312ZM197.078 18.3187L196.419 20.2072L196.439 20.214L196.459 20.2205L197.078 18.3187ZM200.022 19.7812L198.761 21.3335L198.776 21.3455L198.791 21.3573L200.022 19.7812ZM200.978 20.8688L199.245 21.8667L199.263 21.898L199.282 21.9287L200.978 20.8688ZM200.734 24.4313L199.086 23.2982V23.2982L200.734 24.4313ZM199.159 25.9125L200.188 27.6275L200.198 27.6215L199.159 25.9125ZM197.097 26.7375L196.642 24.7898L196.635 24.7915L197.097 26.7375ZM192.822 26.7188L192.272 28.6418L192.288 28.6464L192.304 28.6506L192.822 26.7188ZM190.834 25.95L189.912 27.7244L189.926 27.7318L189.94 27.7389L190.834 25.95ZM189.091 24.8438L187.85 26.4126L187.862 26.4216L187.873 26.4304L189.091 24.8438ZM187.666 23.5125L189.158 22.1813L189.12 22.1387L189.08 22.0983L187.666 23.5125ZM186.597 23.2875L187.92 24.7872L187.926 24.7823L186.597 23.2875ZM185.003 24.6937L183.68 23.1941L183.633 23.2354L183.589 23.2795L185.003 24.6937ZM184.797 25.3125L182.924 26.0147L182.932 26.0351L182.94 26.0553L184.797 25.3125ZM183.629 27.1733C184.334 27.9788 185.118 28.7047 185.978 29.35L188.378 26.15C187.739 25.6703 187.16 25.1337 186.64 24.5392L183.629 27.1733ZM186.008 29.3721C186.864 29.9892 187.754 30.5201 188.68 30.9615L190.402 27.351C189.702 27.0174 189.018 26.6108 188.348 26.1279L186.008 29.3721ZM188.69 30.9665C189.635 31.4104 190.604 31.7512 191.595 31.9843L192.511 28.0907C191.802 27.9238 191.096 27.6771 190.391 27.346L188.69 30.9665ZM191.575 31.9794C192.582 32.2276 193.586 32.3562 194.584 32.3562V28.3562C193.932 28.3562 193.249 28.2724 192.532 28.0956L191.575 31.9794ZM194.584 32.3562C196.174 32.3562 197.694 32.1609 199.136 31.7572L198.058 27.9053C196.999 28.2016 195.845 28.3562 194.584 28.3562V32.3562ZM199.136 31.7572C200.592 31.3495 201.908 30.731 203.052 29.8802L200.666 26.6698C199.961 27.194 199.101 27.613 198.058 27.9053L199.136 31.7572ZM203.042 29.8878C204.219 29.0248 205.158 27.9453 205.838 26.6628L202.305 24.7872C201.911 25.5297 201.375 26.1502 200.677 26.6622L203.042 29.8878ZM205.838 26.6628C206.55 25.322 206.878 23.8292 206.878 22.2375H202.878C202.878 23.2708 202.669 24.103 202.305 24.7872L205.838 26.6628ZM206.878 22.2375C206.878 20.66 206.508 19.1838 205.642 17.9316L202.352 20.2059C202.661 20.6537 202.878 21.29 202.878 22.2375H206.878ZM205.653 17.9481C204.914 16.8557 203.96 15.9487 202.819 15.2242L200.675 18.6008C201.384 19.0513 201.929 19.5818 202.34 20.1894L205.653 17.9481ZM202.83 15.2309C201.763 14.5443 200.58 13.9887 199.292 13.5547L198.014 17.3453C199.026 17.6862 199.906 18.1057 200.664 18.5941L202.83 15.2309ZM199.298 13.5568C198.138 13.1616 196.983 12.7916 195.834 12.4468L194.685 16.2782C195.786 16.6084 196.893 16.9634 198.008 17.3432L199.298 13.5568ZM195.825 12.4443C195.081 12.2246 194.356 11.9992 193.651 11.7681L192.406 15.5694C193.15 15.8133 193.913 16.0504 194.693 16.2807L195.825 12.4443ZM193.661 11.7714C193.057 11.5701 192.545 11.3413 192.116 11.0933L190.115 14.5567C190.811 14.9587 191.575 15.2924 192.396 15.5661L193.661 11.7714ZM192.133 11.1031C191.779 10.894 191.544 10.6752 191.384 10.4625L188.184 12.8625C188.7 13.5498 189.352 14.106 190.098 14.5469L192.133 11.1031ZM191.4 10.4836C191.35 10.4152 191.278 10.2827 191.278 9.975H187.278C187.278 10.9923 187.544 11.9848 188.169 12.8414L191.4 10.4836ZM191.278 9.975C191.278 9.55634 191.374 9.39606 191.413 9.34264L188.193 6.96985C187.532 7.86643 187.278 8.91866 187.278 9.975H191.278ZM191.408 9.34966C191.589 9.10693 191.802 8.92726 192.064 8.79299L190.242 5.232C189.43 5.64774 188.743 6.23056 188.198 6.96284L191.408 9.34966ZM192.08 8.78495C192.435 8.59934 192.836 8.46258 193.294 8.3832L192.612 4.4418C191.771 4.58742 190.972 4.85065 190.227 5.24005L192.08 8.78495ZM193.331 8.37651C193.875 8.27194 194.36 8.225 194.791 8.225V4.225C194.072 4.225 193.332 4.30305 192.575 4.44849L193.331 8.37651ZM194.791 8.225C195.243 8.225 195.652 8.28668 196.027 8.40085L197.192 4.57415C196.417 4.33831 195.613 4.225 194.791 4.225V8.225ZM196.076 8.41512C196.54 8.54353 196.963 8.70799 197.348 8.90508L199.171 5.34491C198.531 5.01701 197.853 4.75647 197.143 4.55988L196.076 8.41512ZM197.365 8.91386C197.799 9.13082 198.193 9.36931 198.551 9.62761L200.893 6.38489C200.351 5.99319 199.77 5.64417 199.154 5.33614L197.365 8.91386ZM198.551 9.62761C198.962 9.9242 199.322 10.2076 199.635 10.4773L202.247 7.44768C201.834 7.09241 201.382 6.7383 200.893 6.38489L198.551 9.62761ZM199.595 10.4424C199.783 10.6126 199.98 10.7745 200.187 10.9197L202.481 7.64278C202.439 7.61299 202.374 7.56239 202.286 7.48262L199.595 10.4424ZM200.305 10.9962C200.722 11.246 201.206 11.3937 201.728 11.3937V7.39375C201.975 7.39375 202.197 7.46645 202.363 7.56627L200.305 10.9962ZM201.728 11.3937C202.454 11.3937 203.009 11.0737 203.341 10.825L200.941 7.625C200.972 7.60125 201.252 7.39375 201.728 7.39375V11.3937ZM203.545 10.6489L204.914 9.29893L202.105 6.45107L200.736 7.80106L203.545 10.6489ZM204.971 9.23964C205.381 8.80064 205.81 8.09689 205.749 7.17947L201.758 7.44553C201.721 6.9031 201.988 6.57436 202.047 6.51036L204.971 9.23964ZM205.749 7.17947C205.698 6.42175 205.345 5.82632 204.956 5.40784L202.025 8.12965C201.961 8.06118 201.783 7.82825 201.758 7.44553L205.749 7.17947ZM204.966 5.41872C204.328 4.72114 203.617 4.09927 202.835 3.55383L200.546 6.83366C201.089 7.21323 201.578 7.64137 202.015 8.11877L204.966 5.41872ZM202.856 3.56836C202.078 3.01026 201.247 2.54003 200.367 2.15864L198.777 5.82886C199.397 6.09747 199.979 6.42723 200.525 6.81914L202.856 3.56836ZM200.404 2.17513C199.532 1.77589 198.619 1.47457 197.668 1.26984L196.826 5.18016C197.5 5.32542 198.137 5.53661 198.74 5.81236L200.404 2.17513ZM197.703 1.27776C196.753 1.05506 195.787 0.943748 194.809 0.943748V4.94375C195.481 4.94375 196.141 5.01994 196.79 5.17223L197.703 1.27776ZM194.809 0.943748C193.196 0.943748 191.692 1.1451 190.321 1.58192L191.535 5.39307C192.44 5.10489 193.523 4.94375 194.809 4.94375V0.943748ZM190.315 1.58389C188.993 2.00961 187.809 2.61684 186.801 3.43301L189.318 6.54199C189.885 6.08316 190.613 5.69038 191.542 5.39111L190.315 1.58389ZM186.789 3.44292C185.8 4.25652 185.019 5.23556 184.474 6.37459L188.082 8.10041C188.363 7.51444 188.769 6.99348 189.33 6.53208L186.789 3.44292ZM184.468 6.3859C183.935 7.51929 183.678 8.73746 183.678 10.0125H187.678C187.678 9.28754 187.821 8.65571 188.088 8.0891L184.468 6.3859ZM183.678 10.0125C183.678 11.2178 183.877 12.3664 184.331 13.414L188.001 11.8235C187.805 11.3711 187.678 10.7822 187.678 10.0125H183.678ZM184.347 13.451C184.817 14.4779 185.511 15.3636 186.387 16.11L188.981 13.065C188.508 12.6614 188.189 12.2346 187.984 11.7865L184.347 13.451ZM186.401 16.1217C187.267 16.8455 188.308 17.4558 189.484 17.9741L191.097 14.3134C190.173 13.9067 189.477 13.4795 188.967 13.0533L186.401 16.1217ZM189.511 17.9854C190.67 18.4764 192.016 18.9338 193.535 19.3624L194.621 15.5126C193.216 15.1162 192.036 14.7111 191.071 14.3021L189.511 17.9854ZM193.566 19.3709C193.972 19.4782 194.423 19.6046 194.923 19.7507L196.046 15.9118C195.52 15.7579 195.035 15.6218 194.59 15.5041L193.566 19.3709ZM194.978 19.766C195.449 19.8894 195.93 20.0363 196.419 20.2072L197.737 16.4304C197.152 16.2262 196.57 16.0481 195.991 15.8965L194.978 19.766ZM196.459 20.2205C196.921 20.3709 197.372 20.5481 197.812 20.7521L199.494 17.1229C198.909 16.8519 198.31 16.6166 197.697 16.417L196.459 20.2205ZM197.812 20.7521C198.189 20.9265 198.501 21.1225 198.761 21.3335L201.283 18.229C200.743 17.79 200.143 17.4235 199.494 17.1229L197.812 20.7521ZM198.791 21.3573C199.001 21.5219 199.144 21.6919 199.245 21.8667L202.711 19.8708C202.337 19.2206 201.843 18.6656 201.253 18.2052L198.791 21.3573ZM199.282 21.9287C199.312 21.9758 199.353 22.0624 199.353 22.2562H203.353C203.353 21.4001 203.145 20.5617 202.674 19.8088L199.282 21.9287ZM199.353 22.2562C199.353 22.7712 199.233 23.0846 199.086 23.2982L202.382 25.5643C203.061 24.5779 203.353 23.4413 203.353 22.2562H199.353ZM199.086 23.2982C198.838 23.6595 198.523 23.959 198.121 24.2035L200.198 27.6215C201.071 27.091 201.806 26.403 202.382 25.5643L199.086 23.2982ZM198.13 24.1975C197.693 24.4596 197.201 24.6594 196.642 24.7898L197.551 28.6852C198.492 28.4656 199.375 28.1154 200.188 27.6275L198.13 24.1975ZM196.635 24.7915C196.028 24.9357 195.483 25 194.997 25V29C195.835 29 196.691 28.8893 197.559 28.6835L196.635 24.7915ZM194.997 25C194.415 25 193.865 24.9276 193.339 24.7869L192.304 28.6506C193.179 28.8849 194.078 29 194.997 29V25ZM193.371 24.7957C192.785 24.6283 192.239 24.4161 191.729 24.1611L189.94 27.7389C190.68 28.1089 191.458 28.4092 192.272 28.6418L193.371 24.7957ZM191.757 24.1756C191.232 23.9023 190.75 23.5958 190.308 23.2571L187.873 26.4304C188.507 26.9167 189.187 27.3477 189.912 27.7244L191.757 24.1756ZM190.331 23.2749C189.875 22.9143 189.486 22.5489 189.158 22.1813L186.173 24.8437C186.67 25.4011 187.231 25.9232 187.85 26.4126L190.331 23.2749ZM189.08 22.0983C188.72 21.7384 188.005 21.1375 186.991 21.1375V25.1375C186.667 25.1375 186.44 25.0359 186.338 24.9796C186.24 24.9253 186.213 24.8878 186.251 24.9267L189.08 22.0983ZM186.991 21.1375C186.349 21.1375 185.745 21.3685 185.268 21.7927L187.926 24.7823C187.814 24.8818 187.668 24.9767 187.492 25.044C187.315 25.1113 187.142 25.1375 186.991 25.1375V21.1375ZM185.274 21.7878L183.68 23.1941L186.326 26.1934L187.92 24.7872L185.274 21.7878ZM183.589 23.2795C183.085 23.7834 182.463 24.7861 182.924 26.0147L186.67 24.6103C186.796 24.9474 186.797 25.3172 186.69 25.6403C186.596 25.9222 186.451 26.0739 186.417 26.108L183.589 23.2795ZM182.94 26.0553C183.107 26.4729 183.343 26.8395 183.616 27.1578L186.653 24.5547C186.639 24.5386 186.635 24.5316 186.637 24.5343C186.639 24.5373 186.646 24.5492 186.654 24.5697L182.94 26.0553ZM215.545 3.43124L213.83 4.46024L213.866 4.52055L213.906 4.57816L215.545 3.43124ZM212.338 3.43124L210.852 2.09332L210.813 2.1365L210.777 2.18186L212.338 3.43124ZM213.088 24.075L211.255 24.8749L211.258 24.881L213.088 24.075ZM215.526 27.5437L214.166 29.0106L214.176 29.0196L215.526 27.5437ZM219.088 29.7L218.394 31.5755L218.404 31.5794L218.415 31.5831L219.088 29.7ZM227.638 29.7L226.942 27.8251L227.638 29.7ZM231.07 27.5813L232.446 29.0322L232.456 29.0229L231.07 27.5813ZM233.376 24.15L235.222 24.9192L235.224 24.9132L233.376 24.15ZM234.051 3.45L232.503 4.71647V4.71648L234.051 3.45ZM230.882 3.45L229.334 2.18352L229.327 2.19202L229.32 2.20061L230.882 3.45ZM230.17 22.3875L228.306 21.6614L228.301 21.6745L230.17 22.3875ZM228.651 24.8625L230.104 26.2365L230.11 26.23L230.116 26.2234L228.651 24.8625ZM226.326 26.475L227.117 28.312L226.326 26.475ZM220.42 26.4938L219.668 28.3473L219.677 28.3507L220.42 26.4938ZM217.963 24.9L216.562 26.3269L216.568 26.3331L216.575 26.3392L217.963 24.9ZM216.295 22.4437L214.456 23.2316L214.46 23.2403L216.295 22.4437ZM217.676 3.9C217.676 3.39725 217.555 2.81579 217.183 2.28433L213.906 4.57816C213.709 4.29671 213.676 4.02776 213.676 3.9H217.676ZM217.26 2.40225C216.637 1.36404 215.555 1.24375 215.076 1.24375V5.24375C215.037 5.24375 214.862 5.24111 214.628 5.14758C214.366 5.04263 214.051 4.82872 213.83 4.46024L217.26 2.40225ZM215.076 1.24375H212.788V5.24375H215.076V1.24375ZM212.788 1.24375C212.106 1.24375 211.389 1.49581 210.852 2.09332L213.825 4.76918C213.69 4.91928 213.513 5.0499 213.304 5.13678C213.101 5.2215 212.918 5.24375 212.788 5.24375V1.24375ZM210.777 2.18186C210.346 2.72012 210.188 3.33961 210.188 3.9H214.188C214.188 4.08538 214.131 4.39237 213.9 4.68063L210.777 2.18186ZM210.188 3.9V19.3875H214.188V3.9H210.188ZM210.188 19.3875C210.188 21.3674 210.528 23.2091 211.255 24.8749L214.921 23.2751C214.448 22.1909 214.188 20.9076 214.188 19.3875H210.188ZM211.258 24.881C211.961 26.4771 212.928 27.8629 214.166 29.0106L216.885 26.0769C216.074 25.3246 215.416 24.3979 214.919 23.269L211.258 24.881ZM214.176 29.0196C215.398 30.1377 216.81 30.9891 218.394 31.5755L219.783 27.8245C218.666 27.4109 217.703 26.8248 216.876 26.0679L214.176 29.0196ZM218.415 31.5831C220.003 32.1514 221.669 32.4313 223.401 32.4313V28.4313C222.107 28.4313 220.899 28.2236 219.762 27.8169L218.415 31.5831ZM223.401 32.4313C225.132 32.4313 226.782 32.1515 228.335 31.5749L226.942 27.8251C225.87 28.2235 224.695 28.4313 223.401 28.4313V32.4313ZM228.335 31.5749C229.889 30.9974 231.267 30.1507 232.446 29.0322L229.693 26.1303C228.922 26.8618 228.012 27.4276 226.942 27.8251L228.335 31.5749ZM232.456 29.0229C233.644 27.8802 234.563 26.5017 235.222 24.9192L231.53 23.3808C231.064 24.4983 230.445 25.4073 229.683 26.1396L232.456 29.0229ZM235.224 24.9132C235.904 23.2678 236.22 21.445 236.22 19.4812H232.22C232.22 21.0175 231.973 22.3072 231.527 23.3868L235.224 24.9132ZM236.22 19.4812V3.91875H232.22V19.4812H236.22ZM236.22 3.91875C236.22 3.27448 235.999 2.67243 235.599 2.18353L232.503 4.71648C232.425 4.62161 232.35 4.49802 232.296 4.34775C232.241 4.19709 232.22 4.04966 232.22 3.91875H236.22ZM235.599 2.18353C235.031 1.4895 234.245 1.24375 233.563 1.24375V5.24375C233.455 5.24375 233.275 5.2262 233.065 5.13725C232.845 5.04415 232.651 4.89731 232.503 4.71647L235.599 2.18353ZM233.563 1.24375H231.37V5.24375H233.563V1.24375ZM231.37 1.24375C230.688 1.24375 229.902 1.4895 229.334 2.18352L232.43 4.71648C232.282 4.89731 232.088 5.04416 231.868 5.13725C231.657 5.22619 231.477 5.24375 231.37 5.24375V1.24375ZM229.32 2.20061C228.89 2.73888 228.732 3.35837 228.732 3.91875H232.732C232.732 4.10413 232.674 4.41113 232.444 4.69939L229.32 2.20061ZM228.732 3.91875V19.2375H232.732V3.91875H228.732ZM228.732 19.2375C228.732 20.1518 228.582 20.9527 228.306 21.6614L232.033 23.1136C232.507 21.8973 232.732 20.5982 232.732 19.2375H228.732ZM228.301 21.6745C228.024 22.4003 227.649 23.0016 227.185 23.5016L230.116 26.2234C230.952 25.3234 231.59 24.2747 232.038 23.1005L228.301 21.6745ZM227.197 23.4885C226.741 23.9711 226.194 24.3542 225.535 24.638L227.117 28.312C228.258 27.8208 229.26 27.1289 230.104 26.2365L227.197 23.4885ZM225.535 24.638C224.902 24.9104 224.199 25.0563 223.401 25.0563V29.0563C224.703 29.0563 225.949 28.8146 227.117 28.312L225.535 24.638ZM223.401 25.0563C222.595 25.0563 221.854 24.9135 221.162 24.6368L219.677 28.3507C220.86 28.824 222.107 29.0563 223.401 29.0563V25.0563ZM221.171 24.6403C220.481 24.3605 219.879 23.9692 219.352 23.4608L216.575 26.3392C217.473 27.2058 218.508 27.877 219.668 28.3472L221.171 24.6403ZM219.365 23.4731C218.858 22.9758 218.445 22.3745 218.129 21.6472L214.46 23.2403C214.969 24.413 215.668 25.4492 216.562 26.3269L219.365 23.4731ZM218.133 21.6559C217.839 20.9711 217.676 20.1747 217.676 19.2375H213.676C213.676 20.6503 213.925 21.9914 214.456 23.2316L218.133 21.6559ZM217.676 19.2375V3.9H213.676V19.2375H217.676ZM254.896 28.4062L253.045 29.1632L253.054 29.1857L253.064 29.2079L254.896 28.4062ZM255.177 28.8L254.117 30.496L254.198 30.5464L254.283 30.5889L255.177 28.8ZM257.709 28.8L258.701 30.5365L258.735 30.5169L258.769 30.496L257.709 28.8ZM257.99 28.4062L259.822 29.2079L259.83 29.1892L259.838 29.1703L257.99 28.4062ZM265.996 9.0375L267.986 8.83214L264.148 8.27348L265.996 9.0375ZM268.096 29.3812L266.107 29.5866L266.108 29.6008L266.11 29.6149L268.096 29.3812ZM268.265 29.85L266.76 31.167L266.804 31.2171L266.851 31.2642L268.265 29.85ZM271.64 29.3438L273.633 29.173L273.63 29.1422L273.626 29.1115L271.64 29.3438ZM268.659 3.84375L266.667 4.03043L266.669 4.05324L266.672 4.07599L268.659 3.84375ZM264.365 3.76875L266.217 4.5242L266.222 4.51215L266.226 4.50005L264.365 3.76875ZM256.471 23.1188L254.622 23.8806L256.48 28.3912L258.323 23.8742L256.471 23.1188ZM248.484 3.73125L246.617 4.4492L246.625 4.47126L246.634 4.49311L248.484 3.73125ZM244.434 3.4125L243.019 1.99828L242.978 2.03984L242.939 2.08377L244.434 3.4125ZM244.246 3.84375L242.266 3.56091L242.262 3.59103L242.258 3.62128L244.246 3.84375ZM241.396 29.3063L239.409 29.0838L239.405 29.1142L239.403 29.1446L241.396 29.3063ZM244.771 29.3625L242.783 29.1459L242.781 29.1663L242.779 29.1867L244.771 29.3625ZM246.984 9.05625L248.835 8.29926L244.995 8.83961L246.984 9.05625ZM253.064 29.2079C253.195 29.5069 253.491 30.1042 254.117 30.496L256.237 27.104C256.475 27.2526 256.606 27.418 256.66 27.4922C256.716 27.571 256.735 27.6189 256.728 27.6046L253.064 29.2079ZM254.283 30.5889C254.692 30.7934 255.116 30.875 255.515 30.875V26.875C255.663 26.875 255.863 26.9066 256.072 27.0111L254.283 30.5889ZM255.515 30.875H257.39V26.875H255.515V30.875ZM257.39 30.875C257.78 30.875 258.247 30.7961 258.701 30.5365L256.716 27.0635C256.996 26.9039 257.25 26.875 257.39 26.875V30.875ZM258.769 30.496C259.395 30.1042 259.691 29.5069 259.822 29.2079L256.158 27.6046C256.151 27.6189 256.17 27.571 256.226 27.4922C256.279 27.418 256.411 27.2526 256.649 27.104L258.769 30.496ZM259.838 29.1703L267.844 9.80151L264.148 8.27348L256.142 27.6422L259.838 29.1703ZM264.007 9.24286L266.107 29.5866L270.086 29.1759L267.986 8.83214L264.007 9.24286ZM266.11 29.6149C266.156 30.0048 266.289 30.6285 266.76 31.167L269.77 28.533C269.926 28.7113 270.003 28.8802 270.039 28.9804C270.075 29.0799 270.082 29.1434 270.082 29.1476L266.11 29.6149ZM266.851 31.2642C267.478 31.8915 268.254 32 268.734 32V28C268.788 28 269.252 28.0085 269.679 28.4358L266.851 31.2642ZM268.734 32H271.059V28H268.734V32ZM271.059 32C271.578 32 272.397 31.865 273.02 31.162C273.628 30.4748 273.675 29.6645 273.633 29.173L269.647 29.5145C269.643 29.4605 269.611 28.9783 270.025 28.5099C270.454 28.0257 270.964 28 271.059 28V32ZM273.626 29.1115L270.645 3.6115L266.672 4.07599L269.653 29.576L273.626 29.1115ZM270.65 3.65707C270.601 3.14044 270.405 2.45657 269.816 1.91769C269.225 1.37762 268.525 1.24375 268.002 1.24375V5.24375C267.88 5.24375 267.489 5.20988 267.117 4.8698C266.746 4.53093 266.678 4.14705 266.667 4.03043L270.65 3.65707ZM268.002 1.24375H264.946V5.24375H268.002V1.24375ZM264.946 1.24375C263.479 1.24375 262.765 2.37131 262.503 3.03745L266.226 4.50005C266.224 4.506 266.208 4.54603 266.17 4.60629C266.132 4.66684 266.064 4.76014 265.954 4.8592C265.701 5.08755 265.34 5.24375 264.946 5.24375V1.24375ZM262.513 3.0133L254.619 22.3633L258.323 23.8742L266.217 4.5242L262.513 3.0133ZM258.32 22.3569L250.333 2.96939L246.634 4.49311L254.622 23.8806L258.32 22.3569ZM250.35 3.01329C250.116 2.40401 249.433 1.24375 247.959 1.24375V5.24375C247.533 5.24375 247.155 5.07034 246.898 4.83121C246.683 4.6322 246.617 4.45075 246.617 4.4492L250.35 3.01329ZM247.959 1.24375H244.921V5.24375H247.959V1.24375ZM244.921 1.24375C244.362 1.24375 243.62 1.39814 243.019 1.99828L245.848 4.82671C245.473 5.20185 245.055 5.24375 244.921 5.24375V1.24375ZM242.939 2.08377C242.535 2.53796 242.337 3.06644 242.266 3.56091L246.226 4.12659C246.205 4.27106 246.132 4.51204 245.928 4.74123L242.939 2.08377ZM242.258 3.62128L239.409 29.0838L243.384 29.5287L246.234 4.06622L242.258 3.62128ZM239.403 29.1446C239.363 29.6376 239.409 30.445 240.005 31.1349C240.626 31.8531 241.454 32 241.996 32V28C242.1 28 242.61 28.0313 243.031 28.5183C243.427 28.9769 243.392 29.4374 243.39 29.4679L239.403 29.1446ZM241.996 32H244.134V28H241.996V32ZM244.134 32C244.697 32 245.417 31.8362 245.998 31.2548C246.552 30.7011 246.72 30.0254 246.763 29.5383L242.779 29.1867C242.784 29.1246 242.828 28.7676 243.169 28.4264C243.538 28.0576 243.957 28 244.134 28V32ZM246.759 29.5791L248.972 9.27288L244.995 8.83961L242.783 29.1459L246.759 29.5791ZM245.132 9.81323L253.045 29.1632L256.747 27.6493L248.835 8.29926L245.132 9.81323ZM291.224 28.4062L289.373 29.1632L289.382 29.1857L289.392 29.2079L291.224 28.4062ZM291.505 28.8L290.445 30.496L290.526 30.5464L290.611 30.5889L291.505 28.8ZM294.037 28.8L295.029 30.5365L295.063 30.5169L295.097 30.496L294.037 28.8ZM294.318 28.4062L296.15 29.2079L296.158 29.1892L296.166 29.1703L294.318 28.4062ZM302.324 9.0375L304.314 8.83214L300.476 8.27348L302.324 9.0375ZM304.424 29.3812L302.435 29.5866L302.436 29.6008L302.438 29.6149L304.424 29.3812ZM304.593 29.85L303.088 31.167L303.132 31.2171L303.179 31.2642L304.593 29.85ZM307.968 29.3438L309.961 29.173L309.958 29.1422L309.954 29.1115L307.968 29.3438ZM304.987 3.84375L302.995 4.03043L302.998 4.05324L303 4.07599L304.987 3.84375ZM300.693 3.76875L302.545 4.5242L302.55 4.51215L302.554 4.50005L300.693 3.76875ZM292.799 23.1188L290.95 23.8806L292.808 28.3912L294.651 23.8742L292.799 23.1188ZM284.812 3.73125L282.945 4.4492L282.954 4.47126L282.963 4.49311L284.812 3.73125ZM280.762 3.4125L279.348 1.99828L279.306 2.03984L279.267 2.08377L280.762 3.4125ZM280.574 3.84375L278.594 3.56091L278.59 3.59103L278.587 3.62128L280.574 3.84375ZM277.724 29.3063L275.737 29.0838L275.733 29.1142L275.731 29.1446L277.724 29.3063ZM281.099 29.3625L279.111 29.1459L279.109 29.1663L279.107 29.1867L281.099 29.3625ZM283.312 9.05625L285.163 8.29926L281.323 8.83961L283.312 9.05625ZM289.392 29.2079C289.523 29.5069 289.819 30.1042 290.445 30.496L292.565 27.104C292.803 27.2526 292.935 27.418 292.988 27.4922C293.044 27.571 293.063 27.6189 293.057 27.6046L289.392 29.2079ZM290.611 30.5889C291.02 30.7934 291.445 30.875 291.843 30.875V26.875C291.991 26.875 292.191 26.9066 292.4 27.0111L290.611 30.5889ZM291.843 30.875H293.718V26.875H291.843V30.875ZM293.718 30.875C294.108 30.875 294.575 30.7961 295.029 30.5365L293.044 27.0635C293.324 26.9039 293.578 26.875 293.718 26.875V30.875ZM295.097 30.496C295.724 30.1042 296.019 29.5069 296.15 29.2079L292.486 27.6046C292.479 27.6189 292.498 27.571 292.555 27.4922C292.608 27.418 292.739 27.2526 292.977 27.104L295.097 30.496ZM296.166 29.1703L304.173 9.80151L300.476 8.27348L292.47 27.6422L296.166 29.1703ZM300.335 9.24286L302.435 29.5866L306.414 29.1759L304.314 8.83214L300.335 9.24286ZM302.438 29.6149C302.484 30.0048 302.617 30.6285 303.088 31.167L306.098 28.533C306.254 28.7113 306.331 28.8802 306.367 28.9804C306.403 29.0799 306.41 29.1434 306.411 29.1476L302.438 29.6149ZM303.179 31.2642C303.806 31.8915 304.582 32 305.062 32V28C305.116 28 305.58 28.0085 306.007 28.4358L303.179 31.2642ZM305.062 32H307.387V28H305.062V32ZM307.387 32C307.906 32 308.725 31.865 309.348 31.162C309.957 30.4748 310.003 29.6645 309.961 29.173L305.975 29.5145C305.971 29.4605 305.939 28.9783 306.354 28.5099C306.782 28.0257 307.292 28 307.387 28V32ZM309.954 29.1115L306.973 3.6115L303 4.07599L305.982 29.576L309.954 29.1115ZM306.978 3.65707C306.93 3.14044 306.733 2.45657 306.144 1.91769C305.553 1.37762 304.853 1.24375 304.33 1.24375V5.24375C304.208 5.24375 303.817 5.20988 303.445 4.8698C303.074 4.53093 303.006 4.14705 302.995 4.03043L306.978 3.65707ZM304.33 1.24375H301.274V5.24375H304.33V1.24375ZM301.274 1.24375C299.807 1.24375 299.093 2.37131 298.831 3.03745L302.554 4.50005C302.552 4.506 302.536 4.54603 302.498 4.60629C302.46 4.66684 302.392 4.76014 302.282 4.8592C302.029 5.08755 301.668 5.24375 301.274 5.24375V1.24375ZM298.841 3.0133L290.947 22.3633L294.651 23.8742L302.545 4.5242L298.841 3.0133ZM294.648 22.3569L286.661 2.96939L282.963 4.49311L290.95 23.8806L294.648 22.3569ZM286.678 3.01329C286.444 2.40401 285.761 1.24375 284.287 1.24375V5.24375C283.861 5.24375 283.483 5.07034 283.226 4.83121C283.012 4.6322 282.946 4.45075 282.945 4.4492L286.678 3.01329ZM284.287 1.24375H281.249V5.24375H284.287V1.24375ZM281.249 1.24375C280.69 1.24375 279.948 1.39814 279.348 1.99828L282.176 4.82671C281.801 5.20185 281.383 5.24375 281.249 5.24375V1.24375ZM279.267 2.08377C278.863 2.53796 278.665 3.06644 278.594 3.56091L282.554 4.12659C282.533 4.27106 282.46 4.51204 282.257 4.74123L279.267 2.08377ZM278.587 3.62128L275.737 29.0838L279.712 29.5287L282.562 4.06622L278.587 3.62128ZM275.731 29.1446C275.691 29.6376 275.737 30.445 276.333 31.1349C276.955 31.8531 277.783 32 278.324 32V28C278.428 28 278.938 28.0313 279.359 28.5183C279.755 28.9769 279.72 29.4374 279.718 29.4679L275.731 29.1446ZM278.324 32H280.462V28H278.324V32ZM280.462 32C281.025 32 281.745 31.8362 282.326 31.2548C282.88 30.7011 283.048 30.0254 283.091 29.5383L279.107 29.1867C279.112 29.1246 279.156 28.7676 279.497 28.4264C279.866 28.0576 280.286 28 280.462 28V32ZM283.087 29.5791L285.3 9.27288L281.323 8.83961L279.111 29.1459L283.087 29.5791ZM281.461 9.81323L289.373 29.1632L293.075 27.6493L285.163 8.29926L281.461 9.81323ZM318.627 3.43124L317.066 4.68064L317.098 4.72118L317.133 4.75996L318.627 3.43124ZM315.44 3.43124L313.953 2.09329L313.945 2.10253L315.44 3.43124ZM313.29 29.3063C313.29 29.793 313.393 30.5316 313.952 31.1578C314.549 31.8276 315.331 32 315.909 32V28C316.074 28 316.546 28.0568 316.937 28.4953C317.289 28.8903 317.29 29.282 317.29 29.3063H313.29ZM315.909 32H318.159V28H315.909V32ZM318.159 32C318.736 32 319.518 31.8276 320.115 31.1578C320.674 30.5316 320.777 29.793 320.777 29.3063H316.777C316.777 29.282 316.778 28.8903 317.13 28.4953C317.521 28.0568 317.994 28 318.159 28V32ZM320.777 29.3063V3.91875H316.777V29.3063H320.777ZM320.777 3.91875C320.777 3.41698 320.66 2.70747 320.122 2.10253L317.133 4.75996C316.795 4.38003 316.777 3.99552 316.777 3.91875H320.777ZM320.189 2.18185C319.594 1.4375 318.765 1.24375 318.159 1.24375V5.24375C318.075 5.24375 317.904 5.23206 317.692 5.14758C317.467 5.0573 317.243 4.90204 317.066 4.68064L320.189 2.18185ZM318.159 1.24375H315.909V5.24375H318.159V1.24375ZM315.909 1.24375C315.259 1.24375 314.517 1.46701 313.953 2.09332L316.926 4.76918C316.778 4.93453 316.59 5.06515 316.384 5.14758C316.186 5.22683 316.016 5.24375 315.909 5.24375V1.24375ZM313.945 2.10253C313.407 2.70747 313.29 3.41698 313.29 3.91875H317.29C317.29 3.99552 317.272 4.38003 316.935 4.75996L313.945 2.10253ZM313.29 3.91875V29.3063H317.29V3.91875H313.29ZM334.021 6.73125H336.021V4.73125H334.021V6.73125ZM337.527 6.73125V4.73125H335.527V6.73125H337.527ZM323.659 6.09375C323.659 6.61454 323.79 7.37247 324.404 7.98608C325.017 8.59969 325.775 8.73125 326.296 8.73125V4.73125C326.392 4.73125 326.831 4.75655 327.232 5.15766C327.633 5.55877 327.659 5.99796 327.659 6.09375H323.659ZM326.296 8.73125H334.021V4.73125H326.296V8.73125ZM332.021 6.73125V29.3625H336.021V6.73125H332.021ZM332.021 29.3625C332.021 29.8833 332.153 30.6412 332.766 31.2548C333.38 31.8684 334.138 32 334.659 32V28C334.754 28 335.194 28.0253 335.595 28.4264C335.996 28.8275 336.021 29.2667 336.021 29.3625H332.021ZM334.659 32H336.909V28H334.659V32ZM336.909 32C337.439 32 338.2 31.86 338.808 31.2336C339.405 30.6182 339.527 29.8686 339.527 29.3625H335.527C335.527 29.2814 335.546 28.8506 335.938 28.4477C336.339 28.0337 336.791 28 336.909 28V32ZM339.527 29.3625V6.73125H335.527V29.3625H339.527ZM337.527 8.73125H345.271V4.73125H337.527V8.73125ZM345.271 8.73125C345.811 8.73125 346.576 8.58189 347.177 7.9426C347.758 7.32609 347.871 6.58535 347.871 6.09375H343.871C343.871 6.02715 343.884 5.60516 344.265 5.20115C344.666 4.77435 345.131 4.73125 345.271 4.73125V8.73125ZM347.871 6.09375V3.88125H343.871V6.09375H347.871ZM347.871 3.88125C347.871 3.38965 347.758 2.64891 347.177 2.03239C346.576 1.3931 345.811 1.24375 345.271 1.24375V5.24375C345.131 5.24375 344.666 5.20064 344.265 4.77385C343.884 4.36983 343.871 3.94785 343.871 3.88125H347.871ZM345.271 1.24375H326.296V5.24375H345.271V1.24375ZM326.296 1.24375C325.775 1.24375 325.017 1.3753 324.404 1.98891C323.79 2.60252 323.659 3.36046 323.659 3.88125H327.659C327.659 3.97704 327.633 4.41623 327.232 4.81734C326.831 5.21844 326.392 5.24375 326.296 5.24375V1.24375ZM323.659 3.88125V6.09375H327.659V3.88125H323.659Z" fill="#EC5242"/>
</svg>
