<svg width="11" height="9" viewBox="0 0 11 9" fill="none" xmlns="http://www.w3.org/2000/svg">
<g clip-path="url(#clip0)">
<path d="M10.8622 4.39445C11.0616 4.21502 11.0424 3.94001 10.8192 3.78035L5.90317 0.26089C5.68003 0.101234 5.32228 0.104579 5.10384 0.26843L0.171081 3.968C-0.0473602 4.13185 -0.0580815 4.40651 0.147344 4.58121L0.271015 4.68659C0.47619 4.8613 0.807832 4.88213 1.01129 4.73298L1.37993 4.46286V8.41734C1.37993 8.65997 1.62021 8.85638 1.91653 8.85638H3.83934C4.13566 8.85638 4.37594 8.65997 4.37594 8.41734V5.6508H6.82849V8.41734C6.82423 8.65979 7.03625 8.85621 7.33257 8.85621H9.37026C9.66659 8.85621 9.90686 8.65979 9.90686 8.41717V4.51855C9.90686 4.51855 10.0087 4.59154 10.1343 4.68187C10.2597 4.77202 10.5231 4.69974 10.7225 4.52013L10.8622 4.39445Z" fill="#929292"/>
</g>
<defs>
<clipPath id="clip0">
<rect width="11" height="9" fill="white"/>
</clipPath>
</defs>
</svg>
