<svg width="75" height="94" viewBox="0 0 75 94" fill="none" xmlns="http://www.w3.org/2000/svg">
<circle cx="64" cy="10" r="6" fill="#1C284E"/>
<circle cx="37.5" cy="56.5" r="37.5" fill="#C4C4C4" fill-opacity="0.45"/>
<circle cx="37.5" cy="56.5" r="35" stroke="black" stroke-opacity="0.58" stroke-width="5"/>
<circle cx="34" cy="11" r="11" fill="#A4A4A4"/>
<circle cx="17" cy="21" r="15" fill="#F05133"/>
<path d="M27.1709 45.4312C29.179 45.4312 30.8844 45.9307 32.2871 46.9297C33.6999 47.9186 34.6737 49.3818 35.2085 51.3193L33.1802 51.7886C32.8169 50.3758 32.1307 49.2607 31.1216 48.4434C30.1125 47.6159 28.7703 47.2021 27.0952 47.2021C24.5825 47.2021 22.7762 48.0195 21.6763 49.6543C20.5864 51.2891 20.0415 53.6807 20.0415 56.8291C20.0415 58.1712 20.1071 59.3418 20.2383 60.3408C20.3796 61.3398 20.6167 62.243 20.9497 63.0503C21.2827 63.8576 21.7166 64.5186 22.2515 65.0332C22.7964 65.5378 23.4725 65.9263 24.2798 66.1987C25.0871 66.4611 26.0407 66.5923 27.1406 66.5923C30.279 66.5923 32.3628 65.1593 33.3921 62.2935L35.2842 62.8838C34.6787 64.7103 33.6494 66.0827 32.1963 67.001C30.7533 67.9193 29.0277 68.3784 27.0195 68.3784C23.8913 68.3784 21.5602 67.4652 20.0264 65.6387C18.4925 63.8021 17.7256 60.8656 17.7256 56.8291C17.7256 52.9339 18.548 50.063 20.1929 48.2163C21.8377 46.3595 24.1637 45.4312 27.1709 45.4312ZM49.1555 45.4312C51.1636 45.4312 52.869 45.9307 54.2717 46.9297C55.6844 47.9186 56.6582 49.3818 57.1931 51.3193L55.1647 51.7886C54.8015 50.3758 54.1153 49.2607 53.1062 48.4434C52.097 47.6159 50.7549 47.2021 49.0798 47.2021C46.5671 47.2021 44.7608 48.0195 43.6608 49.6543C42.571 51.2891 42.0261 53.6807 42.0261 56.8291C42.0261 58.1712 42.0917 59.3418 42.2229 60.3408C42.3641 61.3398 42.6013 62.243 42.9343 63.0503C43.2673 63.8576 43.7012 64.5186 44.236 65.0332C44.781 65.5378 45.4571 65.9263 46.2644 66.1987C47.0716 66.4611 48.0253 66.5923 49.1252 66.5923C52.2635 66.5923 54.3474 65.1593 55.3767 62.2935L57.2687 62.8838C56.6633 64.7103 55.634 66.0827 54.1809 67.001C52.7378 67.9193 51.0122 68.3784 49.0041 68.3784C45.8758 68.3784 43.5448 67.4652 42.0109 65.6387C40.4771 63.8021 39.7102 60.8656 39.7102 56.8291C39.7102 52.9339 40.5326 50.063 42.1774 48.2163C43.8223 46.3595 46.1483 45.4312 49.1555 45.4312Z" fill="black"/>
<path d="M32.2871 46.9297L31.1269 48.5587L31.1335 48.5635L31.1402 48.5682L32.2871 46.9297ZM35.2085 51.3193L35.6593 53.2679L37.6914 52.7978L37.1364 50.7872L35.2085 51.3193ZM33.1802 51.7886L31.2432 52.2867L31.7293 54.177L33.631 53.7371L33.1802 51.7886ZM31.1216 48.4434L29.8534 49.9899L29.8627 49.9975L31.1216 48.4434ZM21.6763 49.6543L20.0169 48.5378L20.0122 48.5449L21.6763 49.6543ZM20.2383 60.3408L18.2553 60.6012L18.2566 60.611L18.258 60.6209L20.2383 60.3408ZM22.2515 65.0332L20.8647 66.4743L20.8785 66.4877L20.8926 66.5007L22.2515 65.0332ZM24.2798 66.1987L23.6402 68.0937L23.6509 68.0973L23.6616 68.1008L24.2798 66.1987ZM33.3921 62.2935L33.9878 60.3842L32.1578 59.8133L31.5098 61.6174L33.3921 62.2935ZM35.2842 62.8838L37.1826 63.5131L37.8231 61.5809L35.8799 60.9746L35.2842 62.8838ZM32.1963 67.001L31.1279 65.3103L31.1225 65.3137L32.1963 67.001ZM20.0264 65.6387L18.4913 66.9207L18.4948 66.9249L20.0264 65.6387ZM20.1929 48.2163L21.6863 49.5466L21.6899 49.5425L20.1929 48.2163ZM27.1709 47.4312C28.8344 47.4312 30.1167 47.8393 31.1269 48.5587L33.4474 45.3006C31.6522 44.022 29.5237 43.4312 27.1709 43.4312V47.4312ZM31.1402 48.5682C32.1105 49.2474 32.848 50.2844 33.2806 51.8515L37.1364 50.7872C36.4993 48.4793 35.2892 46.5899 33.434 45.2912L31.1402 48.5682ZM34.7577 49.3708L32.7294 49.84L33.631 53.7371L35.6593 53.2679L34.7577 49.3708ZM35.1172 51.2905C34.6608 49.5158 33.7637 48.0097 32.3804 46.8892L29.8627 49.9975C30.4977 50.5118 30.973 51.2359 31.2432 52.2867L35.1172 51.2905ZM32.3897 46.8968C30.9319 45.7014 29.0993 45.2021 27.0952 45.2021V49.2021C28.4414 49.2021 29.293 49.5304 29.8534 49.9899L32.3897 46.8968ZM27.0952 45.2021C24.1228 45.2021 21.5903 46.1994 20.0169 48.5378L23.3356 50.7708C23.9621 49.8397 25.0423 49.2021 27.0952 49.2021V45.2021ZM20.0122 48.5449C18.6077 50.6516 18.0415 53.5031 18.0415 56.8291H22.0415C22.0415 53.8582 22.5651 51.9266 23.3404 50.7637L20.0122 48.5449ZM18.0415 56.8291C18.0415 58.2317 18.1098 59.4929 18.2553 60.6012L22.2213 60.0804C22.1044 59.1906 22.0415 58.1108 22.0415 56.8291H18.0415ZM18.258 60.6209C18.4192 61.7606 18.695 62.8292 19.1008 63.813L22.7986 62.2876C22.5384 61.6568 22.34 60.9191 22.2186 60.0608L18.258 60.6209ZM19.1008 63.813C19.5209 64.8314 20.0985 65.7371 20.8647 66.4743L23.6382 63.5921C23.3347 63.3 23.0445 62.8838 22.7986 62.2876L19.1008 63.813ZM20.8926 66.5007C21.6729 67.2231 22.6049 67.7443 23.6402 68.0937L24.9193 64.3037C24.3401 64.1082 23.9199 63.8524 23.6103 63.5657L20.8926 66.5007ZM23.6616 68.1008C24.7176 68.444 25.8894 68.5923 27.1406 68.5923V64.5923C26.192 64.5923 25.4566 64.4782 24.898 64.2967L23.6616 68.1008ZM27.1406 68.5923C29.0162 68.5923 30.7425 68.1613 32.1905 67.1655C33.6434 66.1664 34.6476 64.7146 35.2744 62.9695L31.5098 61.6174C31.1073 62.7382 30.5549 63.4358 29.924 63.8696C29.2882 64.3068 28.4034 64.5923 27.1406 64.5923V68.5923ZM32.7964 64.2027L34.6885 64.793L35.8799 60.9746L33.9878 60.3842L32.7964 64.2027ZM33.3858 62.2545C32.9074 63.6975 32.143 64.6688 31.1279 65.3103L33.2647 68.6917C35.1558 67.4966 36.45 65.723 37.1826 63.5131L33.3858 62.2545ZM31.1225 65.3137C30.0528 65.9944 28.7146 66.3784 27.0195 66.3784V70.3784C29.3407 70.3784 31.4537 69.8442 33.27 68.6883L31.1225 65.3137ZM27.0195 66.3784C24.2853 66.3784 22.6012 65.5947 21.5579 64.3525L18.4948 66.9249C20.5193 69.3356 23.4972 70.3784 27.0195 70.3784V66.3784ZM21.5614 64.3566C20.4744 63.0551 19.7256 60.6922 19.7256 56.8291H15.7256C15.7256 61.0389 16.5106 64.5491 18.4913 66.9207L21.5614 64.3566ZM19.7256 56.8291C19.7256 53.1557 20.5106 50.8665 21.6863 49.5466L18.6994 46.8861C16.5854 49.2595 15.7256 52.7121 15.7256 56.8291H19.7256ZM21.6899 49.5425C22.8755 48.2042 24.604 47.4312 27.1709 47.4312V43.4312C23.7235 43.4312 20.7999 44.5149 18.6958 46.8901L21.6899 49.5425ZM54.2717 46.9297L53.1114 48.5587L53.1181 48.5635L53.1248 48.5682L54.2717 46.9297ZM57.1931 51.3193L57.6438 53.2679L59.676 52.7978L59.121 50.7872L57.1931 51.3193ZM55.1647 51.7886L53.2278 52.2867L53.7139 54.177L55.6155 53.7371L55.1647 51.7886ZM53.1062 48.4434L51.838 49.9899L51.8473 49.9975L53.1062 48.4434ZM43.6608 49.6543L42.0015 48.5378L41.9967 48.5449L43.6608 49.6543ZM42.2229 60.3408L40.2399 60.6012L40.2412 60.611L40.2426 60.6209L42.2229 60.3408ZM44.236 65.0332L42.8493 66.4743L42.8631 66.4877L42.8772 66.5007L44.236 65.0332ZM46.2644 66.1987L45.6248 68.0937L45.6355 68.0973L45.6462 68.1008L46.2644 66.1987ZM55.3767 62.2935L55.9723 60.3842L54.1424 59.8133L53.4944 61.6174L55.3767 62.2935ZM57.2687 62.8838L59.1672 63.5131L59.8077 61.5809L57.8644 60.9746L57.2687 62.8838ZM54.1809 67.001L53.1124 65.3103L53.1071 65.3137L54.1809 67.001ZM42.0109 65.6387L40.4759 66.9207L40.4794 66.9249L42.0109 65.6387ZM42.1774 48.2163L43.6709 49.5466L43.6745 49.5425L42.1774 48.2163ZM49.1555 47.4312C50.8189 47.4312 52.1013 47.8393 53.1114 48.5587L55.4319 45.3006C53.6367 44.022 51.5083 43.4312 49.1555 43.4312V47.4312ZM53.1248 48.5682C54.0951 49.2474 54.8326 50.2844 55.2652 51.8515L59.121 50.7872C58.4839 48.4793 57.2738 46.5899 55.4186 45.2912L53.1248 48.5682ZM56.7423 49.3708L54.714 49.84L55.6155 53.7371L57.6438 53.2679L56.7423 49.3708ZM57.1017 51.2905C56.6454 49.5158 55.7483 48.0097 54.365 46.8892L51.8473 49.9975C52.4823 50.5118 52.9576 51.2359 53.2278 52.2867L57.1017 51.2905ZM54.3743 46.8968C52.9165 45.7014 51.0839 45.2021 49.0798 45.2021V49.2021C50.4259 49.2021 51.2776 49.5304 51.838 49.9899L54.3743 46.8968ZM49.0798 45.2021C46.1073 45.2021 43.5749 46.1994 42.0015 48.5378L45.3202 50.7708C45.9467 49.8397 47.0268 49.2021 49.0798 49.2021V45.2021ZM41.9967 48.5449C40.5923 50.6516 40.0261 53.5031 40.0261 56.8291H44.0261C44.0261 53.8582 44.5497 51.9266 45.3249 50.7637L41.9967 48.5449ZM40.0261 56.8291C40.0261 58.2317 40.0943 59.4929 40.2399 60.6012L44.2058 60.0804C44.089 59.1906 44.0261 58.1108 44.0261 56.8291H40.0261ZM40.2426 60.6209C40.4037 61.7606 40.6796 62.8292 41.0854 63.813L44.7832 62.2876C44.523 61.6568 44.3245 60.9191 44.2031 60.0608L40.2426 60.6209ZM41.0854 63.813C41.5055 64.8314 42.0831 65.7371 42.8493 66.4743L45.6228 63.5921C45.3193 63.3 45.0291 62.8838 44.7832 62.2876L41.0854 63.813ZM42.8772 66.5007C43.6574 67.2231 44.5895 67.7443 45.6248 68.0937L46.9039 64.3037C46.3246 64.1082 45.9045 63.8524 45.5949 63.5657L42.8772 66.5007ZM45.6462 68.1008C46.7021 68.444 47.874 68.5923 49.1252 68.5923V64.5923C48.1765 64.5923 47.4412 64.4782 46.8825 64.2967L45.6462 68.1008ZM49.1252 68.5923C51.0008 68.5923 52.727 68.1613 54.175 67.1655C55.628 66.1664 56.6322 64.7146 57.2589 62.9695L53.4944 61.6174C53.0918 62.7382 52.5395 63.4358 51.9086 63.8696C51.2728 64.3068 50.3879 64.5923 49.1252 64.5923V68.5923ZM54.781 64.2027L56.6731 64.793L57.8644 60.9746L55.9723 60.3842L54.781 64.2027ZM55.3703 62.2545C54.892 63.6975 54.1276 64.6688 53.1124 65.3103L55.2493 68.6917C57.1404 67.4966 58.4346 65.723 59.1672 63.5131L55.3703 62.2545ZM53.1071 65.3137C52.0374 65.9944 50.6992 66.3784 49.0041 66.3784V70.3784C51.3253 70.3784 53.4382 69.8442 55.2546 68.6883L53.1071 65.3137ZM49.0041 66.3784C46.2699 66.3784 44.5857 65.5947 43.5425 64.3525L40.4794 66.9249C42.5039 69.3356 45.4818 70.3784 49.0041 70.3784V66.3784ZM43.546 64.3566C42.459 63.0551 41.7102 60.6922 41.7102 56.8291H37.7102C37.7102 61.0389 38.4952 64.5491 40.4759 66.9207L43.546 64.3566ZM41.7102 56.8291C41.7102 53.1557 42.4952 50.8665 43.6709 49.5466L40.684 46.8861C38.57 49.2595 37.7102 52.7121 37.7102 56.8291H41.7102ZM43.6745 49.5425C44.8601 48.2042 46.5885 47.4312 49.1555 47.4312V43.4312C45.7081 43.4312 42.7845 44.5149 40.6804 46.8901L43.6745 49.5425Z" fill="black"/>
</svg>
