<svg width="192" height="204" viewBox="0 0 192 204" fill="none" xmlns="http://www.w3.org/2000/svg">
<mask id="mask0" mask-type="alpha" maskUnits="userSpaceOnUse" x="33" y="44" width="120" height="120">
<circle cx="93" cy="104" r="60" fill="#C4C4C4"/>
</mask>
<g mask="url(#mask0)">
<path d="M131.552 89.7862L134.729 86.0319L129.063 80.3789L126.125 84.372L131.552 89.7862Z" fill="black"/>
<path d="M138.426 96.6445L144.296 102.501L147.234 98.5084L141.603 92.8901L138.426 96.6445Z" fill="black"/>
<path d="M143.752 80.1565L146.389 83.3143L141.406 88.9549L138.711 85.8634L143.752 80.1565Z" fill="#EC5242" stroke="#EC5242" stroke-width="0.260604"/>
<path d="M131.69 93.3765L134.327 96.5336L129.344 102.175L126.649 99.0835L131.69 93.3765Z" fill="#EC5242" stroke="#EC5242" stroke-width="0.260604"/>
<path d="M105.92 89.7862L109.097 86.0319L103.432 80.3789L100.494 84.372L105.92 89.7862Z" fill="black"/>
<path d="M112.795 96.6445L118.664 102.501L121.602 98.5084L115.972 92.8901L112.795 96.6445Z" fill="black"/>
<path d="M118.12 80.1565L120.757 83.3143L115.775 88.9549L113.08 85.8634L118.12 80.1565Z" fill="#EC5242" stroke="#EC5242" stroke-width="0.260604"/>
<path d="M106.058 93.3765L108.695 96.5336L103.713 102.175L101.018 99.0835L106.058 93.3765Z" fill="#EC5242" stroke="#EC5242" stroke-width="0.260604"/>
<path d="M131.552 63.3469L134.729 59.5922L129.063 53.9397L126.125 57.9324L131.552 63.3469Z" fill="black"/>
<path d="M138.426 70.2058L144.296 76.0618L147.234 72.0691L141.603 66.4512L138.426 70.2058Z" fill="black"/>
<path d="M143.752 53.7175L146.389 56.8754L141.406 62.5163L138.711 59.4245L143.752 53.7175Z" fill="#EC5242" stroke="#EC5242" stroke-width="0.260604"/>
<path d="M131.69 66.937L134.327 70.0948L129.344 75.7358L126.649 72.644L131.69 66.937Z" fill="#EC5242" stroke="#EC5242" stroke-width="0.260604"/>
<path d="M105.92 63.3469L109.097 59.5922L103.432 53.9397L100.494 57.9324L105.92 63.3469Z" fill="black"/>
<path d="M112.795 70.2058L118.664 76.0618L121.602 72.0691L115.972 66.4512L112.795 70.2058Z" fill="black"/>
<path d="M118.12 53.7175L120.757 56.8754L115.775 62.5163L113.08 59.4245L118.12 53.7175Z" fill="#EC5242" stroke="#EC5242" stroke-width="0.260604"/>
<path d="M106.058 66.937L108.695 70.0948L103.713 75.7358L101.018 72.644L106.058 66.937Z" fill="#EC5242" stroke="#EC5242" stroke-width="0.260604"/>
<path d="M155.675 89.7862L158.852 86.0319L153.187 80.3789L150.249 84.372L155.675 89.7862Z" fill="black"/>
<path d="M155.813 93.3765L158.45 96.5336L153.468 102.175L150.773 99.0835L155.813 93.3765Z" fill="#EC5242" stroke="#EC5242" stroke-width="0.260604"/>
<path d="M155.675 63.3469L158.852 59.5922L153.187 53.9397L150.249 57.9324L155.675 63.3469Z" fill="black"/>
<path d="M155.813 66.937L158.45 70.0948L153.468 75.7358L150.773 72.644L155.813 66.937Z" fill="#EC5242" stroke="#EC5242" stroke-width="0.260604"/>
<path d="M136.918 43.7666L142.788 49.6226L145.726 45.6299L140.095 40.012L136.918 43.7666Z" fill="black"/>
<path d="M130.182 40.4978L132.819 43.6556L127.837 49.2966L125.141 46.2048L130.182 40.4978Z" fill="#EC5242" stroke="#EC5242" stroke-width="0.260604"/>
<path d="M111.287 43.7666L117.156 49.6226L120.094 45.6299L114.464 40.012L111.287 43.7666Z" fill="black"/>
<path d="M104.55 40.4978L107.187 43.6556L102.205 49.2966L99.5099 46.2048L104.55 40.4978Z" fill="#EC5242" stroke="#EC5242" stroke-width="0.260604"/>
<path d="M154.306 40.4978L156.943 43.6556L151.96 49.2966L149.265 46.2048L154.306 40.4978Z" fill="#EC5242" stroke="#EC5242" stroke-width="0.260604"/>
<path d="M30.5335 89.7862L33.7102 86.0319L28.0449 80.3789L25.1068 84.372L30.5335 89.7862Z" fill="black"/>
<path d="M37.4078 96.6445L43.2771 102.501L46.2151 98.5084L40.5845 92.8901L37.4078 96.6445Z" fill="black"/>
<path d="M42.733 80.1565L45.37 83.3143L40.3879 88.9549L37.6927 85.8634L42.733 80.1565Z" fill="#EC5242" stroke="#EC5242" stroke-width="0.260604"/>
<path d="M30.6711 93.3765L33.3081 96.5336L28.326 102.175L25.6308 99.0835L30.6711 93.3765Z" fill="#EC5242" stroke="#EC5242" stroke-width="0.260604"/>
<path d="M30.5335 63.3469L33.7102 59.5922L28.0449 53.9397L25.1068 57.9324L30.5335 63.3469Z" fill="black"/>
<path d="M37.4078 70.2058L43.2771 76.0618L46.2151 72.0691L40.5845 66.4512L37.4078 70.2058Z" fill="black"/>
<path d="M42.733 53.7175L45.37 56.8754L40.3879 62.5163L37.6927 59.4245L42.733 53.7175Z" fill="#EC5242" stroke="#EC5242" stroke-width="0.260604"/>
<path d="M30.6711 66.937L33.3081 70.0948L28.326 75.7358L25.6308 72.644L30.6711 66.937Z" fill="#EC5242" stroke="#EC5242" stroke-width="0.260604"/>
<path d="M80.2886 89.7862L83.4654 86.0319L77.8001 80.3789L74.8622 84.372L80.2886 89.7862Z" fill="black"/>
<path d="M87.1632 96.6445L93.0328 102.501L95.9706 98.5084L90.34 92.8901L87.1632 96.6445Z" fill="black"/>
<path d="M92.4885 80.1565L95.1255 83.3143L90.1432 88.9549L87.4481 85.8634L92.4885 80.1565Z" fill="#EC5242" stroke="#EC5242" stroke-width="0.260604"/>
<path d="M80.4264 93.3765L83.0635 96.5336L78.0812 102.175L75.3861 99.0835L80.4264 93.3765Z" fill="#EC5242" stroke="#EC5242" stroke-width="0.260604"/>
<path d="M54.6573 89.7862L57.834 86.0319L52.1687 80.3789L49.2306 84.372L54.6573 89.7862Z" fill="black"/>
<path d="M61.5316 96.6445L67.4009 102.501L70.339 98.5084L64.7083 92.8901L61.5316 96.6445Z" fill="black"/>
<path d="M66.8568 80.1565L69.4939 83.3143L64.5118 88.9549L61.8165 85.8634L66.8568 80.1565Z" fill="#EC5242" stroke="#EC5242" stroke-width="0.260604"/>
<path d="M54.7948 93.3765L57.4318 96.5336L52.4497 102.175L49.7545 99.0835L54.7948 93.3765Z" fill="#EC5242" stroke="#EC5242" stroke-width="0.260604"/>
<path d="M80.2886 63.3469L83.4654 59.5922L77.8001 53.9397L74.8622 57.9324L80.2886 63.3469Z" fill="black"/>
<path d="M87.1632 70.2058L93.0328 76.0618L95.9706 72.0691L90.34 66.4512L87.1632 70.2058Z" fill="black"/>
<path d="M92.4885 53.7175L95.1255 56.8754L90.1432 62.5163L87.4481 59.4245L92.4885 53.7175Z" fill="#EC5242" stroke="#EC5242" stroke-width="0.260604"/>
<path d="M80.4264 66.937L83.0635 70.0948L78.0812 75.7358L75.3861 72.644L80.4264 66.937Z" fill="#EC5242" stroke="#EC5242" stroke-width="0.260604"/>
<path d="M54.6573 63.3469L57.834 59.5922L52.1687 53.9397L49.2306 57.9324L54.6573 63.3469Z" fill="black"/>
<path d="M61.5316 70.2058L67.4009 76.0618L70.339 72.0691L64.7083 66.4512L61.5316 70.2058Z" fill="black"/>
<path d="M66.8568 53.7175L69.4939 56.8754L64.5118 62.5163L61.8165 59.4245L66.8568 53.7175Z" fill="#EC5242" stroke="#EC5242" stroke-width="0.260604"/>
<path d="M54.7948 66.937L57.4318 70.0948L52.4497 75.7358L49.7545 72.644L54.7948 66.937Z" fill="#EC5242" stroke="#EC5242" stroke-width="0.260604"/>
<path d="M35.9001 43.7666L41.7694 49.6226L44.7074 45.6299L39.0768 40.012L35.9001 43.7666Z" fill="black"/>
<path d="M85.6553 43.7666L91.5249 49.6226L94.4627 45.6299L88.8321 40.012L85.6553 43.7666Z" fill="black"/>
<path d="M78.9187 40.4978L81.5557 43.6556L76.5734 49.2966L73.8783 46.2048L78.9187 40.4978Z" fill="#EC5242" stroke="#EC5242" stroke-width="0.260604"/>
<path d="M60.024 43.7666L65.8932 49.6226L68.8313 45.6299L63.2006 40.012L60.024 43.7666Z" fill="black"/>
<path d="M53.2871 40.4978L55.9241 43.6556L50.942 49.2966L48.2468 46.2048L53.2871 40.4978Z" fill="#EC5242" stroke="#EC5242" stroke-width="0.260604"/>
<path d="M131.552 169.104L134.729 165.349L129.063 159.696L126.125 163.689L131.552 169.104Z" fill="black"/>
<path d="M143.752 159.474L146.389 162.632L141.406 168.273L138.711 165.181L143.752 159.474Z" fill="#EC5242" stroke="#EC5242" stroke-width="0.260604"/>
<path d="M105.92 169.104L109.097 165.349L103.432 159.696L100.494 163.689L105.92 169.104Z" fill="black"/>
<path d="M118.12 159.474L120.757 162.632L115.775 168.273L113.08 165.181L118.12 159.474Z" fill="#EC5242" stroke="#EC5242" stroke-width="0.260604"/>
<path d="M155.675 169.104L158.852 165.349L153.187 159.696L150.249 163.689L155.675 169.104Z" fill="black"/>
<path d="M130.044 142.664L133.221 138.91L127.555 133.257L124.617 137.25L130.044 142.664Z" fill="black"/>
<path d="M136.918 149.523L142.788 155.379L145.726 151.387L140.095 145.768L136.918 149.523Z" fill="black"/>
<path d="M142.244 133.035L144.881 136.193L139.899 141.834L137.204 138.742L142.244 133.035Z" fill="#EC5242" stroke="#EC5242" stroke-width="0.260604"/>
<path d="M130.182 146.254L132.819 149.412L127.837 155.053L125.141 151.961L130.182 146.254Z" fill="#EC5242" stroke="#EC5242" stroke-width="0.260604"/>
<path d="M104.412 142.664L107.589 138.91L101.924 133.257L98.9859 137.25L104.412 142.664Z" fill="black"/>
<path d="M111.287 149.523L117.156 155.379L120.094 151.387L114.464 145.768L111.287 149.523Z" fill="black"/>
<path d="M116.612 133.035L119.249 136.193L114.267 141.834L111.572 138.742L116.612 133.035Z" fill="#EC5242" stroke="#EC5242" stroke-width="0.260604"/>
<path d="M104.55 146.254L107.187 149.412L102.205 155.053L99.5099 151.961L104.55 146.254Z" fill="#EC5242" stroke="#EC5242" stroke-width="0.260604"/>
<path d="M130.044 116.225L133.221 112.471L127.555 106.818L124.617 110.811L130.044 116.225Z" fill="black"/>
<path d="M136.918 123.083L142.788 128.94L145.726 124.947L140.095 119.329L136.918 123.083Z" fill="black"/>
<path d="M142.244 106.595L144.881 109.753L139.899 115.395L137.204 112.302L142.244 106.595Z" fill="#EC5242" stroke="#EC5242" stroke-width="0.260604"/>
<path d="M130.182 119.815L132.819 122.973L127.837 128.614L125.141 125.522L130.182 119.815Z" fill="#EC5242" stroke="#EC5242" stroke-width="0.260604"/>
<path d="M104.412 116.225L107.589 112.471L101.924 106.818L98.9859 110.811L104.412 116.225Z" fill="black"/>
<path d="M111.287 123.083L117.156 128.94L120.094 124.947L114.464 119.329L111.287 123.083Z" fill="black"/>
<path d="M116.612 106.595L119.249 109.753L114.267 115.395L111.572 112.302L116.612 106.595Z" fill="#EC5242" stroke="#EC5242" stroke-width="0.260604"/>
<path d="M104.55 119.815L107.187 122.973L102.205 128.614L99.5099 125.522L104.55 119.815Z" fill="#EC5242" stroke="#EC5242" stroke-width="0.260604"/>
<path d="M154.168 142.664L157.345 138.91L151.679 133.257L148.742 137.25L154.168 142.664Z" fill="black"/>
<path d="M154.306 146.254L156.943 149.412L151.96 155.053L149.265 151.961L154.306 146.254Z" fill="#EC5242" stroke="#EC5242" stroke-width="0.260604"/>
<path d="M154.168 116.225L157.345 112.471L151.679 106.818L148.742 110.811L154.168 116.225Z" fill="black"/>
<path d="M154.306 119.815L156.943 122.973L151.96 128.614L149.265 125.522L154.306 119.815Z" fill="#EC5242" stroke="#EC5242" stroke-width="0.260604"/>
<path d="M30.5335 169.104L33.7102 165.349L28.0449 159.696L25.1068 163.689L30.5335 169.104Z" fill="black"/>
<path d="M42.733 159.474L45.37 162.632L40.3879 168.273L37.6927 165.181L42.733 159.474Z" fill="#EC5242" stroke="#EC5242" stroke-width="0.260604"/>
<path d="M80.2886 169.104L83.4654 165.349L77.8001 159.696L74.8622 163.689L80.2886 169.104Z" fill="black"/>
<path d="M92.4885 159.474L95.1255 162.632L90.1432 168.273L87.4481 165.181L92.4885 159.474Z" fill="#EC5242" stroke="#EC5242" stroke-width="0.260604"/>
<path d="M54.6573 169.104L57.834 165.349L52.1687 159.696L49.2306 163.689L54.6573 169.104Z" fill="black"/>
<path d="M66.8568 159.474L69.4939 162.632L64.5118 168.273L61.8165 165.181L66.8568 159.474Z" fill="#EC5242" stroke="#EC5242" stroke-width="0.260604"/>
<path d="M35.9001 149.523L41.7694 155.379L44.7074 151.387L39.0768 145.768L35.9001 149.523Z" fill="black"/>
<path d="M41.2252 133.035L43.8623 136.193L38.8802 141.834L36.1849 138.742L41.2252 133.035Z" fill="#EC5242" stroke="#EC5242" stroke-width="0.260604"/>
<path d="M35.9001 123.083L41.7694 128.94L44.7074 124.947L39.0768 119.329L35.9001 123.083Z" fill="black"/>
<path d="M41.2252 106.595L43.8623 109.753L38.8802 115.395L36.1849 112.302L41.2252 106.595Z" fill="#EC5242" stroke="#EC5242" stroke-width="0.260604"/>
<path d="M78.7809 142.664L81.9577 138.91L76.2924 133.257L73.3545 137.25L78.7809 142.664Z" fill="black"/>
<path d="M85.6553 149.523L91.5249 155.379L94.4627 151.387L88.8321 145.768L85.6553 149.523Z" fill="black"/>
<path d="M90.9807 133.035L93.6178 136.193L88.6355 141.834L85.9404 138.742L90.9807 133.035Z" fill="#EC5242" stroke="#EC5242" stroke-width="0.260604"/>
<path d="M78.9187 146.254L81.5557 149.412L76.5734 155.053L73.8783 151.961L78.9187 146.254Z" fill="#EC5242" stroke="#EC5242" stroke-width="0.260604"/>
<path d="M53.1496 142.664L56.3264 138.91L50.661 133.257L47.723 137.25L53.1496 142.664Z" fill="black"/>
<path d="M60.024 149.523L65.8932 155.379L68.8313 151.387L63.2006 145.768L60.024 149.523Z" fill="black"/>
<path d="M65.3491 133.035L67.9861 136.193L63.004 141.834L60.3088 138.742L65.3491 133.035Z" fill="#EC5242" stroke="#EC5242" stroke-width="0.260604"/>
<path d="M53.2871 146.254L55.9241 149.412L50.942 155.053L48.2468 151.961L53.2871 146.254Z" fill="#EC5242" stroke="#EC5242" stroke-width="0.260604"/>
<path d="M78.7809 116.225L81.9577 112.471L76.2924 106.818L73.3545 110.811L78.7809 116.225Z" fill="black"/>
<path d="M85.6553 123.083L91.5249 128.94L94.4627 124.947L88.8321 119.329L85.6553 123.083Z" fill="black"/>
<path d="M90.9807 106.595L93.6178 109.753L88.6355 115.395L85.9404 112.302L90.9807 106.595Z" fill="#EC5242" stroke="#EC5242" stroke-width="0.260604"/>
<path d="M78.9187 119.815L81.5557 122.973L76.5734 128.614L73.8783 125.522L78.9187 119.815Z" fill="#EC5242" stroke="#EC5242" stroke-width="0.260604"/>
<path d="M53.1496 116.225L56.3264 112.471L50.661 106.818L47.723 110.811L53.1496 116.225Z" fill="black"/>
<path d="M60.024 123.083L65.8932 128.94L68.8313 124.947L63.2006 119.329L60.024 123.083Z" fill="black"/>
<path d="M65.3491 106.595L67.9861 109.753L63.004 115.395L60.3088 112.302L65.3491 106.595Z" fill="#EC5242" stroke="#EC5242" stroke-width="0.260604"/>
<path d="M53.2871 119.815L55.9241 122.973L50.942 128.614L48.2468 125.522L53.2871 119.815Z" fill="#EC5242" stroke="#EC5242" stroke-width="0.260604"/>
</g>
</svg>
