<svg width="49" height="46" viewBox="0 0 49 46" fill="none" xmlns="http://www.w3.org/2000/svg">
<circle cx="25" cy="23" r="7" fill="white"/>
<path d="M45.5 23.5C45.5 33.3835 36.3833 41.5 25 41.5C13.6167 41.5 4.5 33.3835 4.5 23.5C4.5 13.6165 13.6167 5.5 25 5.5C36.3833 5.5 45.5 13.6165 45.5 23.5Z" stroke="white"/>
<circle cx="39" cy="10" r="3.5" stroke="white"/>
<circle cx="39" cy="10" r="2.5" fill="#132D67" stroke="#132D67"/>
<circle cx="11" cy="10" r="3.5" stroke="white"/>
<circle cx="11" cy="10" r="2.5" fill="#132D67" stroke="#132D67"/>
<circle cx="10" cy="36" r="3.5" stroke="white"/>
<circle cx="10" cy="36" r="2.5" fill="#132D67" stroke="#132D67"/>
<circle cx="39" cy="37" r="3.5" stroke="white"/>
<circle cx="39" cy="37" r="2.5" fill="#132D67" stroke="#132D67"/>
<circle cx="25" cy="42" r="3.5" stroke="white"/>
<circle cx="25" cy="42" r="2.5" fill="#132D67" stroke="#132D67"/>
<circle cx="25" cy="42" r="3.5" stroke="white"/>
<circle cx="25" cy="42" r="2.5" fill="#EC5242" stroke="#EC5242"/>
<circle cx="25" cy="4" r="3.5" stroke="white"/>
<circle cx="25" cy="4" r="2.5" fill="#EC5242" stroke="#EC5242"/>
<circle cx="4" cy="23" r="3.5" stroke="white"/>
<circle cx="4" cy="23" r="2.5" fill="#EC5242" stroke="#EC5242"/>
<circle cx="45" cy="24" r="3.5" stroke="white"/>
<circle cx="45" cy="24" r="3" fill="#EC5242"/>
<line x1="13.3536" y1="12.6464" x2="20.3536" y2="19.6464" stroke="white"/>
<line x1="29.3536" y1="27.6464" x2="36.3536" y2="34.6464" stroke="white"/>
<line x1="31.0033" y1="23.5" x2="40.9026" y2="23.5657" stroke="white"/>
<line x1="8.00332" y1="23.5" x2="17.9026" y2="23.5657" stroke="white"/>
<line x1="12.6423" y1="34.8434" x2="20.6423" y2="26.6507" stroke="white"/>
<line x1="28.6423" y1="20.8434" x2="36.6423" y2="12.6507" stroke="white"/>
<line x1="24.5" y1="19.443" x2="24.6542" y2="7.9932" stroke="white"/>
<line x1="24.5" y1="38.443" x2="24.6542" y2="26.9932" stroke="white"/>
</svg>
