<svg width="349" height="112" viewBox="0 0 349 112" fill="none" xmlns="http://www.w3.org/2000/svg">
<circle cx="64" cy="10" r="6" fill="#1C284E"/>
<circle cx="37.5" cy="56.5" r="37.5" fill="#C4C4C4" fill-opacity="0.45"/>
<circle cx="37.5" cy="56.5" r="35" stroke="black" stroke-opacity="0.58" stroke-width="5"/>
<circle cx="34" cy="11" r="11" fill="#A4A4A4"/>
<circle cx="17" cy="21" r="15" fill="#F05133"/>
<path d="M27.1709 45.4312C29.179 45.4312 30.8844 45.9307 32.2871 46.9297C33.6999 47.9186 34.6737 49.3818 35.2085 51.3193L33.1802 51.7886C32.8169 50.3758 32.1307 49.2607 31.1216 48.4434C30.1125 47.6159 28.7703 47.2021 27.0952 47.2021C24.5825 47.2021 22.7762 48.0195 21.6763 49.6543C20.5864 51.2891 20.0415 53.6807 20.0415 56.8291C20.0415 58.1712 20.1071 59.3418 20.2383 60.3408C20.3796 61.3398 20.6167 62.243 20.9497 63.0503C21.2827 63.8576 21.7166 64.5186 22.2515 65.0332C22.7964 65.5378 23.4725 65.9263 24.2798 66.1987C25.0871 66.4611 26.0407 66.5923 27.1406 66.5923C30.279 66.5923 32.3628 65.1593 33.3921 62.2935L35.2842 62.8838C34.6787 64.7103 33.6494 66.0827 32.1963 67.001C30.7533 67.9193 29.0277 68.3784 27.0195 68.3784C23.8913 68.3784 21.5602 67.4652 20.0264 65.6387C18.4925 63.8021 17.7256 60.8656 17.7256 56.8291C17.7256 52.9339 18.548 50.063 20.1929 48.2163C21.8377 46.3595 24.1637 45.4312 27.1709 45.4312ZM49.1555 45.4312C51.1636 45.4312 52.869 45.9307 54.2717 46.9297C55.6844 47.9186 56.6582 49.3818 57.1931 51.3193L55.1647 51.7886C54.8015 50.3758 54.1153 49.2607 53.1062 48.4434C52.097 47.6159 50.7549 47.2021 49.0798 47.2021C46.5671 47.2021 44.7608 48.0195 43.6608 49.6543C42.571 51.2891 42.0261 53.6807 42.0261 56.8291C42.0261 58.1712 42.0917 59.3418 42.2229 60.3408C42.3641 61.3398 42.6013 62.243 42.9343 63.0503C43.2673 63.8576 43.7012 64.5186 44.236 65.0332C44.781 65.5378 45.4571 65.9263 46.2644 66.1987C47.0716 66.4611 48.0253 66.5923 49.1252 66.5923C52.2635 66.5923 54.3474 65.1593 55.3767 62.2935L57.2687 62.8838C56.6633 64.7103 55.634 66.0827 54.1809 67.001C52.7378 67.9193 51.0122 68.3784 49.0041 68.3784C45.8758 68.3784 43.5448 67.4652 42.0109 65.6387C40.4771 63.8021 39.7102 60.8656 39.7102 56.8291C39.7102 52.9339 40.5326 50.063 42.1774 48.2163C43.8223 46.3595 46.1483 45.4312 49.1555 45.4312Z" fill="black"/>
<path d="M32.2871 46.9297L31.1269 48.5587L31.1335 48.5635L31.1402 48.5682L32.2871 46.9297ZM35.2085 51.3193L35.6593 53.2679L37.6914 52.7978L37.1364 50.7872L35.2085 51.3193ZM33.1802 51.7886L31.2432 52.2867L31.7293 54.177L33.631 53.7371L33.1802 51.7886ZM31.1216 48.4434L29.8534 49.9899L29.8627 49.9975L31.1216 48.4434ZM21.6763 49.6543L20.0169 48.5378L20.0122 48.5449L21.6763 49.6543ZM20.2383 60.3408L18.2553 60.6012L18.2566 60.611L18.258 60.6209L20.2383 60.3408ZM22.2515 65.0332L20.8647 66.4743L20.8785 66.4877L20.8926 66.5007L22.2515 65.0332ZM24.2798 66.1987L23.6402 68.0937L23.6509 68.0973L23.6616 68.1008L24.2798 66.1987ZM33.3921 62.2935L33.9878 60.3842L32.1578 59.8133L31.5098 61.6174L33.3921 62.2935ZM35.2842 62.8838L37.1826 63.5131L37.8231 61.5809L35.8799 60.9746L35.2842 62.8838ZM32.1963 67.001L31.1279 65.3103L31.1225 65.3137L32.1963 67.001ZM20.0264 65.6387L18.4913 66.9207L18.4948 66.9249L20.0264 65.6387ZM20.1929 48.2163L21.6863 49.5466L21.6899 49.5425L20.1929 48.2163ZM27.1709 47.4312C28.8344 47.4312 30.1167 47.8393 31.1269 48.5587L33.4474 45.3006C31.6522 44.022 29.5237 43.4312 27.1709 43.4312V47.4312ZM31.1402 48.5682C32.1105 49.2474 32.848 50.2844 33.2806 51.8515L37.1364 50.7872C36.4993 48.4793 35.2892 46.5899 33.434 45.2912L31.1402 48.5682ZM34.7577 49.3708L32.7294 49.84L33.631 53.7371L35.6593 53.2679L34.7577 49.3708ZM35.1172 51.2905C34.6608 49.5158 33.7637 48.0097 32.3804 46.8892L29.8627 49.9975C30.4977 50.5118 30.973 51.2359 31.2432 52.2867L35.1172 51.2905ZM32.3897 46.8968C30.9319 45.7014 29.0993 45.2021 27.0952 45.2021V49.2021C28.4414 49.2021 29.293 49.5304 29.8534 49.9899L32.3897 46.8968ZM27.0952 45.2021C24.1228 45.2021 21.5903 46.1994 20.0169 48.5378L23.3356 50.7708C23.9621 49.8397 25.0423 49.2021 27.0952 49.2021V45.2021ZM20.0122 48.5449C18.6077 50.6516 18.0415 53.5031 18.0415 56.8291H22.0415C22.0415 53.8582 22.5651 51.9266 23.3404 50.7637L20.0122 48.5449ZM18.0415 56.8291C18.0415 58.2317 18.1098 59.4929 18.2553 60.6012L22.2213 60.0804C22.1044 59.1906 22.0415 58.1108 22.0415 56.8291H18.0415ZM18.258 60.6209C18.4192 61.7606 18.695 62.8292 19.1008 63.813L22.7986 62.2876C22.5384 61.6568 22.34 60.9191 22.2186 60.0608L18.258 60.6209ZM19.1008 63.813C19.5209 64.8314 20.0985 65.7371 20.8647 66.4743L23.6382 63.5921C23.3347 63.3 23.0445 62.8838 22.7986 62.2876L19.1008 63.813ZM20.8926 66.5007C21.6729 67.2231 22.6049 67.7443 23.6402 68.0937L24.9193 64.3037C24.3401 64.1082 23.9199 63.8524 23.6103 63.5657L20.8926 66.5007ZM23.6616 68.1008C24.7176 68.444 25.8894 68.5923 27.1406 68.5923V64.5923C26.192 64.5923 25.4566 64.4782 24.898 64.2967L23.6616 68.1008ZM27.1406 68.5923C29.0162 68.5923 30.7425 68.1613 32.1905 67.1655C33.6434 66.1664 34.6476 64.7146 35.2744 62.9695L31.5098 61.6174C31.1073 62.7382 30.5549 63.4358 29.924 63.8696C29.2882 64.3068 28.4034 64.5923 27.1406 64.5923V68.5923ZM32.7964 64.2027L34.6885 64.793L35.8799 60.9746L33.9878 60.3842L32.7964 64.2027ZM33.3858 62.2545C32.9074 63.6975 32.143 64.6688 31.1279 65.3103L33.2647 68.6917C35.1558 67.4966 36.45 65.723 37.1826 63.5131L33.3858 62.2545ZM31.1225 65.3137C30.0528 65.9944 28.7146 66.3784 27.0195 66.3784V70.3784C29.3407 70.3784 31.4537 69.8442 33.27 68.6883L31.1225 65.3137ZM27.0195 66.3784C24.2853 66.3784 22.6012 65.5947 21.5579 64.3525L18.4948 66.9249C20.5193 69.3356 23.4972 70.3784 27.0195 70.3784V66.3784ZM21.5614 64.3566C20.4744 63.0551 19.7256 60.6922 19.7256 56.8291H15.7256C15.7256 61.0389 16.5106 64.5491 18.4913 66.9207L21.5614 64.3566ZM19.7256 56.8291C19.7256 53.1557 20.5106 50.8665 21.6863 49.5466L18.6994 46.8861C16.5854 49.2595 15.7256 52.7121 15.7256 56.8291H19.7256ZM21.6899 49.5425C22.8755 48.2042 24.604 47.4312 27.1709 47.4312V43.4312C23.7235 43.4312 20.7999 44.5149 18.6958 46.8901L21.6899 49.5425ZM54.2717 46.9297L53.1114 48.5587L53.1181 48.5635L53.1248 48.5682L54.2717 46.9297ZM57.1931 51.3193L57.6438 53.2679L59.676 52.7978L59.121 50.7872L57.1931 51.3193ZM55.1647 51.7886L53.2278 52.2867L53.7139 54.177L55.6155 53.7371L55.1647 51.7886ZM53.1062 48.4434L51.838 49.9899L51.8473 49.9975L53.1062 48.4434ZM43.6608 49.6543L42.0015 48.5378L41.9967 48.5449L43.6608 49.6543ZM42.2229 60.3408L40.2399 60.6012L40.2412 60.611L40.2426 60.6209L42.2229 60.3408ZM44.236 65.0332L42.8493 66.4743L42.8631 66.4877L42.8772 66.5007L44.236 65.0332ZM46.2644 66.1987L45.6248 68.0937L45.6355 68.0973L45.6462 68.1008L46.2644 66.1987ZM55.3767 62.2935L55.9723 60.3842L54.1423 59.8133L53.4944 61.6174L55.3767 62.2935ZM57.2687 62.8838L59.1672 63.5131L59.8077 61.5809L57.8644 60.9746L57.2687 62.8838ZM54.1809 67.001L53.1124 65.3103L53.1071 65.3137L54.1809 67.001ZM42.0109 65.6387L40.4759 66.9207L40.4794 66.9249L42.0109 65.6387ZM42.1774 48.2163L43.6709 49.5466L43.6745 49.5425L42.1774 48.2163ZM49.1555 47.4312C50.8189 47.4312 52.1013 47.8393 53.1114 48.5587L55.4319 45.3006C53.6367 44.022 51.5083 43.4312 49.1555 43.4312V47.4312ZM53.1248 48.5682C54.0951 49.2474 54.8326 50.2844 55.2652 51.8515L59.121 50.7872C58.4839 48.4793 57.2738 46.5899 55.4186 45.2912L53.1248 48.5682ZM56.7423 49.3708L54.714 49.84L55.6155 53.7371L57.6438 53.2679L56.7423 49.3708ZM57.1017 51.2905C56.6454 49.5158 55.7483 48.0097 54.365 46.8892L51.8473 49.9975C52.4823 50.5118 52.9576 51.2359 53.2278 52.2867L57.1017 51.2905ZM54.3743 46.8968C52.9165 45.7014 51.0839 45.2021 49.0798 45.2021V49.2021C50.4259 49.2021 51.2776 49.5304 51.838 49.9899L54.3743 46.8968ZM49.0798 45.2021C46.1073 45.2021 43.5749 46.1994 42.0015 48.5378L45.3202 50.7708C45.9467 49.8397 47.0268 49.2021 49.0798 49.2021V45.2021ZM41.9967 48.5449C40.5923 50.6516 40.0261 53.5031 40.0261 56.8291H44.0261C44.0261 53.8582 44.5497 51.9266 45.3249 50.7637L41.9967 48.5449ZM40.0261 56.8291C40.0261 58.2317 40.0943 59.4929 40.2399 60.6012L44.2058 60.0804C44.089 59.1906 44.0261 58.1108 44.0261 56.8291H40.0261ZM40.2426 60.6209C40.4037 61.7606 40.6796 62.8292 41.0854 63.813L44.7832 62.2876C44.523 61.6568 44.3245 60.9191 44.2031 60.0608L40.2426 60.6209ZM41.0854 63.813C41.5055 64.8314 42.0831 65.7371 42.8493 66.4743L45.6228 63.5921C45.3193 63.3 45.0291 62.8838 44.7832 62.2876L41.0854 63.813ZM42.8772 66.5007C43.6574 67.2231 44.5895 67.7443 45.6248 68.0937L46.9039 64.3037C46.3246 64.1082 45.9045 63.8524 45.5949 63.5657L42.8772 66.5007ZM45.6462 68.1008C46.7021 68.444 47.874 68.5923 49.1252 68.5923V64.5923C48.1765 64.5923 47.4412 64.4782 46.8825 64.2967L45.6462 68.1008ZM49.1252 68.5923C51.0008 68.5923 52.727 68.1613 54.175 67.1655C55.628 66.1664 56.6322 64.7146 57.2589 62.9695L53.4944 61.6174C53.0918 62.7382 52.5395 63.4358 51.9086 63.8696C51.2728 64.3068 50.3879 64.5923 49.1252 64.5923V68.5923ZM54.781 64.2027L56.6731 64.793L57.8644 60.9746L55.9723 60.3842L54.781 64.2027ZM55.3703 62.2545C54.892 63.6975 54.1276 64.6688 53.1124 65.3103L55.2493 68.6917C57.1404 67.4966 58.4346 65.723 59.1672 63.5131L55.3703 62.2545ZM53.1071 65.3137C52.0374 65.9944 50.6992 66.3784 49.0041 66.3784V70.3784C51.3253 70.3784 53.4382 69.8442 55.2546 68.6883L53.1071 65.3137ZM49.0041 66.3784C46.2699 66.3784 44.5857 65.5947 43.5425 64.3525L40.4794 66.9249C42.5039 69.3356 45.4818 70.3784 49.0041 70.3784V66.3784ZM43.546 64.3566C42.459 63.0551 41.7102 60.6922 41.7102 56.8291H37.7102C37.7102 61.0389 38.4952 64.5491 40.4759 66.9207L43.546 64.3566ZM41.7102 56.8291C41.7102 53.1557 42.4952 50.8665 43.6709 49.5466L40.684 46.8861C38.57 49.2595 37.7102 52.7121 37.7102 56.8291H41.7102ZM43.6745 49.5425C44.8601 48.2042 46.5885 47.4312 49.1555 47.4312V43.4312C45.7081 43.4312 42.7845 44.5149 40.6804 46.8901L43.6745 49.5425Z" fill="black"/>
<path d="M94.7744 27.1509C97.4303 27.1509 99.6859 27.8115 101.541 29.1328C103.41 30.4408 104.697 32.376 105.405 34.9385L102.722 35.5591C102.242 33.6906 101.334 32.2158 99.9995 31.1348C98.6649 30.0404 96.8898 29.4932 94.6743 29.4932C91.3511 29.4932 88.9621 30.5742 87.5073 32.7363C86.0659 34.8984 85.3452 38.0615 85.3452 42.2256C85.3452 44.0007 85.432 45.5488 85.6055 46.8701C85.7923 48.1914 86.106 49.3859 86.5464 50.4536C86.9868 51.5213 87.5607 52.3955 88.2681 53.0762C88.9888 53.7435 89.883 54.2573 90.9507 54.6177C92.0184 54.9647 93.2796 55.1382 94.7344 55.1382C98.8851 55.1382 101.641 53.243 103.002 49.4526L105.505 50.2334C104.704 52.6491 103.343 54.4642 101.421 55.6787C99.5124 56.8932 97.2301 57.5005 94.5742 57.5005C90.4368 57.5005 87.3538 56.2926 85.3252 53.877C83.2965 51.4479 82.2822 47.5641 82.2822 42.2256C82.2822 37.0739 83.37 33.2769 85.5454 30.8345C87.7209 28.3787 90.7972 27.1509 94.7744 27.1509ZM123.851 27.1509C126.507 27.1509 128.762 27.8115 130.617 29.1328C132.486 30.4408 133.774 32.376 134.481 34.9385L131.799 35.5591C131.318 33.6906 130.411 32.2158 129.076 31.1348C127.741 30.0404 125.966 29.4932 123.751 29.4932C120.427 29.4932 118.038 30.5742 116.584 32.7363C115.142 34.8984 114.422 38.0615 114.422 42.2256C114.422 44.0007 114.508 45.5488 114.682 46.8701C114.869 48.1914 115.182 49.3859 115.623 50.4536C116.063 51.5213 116.637 52.3955 117.344 53.0762C118.065 53.7435 118.959 54.2573 120.027 54.6177C121.095 54.9647 122.356 55.1382 123.811 55.1382C127.961 55.1382 130.717 53.243 132.079 49.4526L134.581 50.2334C133.78 52.6491 132.419 54.4642 130.497 55.6787C128.589 56.8932 126.307 57.5005 123.651 57.5005C119.513 57.5005 116.43 56.2926 114.402 53.877C112.373 51.4479 111.359 47.5641 111.359 42.2256C111.359 37.0739 112.446 33.2769 114.622 30.8345C116.797 28.3787 119.874 27.1509 123.851 27.1509ZM163.926 27.1509C166.235 27.1509 168.277 27.7314 170.052 28.8926C171.827 30.0404 173.128 31.7354 173.956 33.9775L171.513 35.0586C170.139 31.3483 167.603 29.4932 163.906 29.4932C160.636 29.4932 158.26 30.5742 156.779 32.7363C155.297 34.8984 154.557 38.175 154.557 42.5659C154.557 44.6346 154.71 46.4297 155.017 47.9512C155.338 49.4593 155.845 50.7606 156.539 51.855C157.233 52.9494 158.167 53.7702 159.341 54.3174C160.516 54.8646 161.937 55.1382 163.606 55.1382C164.473 55.1382 165.341 54.998 166.208 54.7178C167.089 54.4242 167.916 54.0037 168.691 53.4565C169.465 52.896 170.092 52.1553 170.572 51.2344C171.066 50.3001 171.313 49.2591 171.313 48.1113V43.707H163.866V41.2046H174.196V45.3687L173.996 57H172.134L171.493 53.1763C170.733 54.4442 169.611 55.4785 168.13 56.2793C166.662 57.0801 165.034 57.4805 163.245 57.4805C155.411 57.4805 151.494 52.5023 151.494 42.5459C151.494 39.8499 151.787 37.5076 152.375 35.519C152.962 33.5304 153.803 31.9289 154.897 30.7144C156.005 29.4998 157.306 28.6056 158.801 28.0317C160.296 27.4445 162.004 27.1509 163.926 27.1509ZM181.451 57V27.4912H184.294V57H181.451ZM199.897 36.0996C202.526 36.0996 204.648 37.0072 206.263 38.8223C207.878 40.624 208.686 43.2599 208.686 46.73C208.686 50.1733 207.891 52.8293 206.303 54.6978C204.728 56.5529 202.586 57.4805 199.877 57.4805C197.168 57.4805 195.019 56.5596 193.431 54.7178C191.856 52.8626 191.068 50.2201 191.068 46.79C191.068 43.2933 191.876 40.6374 193.491 38.8223C195.106 37.0072 197.241 36.0996 199.897 36.0996ZM199.877 38.1816C198.756 38.1816 197.795 38.4285 196.994 38.9224C196.193 39.4028 195.579 40.0701 195.152 40.9243C194.739 41.7785 194.438 42.6794 194.251 43.627C194.065 44.5745 193.971 45.6089 193.971 46.73C193.971 47.6242 194.025 48.465 194.131 49.2524C194.238 50.0399 194.432 50.8206 194.712 51.5947C194.992 52.3555 195.346 53.0094 195.773 53.5566C196.213 54.1038 196.781 54.5443 197.475 54.8779C198.182 55.2116 198.989 55.3784 199.897 55.3784C200.791 55.3784 201.585 55.2116 202.279 54.8779C202.987 54.5443 203.554 54.1105 203.981 53.5767C204.421 53.0295 204.782 52.3755 205.062 51.6147C205.342 50.854 205.536 50.0799 205.643 49.2925C205.749 48.505 205.803 47.6642 205.803 46.77C205.803 45.8892 205.743 45.055 205.623 44.2676C205.516 43.4801 205.322 42.7061 205.042 41.9453C204.762 41.1846 204.401 40.5373 203.961 40.0034C203.534 39.4562 202.967 39.0158 202.259 38.6821C201.565 38.3485 200.771 38.1816 199.877 38.1816ZM223.848 38.1816C225.517 38.1816 226.858 38.9824 227.872 40.584C228.887 42.1722 229.394 44.1742 229.394 46.5898C229.394 49.2858 228.9 51.4412 227.912 53.0562C226.938 54.6577 225.597 55.4585 223.888 55.4585C219.858 55.4585 217.842 52.4889 217.842 46.5498C217.842 45.2952 217.969 44.1742 218.223 43.1865C218.476 42.1855 218.803 41.3848 219.204 40.7842C219.604 40.1702 220.071 39.6631 220.605 39.2627C221.152 38.8623 221.686 38.582 222.207 38.4219C222.741 38.2617 223.288 38.1816 223.848 38.1816ZM215.08 57H217.342L217.722 53.7769C218.216 54.9647 219.044 55.8789 220.205 56.5195C221.379 57.1602 222.707 57.4805 224.189 57.4805C226.765 57.4805 228.753 56.5262 230.154 54.6177C231.569 52.6958 232.277 50.14 232.277 46.9502C232.277 43.5602 231.576 40.9043 230.175 38.9824C228.786 37.0605 226.851 36.0996 224.369 36.0996C222.927 36.0996 221.64 36.4066 220.505 37.0205C219.371 37.6211 218.516 38.5086 217.943 39.6831V34.9385V27.1108H215.08V57ZM251.143 52.6157C248.834 54.5643 246.619 55.5386 244.496 55.5386C241.961 55.5386 240.693 54.2573 240.693 51.6948C240.693 51.201 240.766 50.7673 240.913 50.3936C241.06 50.0199 241.307 49.6929 241.654 49.4126C242.014 49.119 242.401 48.8721 242.815 48.6719C243.229 48.4583 243.796 48.2648 244.517 48.0913C245.237 47.9045 245.931 47.751 246.599 47.6309C247.266 47.4974 248.127 47.3506 249.181 47.1904L251.143 46.8901V52.6157ZM251.643 57H253.986V43.5269C253.986 38.5754 251.477 36.0996 246.458 36.0996C243.028 36.0996 240.493 37.1406 238.851 39.2227C239.985 40.2904 240.553 40.8309 240.553 40.8442C241.22 40.0168 242.054 39.3828 243.055 38.9424C244.069 38.502 245.15 38.2817 246.298 38.2817C248.06 38.2817 249.308 38.7021 250.042 39.543C250.776 40.3704 251.143 41.8986 251.143 44.1274V44.9683L249.161 45.2686C248 45.4421 247.132 45.5822 246.559 45.689C245.985 45.7824 245.224 45.9359 244.276 46.1494C243.329 46.3496 242.615 46.5498 242.134 46.75C241.667 46.9368 241.12 47.2038 240.493 47.5508C239.865 47.8844 239.405 48.2581 239.111 48.6719C238.818 49.0723 238.557 49.5661 238.33 50.1533C238.117 50.7272 238.01 51.3745 238.01 52.0952C238.01 53.8035 238.577 55.1315 239.712 56.0791C240.86 57.0133 242.288 57.4805 243.996 57.4805C246.585 57.4805 249.021 56.5462 251.303 54.6777L251.643 57ZM261.361 57V27.4912H264.204V57H261.361Z" fill="black"/>
<path d="M101.541 29.1328L100.961 29.9474L100.968 29.952L101.541 29.1328ZM105.405 34.9385L105.63 35.9127L106.646 35.6777L106.369 34.6724L105.405 34.9385ZM102.722 35.5591L101.754 35.8081L101.997 36.7533L102.948 36.5334L102.722 35.5591ZM99.9995 31.1348L99.3654 31.908L99.3701 31.9118L99.9995 31.1348ZM87.5073 32.7363L86.6776 32.1781L86.6753 32.1816L87.5073 32.7363ZM85.6055 46.8701L84.6139 47.0003L84.6153 47.0101L85.6055 46.8701ZM88.2681 53.0762L87.5747 53.7967L87.5816 53.8034L87.5887 53.8099L88.2681 53.0762ZM90.9507 54.6177L90.6309 55.5652L90.6416 55.5687L90.9507 54.6177ZM103.002 49.4526L103.3 48.498L102.385 48.2125L102.061 49.1146L103.002 49.4526ZM105.505 50.2334L106.454 50.5481L106.774 49.5819L105.803 49.2788L105.505 50.2334ZM101.421 55.6787L100.887 54.8334L100.884 54.835L101.421 55.6787ZM85.3252 53.877L84.5577 54.518L84.5594 54.52L85.3252 53.877ZM85.5454 30.8345L86.2921 31.4996L86.2939 31.4976L85.5454 30.8345ZM94.7744 28.1509C97.258 28.1509 99.302 28.7658 100.961 29.9473L102.121 28.3183C100.07 26.8572 97.6027 26.1509 94.7744 26.1509V28.1509ZM100.968 29.952C102.615 31.1051 103.785 32.8273 104.441 35.2046L106.369 34.6724C105.61 31.9247 104.204 29.7764 102.114 28.3136L100.968 29.952ZM105.179 33.9642L102.497 34.5848L102.948 36.5334L105.63 35.9127L105.179 33.9642ZM103.691 35.31C103.164 33.2606 102.151 31.5903 100.629 30.3577L99.3701 31.9118C100.518 32.8414 101.32 34.1206 101.754 35.8081L103.691 35.31ZM100.634 30.3615C99.0746 29.0831 97.0543 28.4932 94.6743 28.4932V30.4932C96.7253 30.4932 98.2552 30.9976 99.3654 31.908L100.634 30.3615ZM94.6743 28.4932C91.1212 28.4932 88.3691 29.6641 86.6776 32.1781L88.337 33.2946C89.555 31.4843 91.581 30.4932 94.6743 30.4932V28.4932ZM86.6753 32.1816C85.0766 34.5797 84.3452 37.9728 84.3452 42.2256H86.3452C86.3452 38.1503 87.0553 35.2172 88.3394 33.291L86.6753 32.1816ZM84.3452 42.2256C84.3452 44.0309 84.4333 45.6244 84.614 47.0003L86.597 46.7399C86.4306 45.4733 86.3452 43.9704 86.3452 42.2256H84.3452ZM84.6153 47.0101C84.8121 48.4018 85.1451 49.679 85.6219 50.8349L87.4708 50.0723C87.0668 49.0928 86.7725 47.981 86.5956 46.7301L84.6153 47.0101ZM85.6219 50.8349C86.1059 52.0082 86.7517 53.0048 87.5747 53.7967L88.9614 52.3556C88.3698 51.7862 87.8677 51.0344 87.4708 50.0723L85.6219 50.8349ZM87.5887 53.8099C88.427 54.5862 89.4492 55.1663 90.6309 55.5652L91.2705 53.6702C90.3168 53.3483 89.5505 52.9008 88.9475 52.3424L87.5887 53.8099ZM90.6416 55.5687C91.8336 55.9561 93.204 56.1382 94.7344 56.1382V54.1382C93.3553 54.1382 92.2031 53.9732 91.2598 53.6666L90.6416 55.5687ZM94.7344 56.1382C96.9629 56.1382 98.9 55.628 100.481 54.5408C102.065 53.4519 103.207 51.8419 103.944 49.7907L102.061 49.1146C101.437 50.8537 100.52 52.0865 99.3478 52.8928C98.1729 53.7008 96.6565 54.1382 94.7344 54.1382V56.1382ZM102.705 50.4073L105.207 51.188L105.803 49.2788L103.3 48.498L102.705 50.4073ZM104.556 49.9187C103.818 52.1427 102.59 53.7572 100.887 54.8334L101.955 56.5241C104.096 55.1712 105.59 53.1555 106.454 50.5481L104.556 49.9187ZM100.884 54.835C99.1622 55.9308 97.0736 56.5005 94.5742 56.5005V58.5005C97.3867 58.5005 99.8626 57.8557 101.958 56.5224L100.884 54.835ZM94.5742 56.5005C90.6339 56.5005 87.8743 55.3574 86.091 53.2339L84.5594 54.52C86.8334 57.2279 90.2398 58.5005 94.5742 58.5005V56.5005ZM86.0927 53.2359C84.2875 51.0744 83.2822 47.4775 83.2822 42.2256H81.2822C81.2822 47.6508 82.3056 51.8214 84.5577 54.518L86.0927 53.2359ZM83.2822 42.2256C83.2822 37.1848 84.3513 33.6786 86.2921 31.4996L84.7987 30.1693C82.3886 32.8751 81.2822 36.963 81.2822 42.2256H83.2822ZM86.2939 31.4976C88.2398 29.3011 91.0173 28.1509 94.7744 28.1509V26.1509C90.5771 26.1509 87.202 27.4564 84.7969 30.1714L86.2939 31.4976ZM130.617 29.1328L130.037 29.9474L130.044 29.952L130.617 29.1328ZM134.481 34.9385L134.707 35.9127L135.723 35.6777L135.445 34.6724L134.481 34.9385ZM131.799 35.5591L130.83 35.8081L131.073 36.7533L132.024 36.5334L131.799 35.5591ZM129.076 31.1348L128.442 31.908L128.446 31.9118L129.076 31.1348ZM116.584 32.7363L115.754 32.1781L115.752 32.1816L116.584 32.7363ZM114.682 46.8701L113.69 47.0003L113.692 47.0101L114.682 46.8701ZM117.344 53.0762L116.651 53.7967L116.658 53.8034L116.665 53.8099L117.344 53.0762ZM120.027 54.6177L119.707 55.5652L119.718 55.5687L120.027 54.6177ZM132.079 49.4526L132.377 48.498L131.462 48.2125L131.138 49.1146L132.079 49.4526ZM134.581 50.2334L135.53 50.5481L135.851 49.5819L134.879 49.2788L134.581 50.2334ZM130.497 55.6787L129.963 54.8334L129.96 54.835L130.497 55.6787ZM114.402 53.877L113.634 54.518L113.636 54.52L114.402 53.877ZM114.622 30.8345L115.369 31.4996L115.37 31.4976L114.622 30.8345ZM123.851 28.1509C126.334 28.1509 128.378 28.7658 130.037 29.9473L131.198 28.3183C129.146 26.8572 126.679 26.1509 123.851 26.1509V28.1509ZM130.044 29.952C131.691 31.1051 132.861 32.8273 133.517 35.2046L135.445 34.6724C134.687 31.9247 133.281 29.7764 131.191 28.3136L130.044 29.952ZM134.256 33.9642L131.573 34.5848L132.024 36.5334L134.707 35.9127L134.256 33.9642ZM132.767 35.31C132.24 33.2606 131.227 31.5903 129.705 30.3577L128.446 31.9118C129.594 32.8414 130.396 34.1206 130.83 35.8081L132.767 35.31ZM129.71 30.3615C128.151 29.0831 126.131 28.4932 123.751 28.4932V30.4932C125.802 30.4932 127.332 30.9976 128.442 31.908L129.71 30.3615ZM123.751 28.4932C120.198 28.4932 117.445 29.6641 115.754 32.1781L117.413 33.2946C118.631 31.4843 120.657 30.4932 123.751 30.4932V28.4932ZM115.752 32.1816C114.153 34.5797 113.422 37.9728 113.422 42.2256H115.422C115.422 38.1503 116.132 35.2172 117.416 33.291L115.752 32.1816ZM113.422 42.2256C113.422 44.0309 113.51 45.6244 113.69 47.0003L115.673 46.7399C115.507 45.4733 115.422 43.9704 115.422 42.2256H113.422ZM113.692 47.0101C113.888 48.4018 114.221 49.679 114.698 50.8349L116.547 50.0723C116.143 49.0928 115.849 47.981 115.672 46.7301L113.692 47.0101ZM114.698 50.8349C115.182 52.0082 115.828 53.0048 116.651 53.7967L118.038 52.3556C117.446 51.7862 116.944 51.0344 116.547 50.0723L114.698 50.8349ZM116.665 53.8099C117.503 54.5862 118.526 55.1663 119.707 55.5652L120.347 53.6702C119.393 53.3483 118.627 52.9008 118.024 52.3424L116.665 53.8099ZM119.718 55.5687C120.91 55.9561 122.28 56.1382 123.811 56.1382V54.1382C122.432 54.1382 121.28 53.9732 120.336 53.6666L119.718 55.5687ZM123.811 56.1382C126.039 56.1382 127.976 55.628 129.557 54.5408C131.141 53.4519 132.283 51.8419 133.02 49.7907L131.138 49.1146C130.513 50.8537 129.597 52.0865 128.424 52.8928C127.249 53.7008 125.733 54.1382 123.811 54.1382V56.1382ZM131.781 50.4073L134.283 51.188L134.879 49.2788L132.377 48.498L131.781 50.4073ZM133.632 49.9187C132.895 52.1427 131.666 53.7572 129.963 54.8334L131.031 56.5241C133.172 55.1712 134.666 53.1555 135.53 50.5481L133.632 49.9187ZM129.96 54.835C128.239 55.9308 126.15 56.5005 123.651 56.5005V58.5005C126.463 58.5005 128.939 57.8557 131.034 56.5224L129.96 54.835ZM123.651 56.5005C119.71 56.5005 116.951 55.3574 115.167 53.2339L113.636 54.52C115.91 57.2279 119.316 58.5005 123.651 58.5005V56.5005ZM115.169 53.2359C113.364 51.0744 112.359 47.4775 112.359 42.2256H110.359C110.359 47.6508 111.382 51.8214 113.634 54.518L115.169 53.2359ZM112.359 42.2256C112.359 37.1848 113.428 33.6786 115.369 31.4996L113.875 30.1693C111.465 32.8751 110.359 36.963 110.359 42.2256H112.359ZM115.37 31.4976C117.316 29.3011 120.094 28.1509 123.851 28.1509V26.1509C119.653 26.1509 116.278 27.4564 113.873 30.1714L115.37 31.4976ZM170.052 28.8926L169.504 29.7294L169.509 29.7323L170.052 28.8926ZM173.956 33.9775L174.36 34.892L175.219 34.512L174.894 33.6313L173.956 33.9775ZM171.513 35.0586L170.576 35.406L170.945 36.4036L171.918 35.973L171.513 35.0586ZM155.017 47.9512L154.037 48.149L154.039 48.1589L155.017 47.9512ZM156.539 51.855L155.694 52.3905L156.539 51.855ZM166.208 54.7178L166.516 55.6694L166.524 55.6665L166.208 54.7178ZM168.691 53.4565L169.268 54.2732L169.277 54.2665L168.691 53.4565ZM170.572 51.2344L169.688 50.7671L169.686 50.7718L170.572 51.2344ZM171.313 43.707H172.313V42.707H171.313V43.707ZM163.866 43.707H162.866V44.707H163.866V43.707ZM163.866 41.2046V40.2046H162.866V41.2046H163.866ZM174.196 41.2046H175.196V40.2046H174.196V41.2046ZM174.196 45.3687L175.196 45.3859L175.196 45.3773V45.3687H174.196ZM173.996 57V58H174.979L174.996 57.0172L173.996 57ZM172.134 57L171.148 57.1652L171.287 58H172.134V57ZM171.493 53.1763L172.48 53.011L172.031 50.3359L170.636 52.6618L171.493 53.1763ZM168.13 56.2793L167.654 55.3996L167.651 55.4014L168.13 56.2793ZM152.375 35.519L151.416 35.2358L152.375 35.519ZM154.897 30.7144L154.158 30.0405L154.154 30.0449L154.897 30.7144ZM158.801 28.0317L159.159 28.9653L159.167 28.9625L158.801 28.0317ZM163.926 28.1509C166.058 28.1509 167.907 28.6842 169.504 29.7294L170.599 28.0557C168.647 26.7787 166.411 26.1509 163.926 26.1509V28.1509ZM169.509 29.7323C171.079 30.7476 172.255 32.2567 173.018 34.3238L174.894 33.6313C174.002 31.214 172.575 29.3332 170.595 28.0528L169.509 29.7323ZM173.551 33.0631L171.109 34.1442L171.918 35.973L174.36 34.892L173.551 33.0631ZM172.451 34.7112C171.713 32.7197 170.634 31.1476 169.171 30.0774C167.703 29.0035 165.928 28.4932 163.906 28.4932V30.4932C165.581 30.4932 166.922 30.9104 167.99 31.6916C169.063 32.4766 169.939 33.6872 170.576 35.406L172.451 34.7112ZM163.906 28.4932C160.398 28.4932 157.669 29.6688 155.954 32.1711L157.604 33.3016C158.852 31.4797 160.874 30.4932 163.906 30.4932V28.4932ZM155.954 32.1711C154.305 34.5781 153.557 38.0957 153.557 42.5659H155.557C155.557 38.2542 156.29 35.2188 157.604 33.3016L155.954 32.1711ZM153.557 42.5659C153.557 44.6806 153.713 46.545 154.037 48.1489L155.997 47.7534C155.707 46.3144 155.557 44.5886 155.557 42.5659H153.557ZM154.039 48.1589C154.379 49.7619 154.926 51.1786 155.694 52.3905L157.383 51.3194C156.764 50.3425 156.296 49.1568 155.995 47.7434L154.039 48.1589ZM155.694 52.3905C156.491 53.6463 157.571 54.5959 158.919 55.2238L159.764 53.4109C158.763 52.9445 157.975 52.2524 157.383 51.3194L155.694 52.3905ZM158.919 55.2238C160.258 55.8477 161.832 56.1382 163.606 56.1382V54.1382C162.043 54.1382 160.774 53.8815 159.764 53.4109L158.919 55.2238ZM163.606 56.1382C164.583 56.1382 165.554 55.9801 166.516 55.6693L165.901 53.7662C165.127 54.016 164.363 54.1382 163.606 54.1382V56.1382ZM166.524 55.6665C167.5 55.3412 168.415 54.8757 169.268 54.2731L168.113 52.64C167.418 53.1318 166.678 53.5071 165.892 53.7691L166.524 55.6665ZM169.277 54.2665C170.187 53.6073 170.913 52.7432 171.459 51.6969L169.686 50.7718C169.271 51.5674 168.742 52.1847 168.104 52.6466L169.277 54.2665ZM171.456 51.7017C172.033 50.6112 172.313 49.4076 172.313 48.1113H170.313C170.313 49.1106 170.1 49.989 169.688 50.7671L171.456 51.7017ZM172.313 48.1113V43.707H170.313V48.1113H172.313ZM171.313 42.707H163.866V44.707H171.313V42.707ZM164.866 43.707V41.2046H162.866V43.707H164.866ZM163.866 42.2046H174.196V40.2046H163.866V42.2046ZM173.196 41.2046V45.3687H175.196V41.2046H173.196ZM173.196 45.3514L172.996 56.9828L174.996 57.0172L175.196 45.3859L173.196 45.3514ZM173.996 56H172.134V58H173.996V56ZM173.12 56.8348L172.48 53.011L170.507 53.3415L171.148 57.1652L173.12 56.8348ZM170.636 52.6618C169.98 53.7555 169 54.672 167.654 55.3996L168.605 57.159C170.222 56.285 171.485 55.1329 172.351 53.6908L170.636 52.6618ZM167.651 55.4014C166.34 56.1165 164.878 56.4805 163.245 56.4805V58.4805C165.189 58.4805 166.984 58.0436 168.609 57.1572L167.651 55.4014ZM163.245 56.4805C159.555 56.4805 156.942 55.32 155.217 53.1284C153.457 50.8913 152.494 47.4201 152.494 42.5459H150.494C150.494 47.6281 151.489 51.6242 153.646 54.3652C155.838 57.1519 159.102 58.4805 163.245 58.4805V56.4805ZM152.494 42.5459C152.494 39.9187 152.78 37.6761 153.334 35.8023L151.416 35.2358C150.794 37.3392 150.494 39.7811 150.494 42.5459H152.494ZM153.334 35.8023C153.89 33.9196 154.669 32.4617 155.64 31.3838L154.154 30.0449C152.937 31.3961 152.034 33.1412 151.416 35.2358L153.334 35.8023ZM155.636 31.3882C156.642 30.2855 157.814 29.4819 159.159 28.9653L158.442 27.0982C156.798 27.7294 155.368 28.7141 154.158 30.0405L155.636 31.3882ZM159.167 28.9625C160.524 28.429 162.105 28.1509 163.926 28.1509V26.1509C161.903 26.1509 160.067 26.46 158.435 27.101L159.167 28.9625ZM181.451 57H180.451V58H181.451V57ZM181.451 27.4912V26.4912H180.451V27.4912H181.451ZM184.294 27.4912H185.294V26.4912H184.294V27.4912ZM184.294 57V58H185.294V57H184.294ZM182.451 57V27.4912H180.451V57H182.451ZM181.451 28.4912H184.294V26.4912H181.451V28.4912ZM183.294 27.4912V57H185.294V27.4912H183.294ZM184.294 56H181.451V58H184.294V56ZM206.263 38.8223L205.516 39.487L205.519 39.4897L206.263 38.8223ZM206.303 54.6978L205.541 54.0501L205.541 54.0506L206.303 54.6978ZM193.431 54.7178L192.668 55.365L192.673 55.3708L193.431 54.7178ZM193.491 38.8223L192.744 38.1576L193.491 38.8223ZM196.994 38.9224L197.509 39.7799L197.519 39.7735L196.994 38.9224ZM195.152 40.9243L194.258 40.4771L194.252 40.4884L195.152 40.9243ZM194.712 51.5947L193.772 51.9352L193.774 51.9404L194.712 51.5947ZM195.773 53.5566L194.985 54.1719L194.989 54.1778L194.994 54.1837L195.773 53.5566ZM197.475 54.8779L197.041 55.7792L197.048 55.7824L197.475 54.8779ZM202.279 54.8779L201.853 53.9735L201.846 53.9767L202.279 54.8779ZM203.981 53.5767L203.202 52.9496L203.2 52.952L203.981 53.5767ZM205.643 49.2925L204.652 49.1581L205.643 49.2925ZM205.623 44.2676L204.632 44.4019L204.633 44.4102L204.634 44.4184L205.623 44.2676ZM203.961 40.0034L203.173 40.6187L203.181 40.6294L203.19 40.6398L203.961 40.0034ZM202.259 38.6821L201.826 39.5834L201.833 39.5866L202.259 38.6821ZM199.897 37.0996C202.267 37.0996 204.108 37.9041 205.516 39.487L207.01 38.1576C205.189 36.1102 202.785 35.0996 199.897 35.0996V37.0996ZM205.519 39.4897C206.91 41.0421 207.686 43.4004 207.686 46.73H209.686C209.686 43.1194 208.846 40.2059 207.008 38.1548L205.519 39.4897ZM207.686 46.73C207.686 50.031 206.924 52.4236 205.541 54.0501L207.065 55.3454C208.859 53.235 209.686 50.3157 209.686 46.73H207.686ZM205.541 54.0506C204.179 55.6549 202.33 56.4805 199.877 56.4805V58.4805C202.842 58.4805 205.278 57.4509 207.066 55.3449L205.541 54.0506ZM199.877 56.4805C197.421 56.4805 195.563 55.6595 194.188 54.0647L192.673 55.3708C194.475 57.4596 196.914 58.4805 199.877 58.4805V56.4805ZM194.193 54.0706C192.824 52.4579 192.068 50.079 192.068 46.79H190.068C190.068 50.3611 190.888 53.2673 192.668 55.3649L194.193 54.0706ZM192.068 46.79C192.068 43.4321 192.845 41.0527 194.238 39.487L192.744 38.1576C190.907 40.2221 190.068 43.1545 190.068 46.79H192.068ZM194.238 39.487C195.644 37.9065 197.497 37.0996 199.897 37.0996V35.0996C196.985 35.0996 194.567 36.1078 192.744 38.1576L194.238 39.487ZM199.877 37.1816C198.606 37.1816 197.456 37.4628 196.469 38.0712L197.519 39.7735C198.134 39.3943 198.905 39.1816 199.877 39.1816V37.1816ZM196.48 38.0649C195.512 38.6455 194.768 39.4569 194.258 40.4771L196.047 41.3715C196.391 40.6834 196.875 40.1602 197.509 39.7799L196.48 38.0649ZM194.252 40.4884C193.801 41.4209 193.473 42.4034 193.27 43.4335L195.233 43.8204C195.403 42.9553 195.677 42.136 196.052 41.3602L194.252 40.4884ZM193.27 43.4335C193.069 44.454 192.971 45.554 192.971 46.73H194.971C194.971 45.6637 195.06 44.6951 195.233 43.8204L193.27 43.4335ZM192.971 46.73C192.971 47.6637 193.027 48.5497 193.14 49.3868L195.122 49.1181C195.022 48.3803 194.971 47.5847 194.971 46.73H192.971ZM193.14 49.3868C193.257 50.247 193.468 51.0968 193.772 51.9352L195.652 51.2543C195.395 50.5445 195.219 49.8327 195.122 49.1181L193.14 49.3868ZM193.774 51.9404C194.084 52.7823 194.484 53.5308 194.985 54.1719L196.561 52.9414C196.207 52.4881 195.901 51.9286 195.65 51.249L193.774 51.9404ZM194.994 54.1837C195.536 54.8577 196.226 55.3873 197.041 55.7792L197.908 53.9767C197.335 53.7013 196.89 53.35 196.552 52.9296L194.994 54.1837ZM197.048 55.7824C197.909 56.1883 198.865 56.3784 199.897 56.3784V54.3784C199.113 54.3784 198.455 54.2349 197.901 53.9735L197.048 55.7824ZM199.897 56.3784C200.917 56.3784 201.863 56.1875 202.713 55.7792L201.846 53.9767C201.307 54.2356 200.665 54.3784 199.897 54.3784V56.3784ZM202.706 55.7824C203.531 55.3931 204.227 54.8703 204.762 54.2014L203.2 52.952C202.881 53.3507 202.442 53.6955 201.853 53.9735L202.706 55.7824ZM204.76 54.2037C205.278 53.5601 205.688 52.8076 206 51.9605L204.124 51.269C203.875 51.9434 203.565 52.4989 203.202 52.9496L204.76 54.2037ZM206 51.9605C206.305 51.1328 206.517 50.2879 206.634 49.4268L204.652 49.1581C204.555 49.8719 204.379 50.5752 204.124 51.269L206 51.9605ZM206.634 49.4268C206.747 48.5898 206.803 47.7037 206.803 46.77H204.803C204.803 47.6248 204.752 48.4203 204.652 49.1581L206.634 49.4268ZM206.803 46.77C206.803 45.8439 206.74 44.959 206.611 44.1168L204.634 44.4184C204.746 45.151 204.803 45.9344 204.803 46.77H206.803ZM206.613 44.1332C206.497 43.2722 206.285 42.4273 205.98 41.5996L204.104 42.291C204.359 42.9848 204.535 43.6881 204.632 44.4019L206.613 44.1332ZM205.98 41.5996C205.668 40.751 205.255 40.0011 204.732 39.367L203.19 40.6398C203.547 41.0734 203.856 41.6182 204.104 42.291L205.98 41.5996ZM204.749 39.3881C204.214 38.7027 203.517 38.1696 202.686 37.7777L201.833 39.5866C202.417 39.862 202.853 40.2097 203.173 40.6187L204.749 39.3881ZM202.693 37.7809C201.843 37.3725 200.897 37.1816 199.877 37.1816V39.1816C200.645 39.1816 201.287 39.3244 201.826 39.5834L202.693 37.7809ZM227.872 40.584L227.027 41.119L227.029 41.1222L227.872 40.584ZM227.912 53.0562L227.059 52.5344L227.058 52.5364L227.912 53.0562ZM218.223 43.1865L219.191 43.4352L219.192 43.4321L218.223 43.1865ZM219.204 40.7842L220.036 41.3389L220.041 41.3304L219.204 40.7842ZM220.605 39.2627L220.015 38.4556L220.005 38.4627L220.605 39.2627ZM222.207 38.4219L221.919 37.464L221.913 37.4661L222.207 38.4219ZM215.08 57H214.08V58H215.08V57ZM217.342 57V58H218.231L218.335 57.1172L217.342 57ZM217.722 53.7769L218.646 53.393L217.178 49.8613L216.729 53.6597L217.722 53.7769ZM220.205 56.5195L219.722 57.3951L219.726 57.3974L220.205 56.5195ZM230.154 54.6177L229.349 54.0249L229.348 54.0258L230.154 54.6177ZM230.175 38.9824L229.364 39.5679L229.367 39.5716L230.175 38.9824ZM220.505 37.0205L220.973 37.9043L220.981 37.9L220.505 37.0205ZM217.943 39.6831H216.943L218.841 40.1221L217.943 39.6831ZM217.943 27.1108H218.943V26.1108H217.943V27.1108ZM215.08 27.1108V26.1108H214.08V27.1108H215.08ZM223.848 39.1816C225.122 39.1816 226.167 39.7604 227.027 41.119L228.717 40.0489C227.549 38.2044 225.911 37.1816 223.848 37.1816V39.1816ZM227.029 41.1222C227.916 42.5101 228.394 44.3117 228.394 46.5898H230.394C230.394 44.0366 229.857 41.8343 228.715 40.0457L227.029 41.1222ZM228.394 46.5898C228.394 49.1758 227.918 51.1296 227.059 52.5344L228.765 53.5779C229.882 51.7528 230.394 49.3958 230.394 46.5898H228.394ZM227.058 52.5364C226.244 53.8746 225.209 54.4585 223.888 54.4585V56.4585C225.985 56.4585 227.632 55.4408 228.767 53.5759L227.058 52.5364ZM223.888 54.4585C222.157 54.4585 220.978 53.8431 220.181 52.6698C219.338 51.4272 218.842 49.4375 218.842 46.5498H216.842C216.842 49.6012 217.355 52.0659 218.527 53.7929C219.746 55.5891 221.589 56.4585 223.888 56.4585V54.4585ZM218.842 46.5498C218.842 45.3607 218.963 44.3255 219.191 43.4352L217.254 42.9378C216.976 44.0228 216.842 45.2298 216.842 46.5498H218.842ZM219.192 43.4321C219.429 42.4978 219.719 41.8138 220.036 41.3389L218.372 40.2295C217.888 40.9557 217.524 41.8733 217.253 42.9409L219.192 43.4321ZM220.041 41.3304C220.384 40.8047 220.773 40.3865 221.205 40.0627L220.005 38.4627C219.369 38.9397 218.824 39.5358 218.366 40.2379L220.041 41.3304ZM221.196 40.0697C221.674 39.7196 222.109 39.4982 222.501 39.3777L221.913 37.4661C221.263 37.6659 220.631 38.005 220.015 38.4557L221.196 40.0697ZM222.494 39.3797C222.934 39.2477 223.385 39.1816 223.848 39.1816V37.1816C223.191 37.1816 222.547 37.2758 221.919 37.464L222.494 39.3797ZM215.08 58H217.342V56H215.08V58ZM218.335 57.1172L218.715 53.8941L216.729 53.6597L216.349 56.8828L218.335 57.1172ZM216.799 54.1607C217.383 55.5645 218.369 56.6488 219.722 57.3951L220.688 55.644C219.718 55.109 219.05 54.3649 218.646 53.393L216.799 54.1607ZM219.726 57.3974C221.063 58.1265 222.558 58.4805 224.189 58.4805V56.4805C222.856 56.4805 221.696 56.1938 220.684 55.6416L219.726 57.3974ZM224.189 58.4805C227.05 58.4805 229.352 57.3998 230.961 55.2095L229.348 54.0258C228.154 55.6526 226.479 56.4805 224.189 56.4805V58.4805ZM230.96 55.2105C232.537 53.0673 233.277 50.2822 233.277 46.9502H231.277C231.277 49.9978 230.601 52.3243 229.349 54.0249L230.96 55.2105ZM233.277 46.9502C233.277 43.4355 232.552 40.5452 230.983 38.3932L229.367 39.5716C230.6 41.2634 231.277 43.685 231.277 46.9502H233.277ZM230.985 38.3969C229.399 36.2006 227.155 35.0996 224.369 35.0996V37.0996C226.548 37.0996 228.174 37.9205 229.364 39.5679L230.985 38.3969ZM224.369 35.0996C222.781 35.0996 221.326 35.4391 220.029 36.141L220.981 37.9C221.953 37.3741 223.074 37.0996 224.369 37.0996V35.0996ZM220.037 36.1367C218.712 36.8382 217.709 37.8833 217.044 39.2441L218.841 40.1221C219.324 39.134 220.029 38.404 220.973 37.9043L220.037 36.1367ZM218.943 39.6831V34.9385H216.943V39.6831H218.943ZM218.943 34.9385V27.1108H216.943V34.9385H218.943ZM217.943 26.1108H215.08V28.1108H217.943V26.1108ZM214.08 27.1108V57H216.08V27.1108H214.08ZM251.143 52.6157L251.788 53.3799L252.143 53.0803V52.6157H251.143ZM241.654 49.4126L242.282 50.1905L242.285 50.1878L241.654 49.4126ZM242.815 48.6719L243.25 49.572L243.262 49.5664L243.273 49.5605L242.815 48.6719ZM244.517 48.0913L244.751 49.0635L244.759 49.0615L244.767 49.0593L244.517 48.0913ZM246.599 47.6309L246.776 48.615L246.785 48.6133L246.795 48.6114L246.599 47.6309ZM249.181 47.1904L249.331 48.1791L249.332 48.1789L249.181 47.1904ZM251.143 46.8901H252.143V45.7254L250.992 45.9016L251.143 46.8901ZM251.643 57L250.654 57.145L250.779 58H251.643V57ZM253.986 57V58H254.986V57H253.986ZM238.851 39.2227L238.066 38.6035L237.498 39.3229L238.166 39.9509L238.851 39.2227ZM240.553 40.8442H239.553V43.6772L241.331 41.472L240.553 40.8442ZM243.055 38.9424L242.657 38.0251L242.652 38.0271L243.055 38.9424ZM250.042 39.543L249.289 40.2006L249.294 40.2066L250.042 39.543ZM251.143 44.9683L251.293 45.957L252.143 45.8282V44.9683H251.143ZM249.161 45.2686L249.309 46.2576L249.311 46.2573L249.161 45.2686ZM246.559 45.689L246.719 46.676L246.73 46.6742L246.741 46.6721L246.559 45.689ZM244.276 46.1494L244.483 47.1279L244.496 47.125L244.276 46.1494ZM242.134 46.75L242.506 47.6785L242.512 47.6758L242.519 47.6731L242.134 46.75ZM240.493 47.5508L240.962 48.4337L240.969 48.4298L240.977 48.4258L240.493 47.5508ZM239.111 48.6719L239.918 49.2632L239.922 49.257L239.927 49.2506L239.111 48.6719ZM238.33 50.1533L237.398 49.7929L237.393 49.8046L238.33 50.1533ZM239.712 56.0791L239.071 56.8466L239.081 56.8547L239.712 56.0791ZM251.303 54.6777L252.293 54.5327L252.036 52.785L250.67 53.904L251.303 54.6777ZM250.498 51.8515C248.294 53.7113 246.3 54.5386 244.496 54.5386V56.5386C246.937 56.5386 249.374 55.4173 251.788 53.3799L250.498 51.8515ZM244.496 54.5386C243.385 54.5386 242.735 54.2589 242.355 53.8742C241.972 53.4876 241.693 52.8246 241.693 51.6948H239.693C239.693 53.1276 240.048 54.3864 240.933 55.281C241.82 56.1776 243.072 56.5386 244.496 56.5386V54.5386ZM241.693 51.6948C241.693 51.2983 241.752 50.993 241.844 50.7592L239.982 50.0279C239.78 50.5415 239.693 51.1037 239.693 51.6948H241.693ZM241.844 50.7592C241.92 50.5642 242.055 50.3743 242.282 50.1905L241.025 48.6347C240.559 49.0115 240.199 49.4755 239.982 50.0279L241.844 50.7592ZM242.285 50.1878C242.586 49.9428 242.907 49.738 243.25 49.572L242.379 47.7717C241.895 48.0062 241.442 48.2952 241.022 48.6374L242.285 50.1878ZM243.273 49.5605C243.587 49.3988 244.068 49.2279 244.751 49.0635L244.282 47.1191C243.524 47.3017 242.87 47.5179 242.356 47.7833L243.273 49.5605ZM244.767 49.0593C245.466 48.8782 246.135 48.7303 246.776 48.615L246.421 46.6467C245.727 46.7717 245.008 46.9307 244.266 47.1233L244.767 49.0593ZM246.795 48.6114C247.441 48.4822 248.285 48.3381 249.331 48.1791L249.031 46.2018C247.969 46.3631 247.091 46.5126 246.402 46.6503L246.795 48.6114ZM249.332 48.1789L251.294 47.8786L250.992 45.9016L249.03 46.2019L249.332 48.1789ZM250.143 46.8901V52.6157H252.143V46.8901H250.143ZM251.643 58H253.986V56H251.643V58ZM254.986 57V43.5269H252.986V57H254.986ZM254.986 43.5269C254.986 40.8935 254.317 38.7356 252.806 37.2446C251.298 35.756 249.118 35.0996 246.458 35.0996V37.0996C248.817 37.0996 250.401 37.6811 251.402 38.6682C252.4 39.6529 252.986 41.2087 252.986 43.5269H254.986ZM246.458 35.0996C242.82 35.0996 239.95 36.2135 238.066 38.6035L239.636 39.8418C241.035 38.0678 243.237 37.0996 246.458 37.0996V35.0996ZM238.166 39.9509C238.732 40.4844 239.156 40.8847 239.437 41.1528C239.578 41.2872 239.681 41.386 239.748 41.4509C239.782 41.4841 239.801 41.5039 239.811 41.5134C239.817 41.5195 239.811 41.514 239.801 41.5024C239.797 41.4986 239.779 41.4783 239.757 41.4494C239.747 41.4369 239.721 41.4022 239.693 41.3542C239.679 41.3305 239.653 41.2848 239.627 41.2237C239.61 41.1799 239.553 41.0374 239.553 40.8442H241.553C241.553 40.6509 241.496 40.5081 241.478 40.464C241.452 40.4025 241.426 40.3564 241.412 40.3323C241.383 40.2833 241.356 40.2474 241.345 40.2335C241.321 40.2017 241.299 40.1775 241.291 40.1688C241.272 40.1472 241.253 40.1277 241.241 40.1157C241.215 40.0889 241.182 40.0559 241.145 40.0199C241.07 39.9463 240.96 39.8407 240.817 39.7049C240.531 39.4324 240.104 39.0286 239.536 38.4945L238.166 39.9509ZM241.331 41.472C241.895 40.7727 242.599 40.2356 243.458 39.8577L242.652 38.0271C241.509 38.53 240.545 39.2608 239.774 40.2165L241.331 41.472ZM243.453 39.8596C244.337 39.4759 245.282 39.2817 246.298 39.2817V37.2817C245.019 37.2817 243.802 37.528 242.657 38.0251L243.453 39.8596ZM246.298 39.2817C247.936 39.2817 248.831 39.6767 249.289 40.2006L250.795 38.8853C249.785 37.7276 248.184 37.2817 246.298 37.2817V39.2817ZM249.294 40.2066C249.766 40.7385 250.143 41.9321 250.143 44.1274H252.143C252.143 41.8651 251.786 40.0024 250.79 38.8794L249.294 40.2066ZM250.143 44.1274V44.9683H252.143V44.1274H250.143ZM250.993 43.9795L249.011 44.2798L249.311 46.2573L251.293 45.957L250.993 43.9795ZM249.013 44.2795C247.85 44.4534 246.968 44.5957 246.376 44.7058L246.741 46.6721C247.297 46.5687 248.15 46.4307 249.309 46.2576L249.013 44.2795ZM246.398 44.702C245.795 44.8 245.013 44.9584 244.056 45.1739L244.496 47.125C245.435 46.9133 246.174 46.7647 246.719 46.676L246.398 44.702ZM244.07 45.171C243.104 45.3751 242.317 45.5905 241.75 45.8269L242.519 47.6731C242.912 47.5091 243.554 47.3241 244.483 47.1278L244.07 45.171ZM241.763 45.8215C241.245 46.0288 240.658 46.3163 240.009 46.6757L240.977 48.4258C241.581 48.0913 242.089 47.8449 242.506 47.6785L241.763 45.8215ZM240.023 46.6679C239.31 47.0471 238.708 47.5121 238.296 48.0931L239.927 49.2506C240.102 49.0042 240.421 48.7217 240.962 48.4337L240.023 46.6679ZM238.305 48.0805C237.947 48.568 237.648 49.1443 237.398 49.7929L239.263 50.5137C239.466 49.9879 239.688 49.5765 239.918 49.2632L238.305 48.0805ZM237.393 49.8046C237.132 50.5079 237.01 51.2761 237.01 52.0952H239.01C239.01 51.4729 239.102 50.9465 239.268 50.5021L237.393 49.8046ZM237.01 52.0952C237.01 54.0484 237.672 55.6783 239.071 56.8466L240.353 55.3116C239.483 54.5847 239.01 53.5587 239.01 52.0952H237.01ZM239.081 56.8547C240.434 57.956 242.095 58.4805 243.996 58.4805V56.4805C242.48 56.4805 241.286 56.0707 240.343 55.3035L239.081 56.8547ZM243.996 58.4805C246.848 58.4805 249.502 57.4448 251.937 55.4515L250.67 53.904C248.54 55.6477 246.322 56.4805 243.996 56.4805V58.4805ZM250.314 54.8227L250.654 57.145L252.633 56.855L252.293 54.5327L250.314 54.8227ZM261.361 57H260.361V58H261.361V57ZM261.361 27.4912V26.4912H260.361V27.4912H261.361ZM264.204 27.4912H265.204V26.4912H264.204V27.4912ZM264.204 57V58H265.204V57H264.204ZM262.361 57V27.4912H260.361V57H262.361ZM261.361 28.4912H264.204V26.4912H261.361V28.4912ZM263.204 27.4912V57H265.204V27.4912H263.204ZM264.204 56H261.361V58H264.204V56Z" fill="black"/>
<path d="M93.8633 66.9492C95.9375 66.9492 97.6895 67.2949 99.1191 67.9863C100.561 68.6777 101.791 69.8027 102.811 71.3613L100.912 72.7676C100.221 71.5488 99.2891 70.623 98.1172 69.9902C96.9453 69.3457 95.6504 69.0234 94.2324 69.0234C92.3926 69.0234 90.8926 69.3633 89.7324 70.043C88.5723 70.7227 87.9922 71.7656 87.9922 73.1719C87.9922 73.7227 88.1152 74.2266 88.3613 74.6836C88.6074 75.1406 88.9004 75.5156 89.2402 75.8086C89.5918 76.1016 90.0547 76.3887 90.6289 76.6699C91.2148 76.9512 91.7363 77.168 92.1934 77.3203C92.6621 77.4727 93.2422 77.6602 93.9336 77.8828C94.625 78.1055 95.1582 78.2871 95.5332 78.4277C96.3184 78.7324 96.9629 78.9902 97.4668 79.2012C97.9707 79.4004 98.5273 79.6523 99.1367 79.957C99.7461 80.2617 100.238 80.5488 100.613 80.8184C100.988 81.0762 101.369 81.3926 101.756 81.7676C102.143 82.1426 102.436 82.5352 102.635 82.9453C102.846 83.3555 103.016 83.8301 103.145 84.3691C103.285 84.8965 103.355 85.4707 103.355 86.0918C103.355 88.4004 102.488 90.2051 100.754 91.5059C99.0312 92.7949 96.7168 93.4395 93.8105 93.4395C92.9785 93.4395 92.1523 93.3691 91.332 93.2285C90.5234 93.0879 89.6973 92.8477 88.8535 92.5078C88.0215 92.168 87.2715 91.7402 86.6035 91.2246C85.9355 90.709 85.3438 90.041 84.8281 89.2207C84.3242 88.4004 83.9785 87.4746 83.791 86.4434L85.9531 85.5117C86.4805 87.4453 87.4004 88.8809 88.7129 89.8184C90.0371 90.7559 91.7891 91.2246 93.9688 91.2246C94.6367 91.2246 95.2754 91.1777 95.8848 91.084C96.4941 90.9785 97.0918 90.8027 97.6777 90.5566C98.2754 90.3105 98.791 90.0059 99.2246 89.6426C99.6582 89.2676 100.004 88.7871 100.262 88.2012C100.531 87.6035 100.666 86.9297 100.666 86.1797C100.666 85.6992 100.602 85.2598 100.473 84.8613C100.344 84.4629 100.209 84.123 100.068 83.8418C99.9277 83.5488 99.6465 83.25 99.2246 82.9453C98.8027 82.6406 98.4688 82.4062 98.2227 82.2422C97.9766 82.0664 97.502 81.8379 96.7988 81.5566C96.0957 81.2754 95.5684 81.0762 95.2168 80.959C94.877 80.8301 94.2324 80.6016 93.2832 80.2734C93.1309 80.2148 93.0137 80.1738 92.9316 80.1504C90.8457 79.4238 89.3926 78.832 88.5723 78.375C86.6855 77.332 85.6133 75.9609 85.3555 74.2617C85.3203 73.9805 85.3027 73.6875 85.3027 73.3828C85.3027 72.3164 85.543 71.3613 86.0234 70.5176C86.5039 69.6738 87.1484 69 87.957 68.4961C88.7773 67.9805 89.6855 67.5938 90.6816 67.3359C91.6895 67.0781 92.75 66.9492 93.8633 66.9492ZM120.466 85.3359V75.0176H122.962V93H120.536V89.625C120.068 90.8672 119.23 91.8105 118.023 92.4551C116.827 93.0996 115.562 93.4219 114.226 93.4219C113.464 93.4219 112.773 93.3281 112.152 93.1406C111.542 92.9648 111.032 92.7363 110.622 92.4551C110.224 92.1621 109.872 91.793 109.568 91.3477C109.275 90.8906 109.046 90.4453 108.882 90.0117C108.73 89.5781 108.607 89.0684 108.513 88.4824C108.419 87.8848 108.361 87.3633 108.337 86.918C108.314 86.4609 108.302 85.9336 108.302 85.3359V75.0176H110.798V85.8633C110.798 87.7148 111.085 89.1152 111.659 90.0645C112.234 91.002 113.236 91.4707 114.665 91.4707C115.544 91.4707 116.335 91.3242 117.038 91.0312C117.741 90.7383 118.298 90.375 118.708 89.9414C119.13 89.4961 119.476 88.9922 119.745 88.4297C120.027 87.8555 120.214 87.3164 120.308 86.8125C120.413 86.2969 120.466 85.8047 120.466 85.3359ZM132.338 82.752V93H129.842V75.0176H132.25L132.321 77.8652C132.977 76.7402 133.809 75.9258 134.817 75.4219C135.825 74.9062 136.903 74.6484 138.051 74.6484C139.387 74.6484 140.477 74.9766 141.321 75.6328C142.164 76.2891 142.75 77.2031 143.079 78.375C143.676 77.1211 144.52 76.1895 145.61 75.5801C146.711 74.959 147.889 74.6484 149.143 74.6484C150.104 74.6484 150.93 74.8184 151.621 75.1582C152.325 75.498 152.87 75.9258 153.256 76.4414C153.655 76.9453 153.965 77.584 154.188 78.3574C154.422 79.1309 154.569 79.8633 154.627 80.5547C154.698 81.2344 154.733 82.0078 154.733 82.875V93H152.237V82.3301C152.237 81.4277 152.178 80.6367 152.061 79.957C151.955 79.2773 151.768 78.668 151.498 78.1289C151.241 77.5898 150.877 77.1797 150.409 76.8984C149.94 76.6172 149.371 76.4766 148.704 76.4766C147.707 76.4766 146.805 76.7812 145.996 77.3906C145.188 78 144.573 78.7734 144.151 79.7109C143.729 80.6367 143.518 81.6035 143.518 82.6113V93H141.022V82.3301C141.022 80.4434 140.758 78.9961 140.231 77.9883C139.704 76.9805 138.801 76.4766 137.524 76.4766C136.504 76.4766 135.59 76.793 134.782 77.4258C133.973 78.0469 133.364 78.832 132.954 79.7812C132.543 80.7188 132.338 81.709 132.338 82.752ZM163.388 82.752V93H160.892V75.0176H163.3L163.371 77.8652C164.027 76.7402 164.859 75.9258 165.867 75.4219C166.875 74.9062 167.953 74.6484 169.101 74.6484C170.437 74.6484 171.527 74.9766 172.371 75.6328C173.214 76.2891 173.8 77.2031 174.129 78.375C174.726 77.1211 175.57 76.1895 176.66 75.5801C177.761 74.959 178.939 74.6484 180.193 74.6484C181.154 74.6484 181.98 74.8184 182.671 75.1582C183.375 75.498 183.92 75.9258 184.306 76.4414C184.705 76.9453 185.015 77.584 185.238 78.3574C185.472 79.1309 185.619 79.8633 185.677 80.5547C185.748 81.2344 185.783 82.0078 185.783 82.875V93H183.287V82.3301C183.287 81.4277 183.228 80.6367 183.111 79.957C183.005 79.2773 182.818 78.668 182.548 78.1289C182.291 77.5898 181.927 77.1797 181.459 76.8984C180.99 76.6172 180.421 76.4766 179.754 76.4766C178.757 76.4766 177.855 76.7812 177.046 77.3906C176.238 78 175.623 78.7734 175.201 79.7109C174.779 80.6367 174.568 81.6035 174.568 82.6113V93H172.072V82.3301C172.072 80.4434 171.808 78.9961 171.281 77.9883C170.754 76.9805 169.851 76.4766 168.574 76.4766C167.554 76.4766 166.64 76.793 165.832 77.4258C165.023 78.0469 164.414 78.832 164.004 79.7812C163.593 80.7188 163.388 81.709 163.388 82.752ZM192.1 71.168V68.0215H194.579V71.168H192.1ZM192.136 93V75.0176H194.632V93H192.136ZM209.176 90.8027L209.598 92.4375C208.719 93 207.688 93.2812 206.504 93.2812C204.957 93.2812 203.832 92.8125 203.129 91.875C202.438 90.9258 202.092 89.3965 202.092 87.2871V76.7578H199.402V75.0176H202.25V69.2695L204.588 68.6191V75.0176H208.525V76.7578H204.588V88.4121C204.588 90.4043 205.396 91.4004 207.014 91.4004C207.553 91.4004 208.273 91.2012 209.176 90.8027ZM224.365 76.5161C225.657 73.6805 227.62 72.2627 230.253 72.2627C231.535 72.2627 232.625 72.6815 233.523 73.519C234.431 74.3465 234.885 75.4818 234.885 76.9248C234.885 77.8128 234.673 78.6706 234.249 79.498C233.826 80.3154 233.271 81.0622 232.584 81.7383C231.898 82.4043 231.141 83.0653 230.314 83.7212C229.486 84.367 228.654 85.028 227.816 85.7041C226.989 86.3802 226.227 87.0715 225.531 87.7778C224.834 88.4741 224.259 89.2764 223.805 90.1846C223.351 91.0827 223.109 92.0212 223.079 93H236.989V91.1685H225.803C226.126 90.5226 226.59 89.8717 227.196 89.2158C227.811 88.5498 228.462 87.9393 229.148 87.3843C229.845 86.8192 230.576 86.2389 231.343 85.6436C232.12 85.0482 232.857 84.4377 233.553 83.812C234.249 83.1864 234.88 82.5355 235.445 81.8594C236.01 81.1732 236.459 80.4113 236.792 79.5737C237.135 78.7362 237.307 77.8633 237.307 76.9551C237.307 75.8451 237.105 74.8612 236.702 74.0034C236.308 73.1457 235.768 72.4645 235.082 71.96C234.396 71.4453 233.629 71.0618 232.781 70.8096C231.934 70.5472 231.03 70.416 230.072 70.416C228.336 70.416 226.832 70.8449 225.561 71.7026C224.289 72.5503 223.24 73.8924 222.413 75.729L224.365 76.5161ZM244.225 92.5459C245.214 93.1009 246.339 93.3784 247.601 93.3784C248.862 93.3784 249.987 93.1009 250.976 92.5459C251.965 91.9909 252.772 91.2088 253.398 90.1997C254.024 89.1906 254.498 87.9998 254.821 86.6274C255.144 85.245 255.305 83.7161 255.305 82.041C255.305 80.3558 255.144 78.8118 254.821 77.4092C254.498 76.0065 254.019 74.7855 253.383 73.7461C252.757 72.6966 251.95 71.8843 250.961 71.3091C249.982 70.7238 248.862 70.4312 247.601 70.4312C246.339 70.4312 245.214 70.7238 244.225 71.3091C243.246 71.8843 242.439 72.6966 241.803 73.7461C241.178 74.7855 240.703 76.0065 240.38 77.4092C240.057 78.8118 239.896 80.3558 239.896 82.041C239.896 83.7161 240.057 85.245 240.38 86.6274C240.703 87.9998 241.178 89.1906 241.803 90.1997C242.429 91.2088 243.236 91.9909 244.225 92.5459ZM244.649 73.4888C245.466 72.631 246.45 72.2021 247.601 72.2021C248.751 72.2021 249.735 72.631 250.552 73.4888C251.37 74.3364 251.975 75.4919 252.369 76.9551C252.762 78.4183 252.959 80.1136 252.959 82.041C252.959 83.918 252.767 85.5628 252.384 86.9756C252.01 88.3783 251.415 89.4984 250.598 90.3359C249.78 91.1735 248.781 91.5923 247.601 91.5923C246.42 91.5923 245.421 91.1735 244.604 90.3359C243.786 89.4984 243.186 88.3783 242.802 86.9756C242.429 85.5628 242.242 83.918 242.242 82.041C242.242 80.1136 242.439 78.4183 242.833 76.9551C243.226 75.4919 243.832 74.3364 244.649 73.4888ZM260.77 72.8984V93H262.98V70.8398H261.027L257.289 72.3535L257.955 74.1094L260.77 72.8984ZM273.955 78.9531C275.136 78.9531 276.185 79.1499 277.103 79.5435C278.022 79.9269 278.753 80.4517 279.298 81.1177C279.853 81.7837 280.272 82.5355 280.554 83.373C280.837 84.2005 280.978 85.0835 280.978 86.022C280.978 86.8595 280.872 87.6517 280.66 88.3984C280.449 89.1452 280.131 89.8213 279.707 90.4268C279.293 91.0221 278.794 91.5368 278.208 91.9707C277.623 92.4046 276.932 92.7427 276.135 92.9849C275.347 93.217 274.495 93.333 273.576 93.333C271.871 93.333 270.388 92.9243 269.126 92.1069C267.875 91.2795 266.916 90.0181 266.25 88.3228L268.127 87.5659C268.702 88.8172 269.454 89.7961 270.383 90.5024C271.321 91.2088 272.34 91.562 273.44 91.562C274.278 91.562 275.035 91.4157 275.711 91.123C276.397 90.8203 276.952 90.4167 277.376 89.9121C277.81 89.4076 278.143 88.8324 278.375 88.1865C278.607 87.5407 278.723 86.8595 278.723 86.1431C278.723 85.4468 278.617 84.7858 278.405 84.1602C278.203 83.5244 277.906 82.9543 277.512 82.4497C277.129 81.9351 276.619 81.5264 275.983 81.2236C275.358 80.9209 274.651 80.7695 273.864 80.7695C272.219 80.7695 270.574 81.3901 268.929 82.6313L267.552 81.7383L269.005 70.8398H279.616V72.7622H270.988L269.944 80.043L270.019 80.0127C271.291 79.3063 272.603 78.9531 273.955 78.9531Z" fill="black"/>
<path d="M99.1191 67.9863L98.6838 68.8866L98.6866 68.888L99.1191 67.9863ZM102.811 71.3613L103.406 72.1649L104.164 71.6034L103.647 70.8139L102.811 71.3613ZM100.912 72.7676L100.042 73.261L100.6 74.2435L101.507 73.5711L100.912 72.7676ZM98.1172 69.9902L97.6353 70.8665L97.642 70.8701L98.1172 69.9902ZM89.2402 75.8086L88.5873 76.566L88.5936 76.5715L88.6 76.5768L89.2402 75.8086ZM90.6289 76.6699L90.189 77.568L90.1962 77.5714L90.6289 76.6699ZM92.1934 77.3203L91.8771 78.269L91.8843 78.2713L92.1934 77.3203ZM95.5332 78.4277L95.895 77.4954L95.8843 77.4914L95.5332 78.4277ZM97.4668 79.2012L97.0807 80.1236L97.0899 80.1275L97.0991 80.1311L97.4668 79.2012ZM100.613 80.8184L100.03 81.6304L100.038 81.6365L100.047 81.6424L100.613 80.8184ZM102.635 82.9453L101.735 83.3822L101.74 83.3925L101.745 83.4027L102.635 82.9453ZM103.145 84.3691L102.172 84.6017L102.175 84.6143L102.178 84.6268L103.145 84.3691ZM100.754 91.5059L101.353 92.3065L101.354 92.3059L100.754 91.5059ZM91.332 93.2285L91.1607 94.2137L91.1631 94.2141L91.332 93.2285ZM88.8535 92.5078L88.4754 93.4336L88.4799 93.4354L88.8535 92.5078ZM84.8281 89.2207L83.976 89.7441L83.9815 89.7529L84.8281 89.2207ZM83.791 86.4434L83.3953 85.525L82.6649 85.8397L82.8071 86.6222L83.791 86.4434ZM85.9531 85.5117L86.9179 85.2486L86.6149 84.1377L85.5574 84.5933L85.9531 85.5117ZM88.7129 89.8184L88.1316 90.6321L88.1351 90.6345L88.7129 89.8184ZM95.8848 91.084L96.0368 92.0724L96.0461 92.0709L96.0553 92.0693L95.8848 91.084ZM97.6777 90.5566L97.297 89.6319L97.2905 89.6347L97.6777 90.5566ZM99.2246 89.6426L99.8668 90.4091L99.8728 90.4041L99.8788 90.3989L99.2246 89.6426ZM100.262 88.2012L99.3501 87.79L99.3464 87.7984L100.262 88.2012ZM100.068 83.8418L99.1668 84.2745L99.1703 84.2818L99.1739 84.289L100.068 83.8418ZM98.2227 82.2422L97.6414 83.0559L97.6545 83.0653L97.668 83.0742L98.2227 82.2422ZM95.2168 80.959L94.8621 81.894L94.8812 81.9012L94.9006 81.9077L95.2168 80.959ZM93.2832 80.2734L92.9242 81.2068L92.9403 81.2129L92.9565 81.2186L93.2832 80.2734ZM92.9316 80.1504L92.6027 81.0947L92.6296 81.1041L92.6569 81.1119L92.9316 80.1504ZM88.5723 78.375L89.059 77.5014L89.0561 77.4998L88.5723 78.375ZM85.3555 74.2617L84.3632 74.3858L84.3648 74.3988L84.3668 74.4117L85.3555 74.2617ZM87.957 68.4961L88.4859 69.3448L88.4892 69.3427L87.957 68.4961ZM90.6816 67.3359L90.4338 66.3671L90.4311 66.3678L90.6816 67.3359ZM93.8633 67.9492C95.8311 67.9492 97.4248 68.2777 98.6838 68.8866L99.5545 67.0861C97.9541 66.3121 96.0439 65.9492 93.8633 65.9492V67.9492ZM98.6866 68.888C99.9379 69.4882 101.037 70.4774 101.974 71.9087L103.647 70.8139C102.545 69.1281 101.183 67.8673 99.5516 67.0847L98.6866 68.888ZM102.215 70.5578L100.317 71.964L101.507 73.5711L103.406 72.1649L102.215 70.5578ZM101.782 72.2741C101.003 70.901 99.9382 69.8371 98.5923 69.1103L97.642 70.8701C98.6399 71.409 99.4385 72.1967 100.042 73.261L101.782 72.2741ZM98.5991 69.114C97.2707 68.3834 95.8084 68.0234 94.2324 68.0234V70.0234C95.4924 70.0234 96.62 70.308 97.6353 70.8665L98.5991 69.114ZM94.2324 68.0234C92.2777 68.0234 90.5868 68.3835 89.2269 69.1801L90.2379 70.9058C91.1984 70.3431 92.5075 70.0234 94.2324 70.0234V68.0234ZM89.2269 69.1801C87.7436 70.0491 86.9922 71.4306 86.9922 73.1719H88.9922C88.9922 72.1007 89.4009 71.3962 90.2379 70.9058L89.2269 69.1801ZM86.9922 73.1719C86.9922 73.8777 87.1515 74.546 87.4809 75.1577L89.2418 74.2095C89.079 73.9071 88.9922 73.5676 88.9922 73.1719H86.9922ZM87.4809 75.1577C87.7759 75.7056 88.1416 76.1818 88.5873 76.566L89.8932 75.0512C89.6591 74.8494 89.4389 74.5756 89.2418 74.2095L87.4809 75.1577ZM88.6 76.5768C89.0318 76.9366 89.5691 77.2643 90.189 77.568L91.0688 75.7719C90.5403 75.513 90.1518 75.2665 89.8804 75.0404L88.6 76.5768ZM90.1962 77.5714C90.8078 77.865 91.3693 78.0997 91.8771 78.269L92.5096 76.3716C92.1033 76.2362 91.6219 76.0373 91.0616 75.7684L90.1962 77.5714ZM91.8843 78.2713C92.3542 78.4241 92.9352 78.6119 93.6271 78.8347L94.2401 76.931C93.5492 76.7085 92.97 76.5212 92.5024 76.3693L91.8843 78.2713ZM93.6271 78.8347C94.3134 79.0557 94.8291 79.2317 95.1821 79.3641L95.8843 77.4914C95.4873 77.3425 94.9366 77.1552 94.2401 76.931L93.6271 78.8347ZM95.1714 79.36C95.9523 79.663 96.5879 79.9173 97.0807 80.1236L97.8529 78.2787C97.3379 78.0631 96.6844 77.8018 95.895 77.4955L95.1714 79.36ZM97.0991 80.1311C97.5702 80.3174 98.0998 80.5566 98.6895 80.8515L99.5839 79.0626C98.9548 78.7481 98.3712 78.4834 97.8345 78.2712L97.0991 80.1311ZM98.6895 80.8515C99.2714 81.1424 99.7129 81.4027 100.03 81.6304L101.197 80.0063C100.764 79.6949 100.221 79.381 99.5839 79.0626L98.6895 80.8515ZM100.047 81.6424C100.368 81.8634 100.706 82.1426 101.06 82.4855L102.452 81.0497C102.032 80.6426 101.608 80.289 101.18 79.9943L100.047 81.6424ZM101.06 82.4855C101.378 82.7937 101.595 83.0939 101.735 83.3822L103.534 82.5084C103.276 81.9764 102.908 81.4914 102.452 81.0497L101.06 82.4855ZM101.745 83.4027C101.913 83.7289 102.058 84.1255 102.172 84.6017L104.117 84.1366C103.973 83.5346 103.778 82.982 103.524 82.488L101.745 83.4027ZM102.178 84.6268C102.294 85.0595 102.355 85.546 102.355 86.0918H104.355C104.355 85.3955 104.277 84.7335 104.111 84.1115L102.178 84.6268ZM102.355 86.0918C102.355 88.1094 101.618 89.6078 100.154 90.7059L101.354 92.3059C103.359 90.8024 104.355 88.6914 104.355 86.0918H102.355ZM100.155 90.7052C98.6567 91.8262 96.5757 92.4395 93.8105 92.4395V94.4395C96.8579 94.4395 99.4058 93.7636 101.353 92.3065L100.155 90.7052ZM93.8105 92.4395C93.0352 92.4395 92.2655 92.374 91.501 92.2429L91.1631 94.2141C92.0392 94.3643 92.9219 94.4395 93.8105 94.4395V92.4395ZM91.5034 92.2433C90.771 92.1159 90.0126 91.8966 89.2271 91.5802L88.4799 93.4354C89.3819 93.7987 90.2758 94.0598 91.1607 94.2137L91.5034 92.2433ZM89.2316 91.5821C88.4775 91.274 87.8068 90.8902 87.2146 90.433L85.9925 92.0162C86.7362 92.5903 87.5654 93.0619 88.4754 93.4336L89.2316 91.5821ZM87.2146 90.433C86.6525 89.9991 86.1369 89.4237 85.6748 88.6885L83.9815 89.7529C84.5506 90.6583 85.2186 91.4188 85.9925 92.0162L87.2146 90.433ZM85.6802 88.6973C85.2468 87.9917 84.9422 87.1846 84.7749 86.2645L82.8071 86.6222C83.0149 87.7647 83.4017 88.8091 83.976 89.7441L85.6802 88.6973ZM84.1867 87.3617L86.3488 86.4301L85.5574 84.5933L83.3953 85.525L84.1867 87.3617ZM84.9884 85.7748C85.5612 87.8753 86.5898 89.5307 88.1317 90.6321L89.2941 89.0046C88.211 88.231 87.3997 87.0154 86.9179 85.2486L84.9884 85.7748ZM88.1351 90.6345C89.6775 91.7265 91.652 92.2246 93.9688 92.2246V90.2246C91.9261 90.2246 90.3967 89.7852 89.2907 89.0022L88.1351 90.6345ZM93.9688 92.2246C94.6835 92.2246 95.3732 92.1745 96.0368 92.0724L95.7327 90.0956C95.1776 90.181 94.59 90.2246 93.9688 90.2246V92.2246ZM96.0553 92.0693C96.7411 91.9506 97.4114 91.7531 98.065 91.4786L97.2905 89.6347C96.7722 89.8523 96.2472 90.0064 95.7142 90.0986L96.0553 92.0693ZM98.0585 91.4813C98.7376 91.2017 99.3444 90.8468 99.8668 90.4091L98.5824 88.8761C98.2376 89.1649 97.8132 89.4194 97.297 89.632L98.0585 91.4813ZM99.8788 90.3989C100.437 89.9161 100.866 89.3097 101.177 88.6039L99.3464 87.7984C99.1413 88.2645 98.8794 88.6191 98.5705 88.8862L99.8788 90.3989ZM101.173 88.6123C101.509 87.8681 101.666 87.0511 101.666 86.1797H99.666C99.666 86.8083 99.5536 87.339 99.3501 87.7901L101.173 88.6123ZM101.666 86.1797C101.666 85.6098 101.59 85.0648 101.424 84.5535L99.5212 85.1691C99.6136 85.4547 99.666 85.7886 99.666 86.1797H101.666ZM101.424 84.5535C101.284 84.1219 101.132 83.7327 100.963 83.3946L99.1739 84.289C99.2861 84.5134 99.403 84.8039 99.5212 85.1691L101.424 84.5535ZM100.97 83.4091C100.726 82.9014 100.294 82.4843 99.8101 82.1346L98.6391 83.756C98.9987 84.0157 99.1293 84.1963 99.1668 84.2745L100.97 83.4091ZM99.8101 82.1346C99.3844 81.8272 99.0388 81.5844 98.7774 81.4101L97.668 83.0742C97.8987 83.2281 98.221 83.454 98.6391 83.756L99.8101 82.1346ZM98.8039 81.4285C98.4484 81.1745 97.8694 80.9079 97.1702 80.6282L96.4274 82.4851C97.1345 82.7679 97.5048 82.9583 97.6414 83.0559L98.8039 81.4285ZM97.1702 80.6282C96.4635 80.3455 95.9137 80.1372 95.533 80.0103L94.9006 81.9077C95.223 82.0151 95.7279 82.2053 96.4274 82.4851L97.1702 80.6282ZM95.5715 80.024C95.2157 79.889 94.5577 79.6559 93.6099 79.3283L92.9565 81.2186C93.9072 81.5472 94.5382 81.7711 94.8621 81.894L95.5715 80.024ZM93.6422 79.3401C93.4823 79.2786 93.332 79.2248 93.2064 79.1889L92.6569 81.1119C92.6954 81.1229 92.7795 81.1511 92.9242 81.2068L93.6422 79.3401ZM93.2606 79.206C91.176 78.48 89.7962 77.9122 89.059 77.5014L88.0856 79.2486C88.989 79.7519 90.5154 80.3677 92.6027 81.0947L93.2606 79.206ZM89.0561 77.4998C87.3649 76.5649 86.5437 75.427 86.3442 74.1117L84.3668 74.4117C84.6828 76.4949 86.0062 78.0991 88.0885 79.2502L89.0561 77.4998ZM86.3477 74.1377C86.3181 73.9005 86.3027 73.6491 86.3027 73.3828H84.3027C84.3027 73.7259 84.3225 74.0604 84.3632 74.3858L86.3477 74.1377ZM86.3027 73.3828C86.3027 72.4724 86.5061 71.6909 86.8924 71.0124L85.1545 70.0227C84.5799 71.0318 84.3027 72.1604 84.3027 73.3828H86.3027ZM86.8924 71.0124C87.2923 70.3102 87.8211 69.7591 88.4859 69.3448L87.4281 67.6474C86.4758 68.2409 85.7155 69.0375 85.1545 70.0227L86.8924 71.0124ZM88.4892 69.3427C89.2172 68.8851 90.0295 68.5377 90.9322 68.304L90.4311 66.3678C89.3416 66.6498 88.3375 67.0758 87.4249 67.6495L88.4892 69.3427ZM90.9295 68.3047C91.8508 68.069 92.8278 67.9492 93.8633 67.9492V65.9492C92.6722 65.9492 91.5281 66.0872 90.4338 66.3671L90.9295 68.3047ZM120.466 75.0176V74.0176H119.466V75.0176H120.466ZM122.962 75.0176H123.962V74.0176H122.962V75.0176ZM122.962 93V94H123.962V93H122.962ZM120.536 93H119.536V94H120.536V93ZM120.536 89.625H121.536L119.601 89.2719L120.536 89.625ZM118.023 92.4551L117.552 91.573L117.548 91.5749L118.023 92.4551ZM112.152 93.1406L112.441 92.1832L112.429 92.1798L112.152 93.1406ZM110.622 92.4551L110.03 93.2607L110.043 93.2705L110.057 93.2798L110.622 92.4551ZM109.568 91.3477L108.726 91.8873L108.734 91.9L108.742 91.9123L109.568 91.3477ZM108.882 90.0117L107.939 90.3432L107.943 90.3545L107.947 90.3656L108.882 90.0117ZM108.513 88.4824L107.525 88.6374L107.525 88.6404L108.513 88.4824ZM108.337 86.918L107.338 86.9692L107.338 86.9705L108.337 86.918ZM108.302 75.0176V74.0176H107.302V75.0176H108.302ZM110.798 75.0176H111.798V74.0176H110.798V75.0176ZM111.659 90.0645L110.804 90.5821L110.807 90.5868L111.659 90.0645ZM118.708 89.9414L117.982 89.2537L117.982 89.2542L118.708 89.9414ZM119.745 88.4297L118.847 87.9898L118.843 87.9976L119.745 88.4297ZM120.308 86.8125L119.328 86.6121L119.326 86.6208L119.325 86.6296L120.308 86.8125ZM121.466 85.3359V75.0176H119.466V85.3359H121.466ZM120.466 76.0176H122.962V74.0176H120.466V76.0176ZM121.962 75.0176V93H123.962V75.0176H121.962ZM122.962 92H120.536V94H122.962V92ZM121.536 93V89.625H119.536V93H121.536ZM119.601 89.2719C119.22 90.2798 118.552 91.0388 117.552 91.573L118.494 93.3372C119.907 92.5823 120.915 91.4546 121.472 89.9781L119.601 89.2719ZM117.548 91.5749C116.496 92.1421 115.393 92.4219 114.226 92.4219V94.4219C115.73 94.4219 117.159 94.0571 118.497 93.3353L117.548 91.5749ZM114.226 92.4219C113.545 92.4219 112.953 92.3381 112.441 92.1833L111.863 94.098C112.592 94.3182 113.383 94.4219 114.226 94.4219V92.4219ZM112.429 92.1798C111.895 92.0259 111.489 91.8371 111.188 91.6304L110.057 93.2798C110.576 93.6356 111.189 93.9038 111.874 94.1014L112.429 92.1798ZM111.215 91.6494C110.915 91.4289 110.64 91.1439 110.393 90.783L108.742 91.9123C109.105 92.4421 109.533 92.8953 110.03 93.2607L111.215 91.6494ZM110.409 90.808C110.148 90.3998 109.953 90.0165 109.817 89.6578L107.947 90.3656C108.139 90.8741 108.401 91.3814 108.726 91.8873L110.409 90.808ZM109.825 89.6802C109.698 89.3165 109.587 88.8674 109.5 88.3244L107.525 88.6404C107.626 89.2693 107.762 89.8397 107.939 90.3432L109.825 89.6802ZM109.501 88.3275C109.411 87.7527 109.357 87.2668 109.336 86.8654L107.338 86.9705C107.364 87.4598 107.428 88.0169 107.525 88.6374L109.501 88.3275ZM109.336 86.8668C109.313 86.431 109.302 85.9213 109.302 85.3359H107.302C107.302 85.9458 107.314 86.4909 107.338 86.9692L109.336 86.8668ZM109.302 85.3359V75.0176H107.302V85.3359H109.302ZM108.302 76.0176H110.798V74.0176H108.302V76.0176ZM109.798 75.0176V85.8633H111.798V75.0176H109.798ZM109.798 85.8633C109.798 87.7887 110.091 89.4044 110.804 90.5821L112.515 89.5469C112.079 88.826 111.798 87.641 111.798 85.8633H109.798ZM110.807 90.5868C111.617 91.9099 113.006 92.4707 114.665 92.4707V90.4707C113.465 90.4707 112.85 90.094 112.512 89.5421L110.807 90.5868ZM114.665 92.4707C115.656 92.4707 116.581 92.3053 117.423 91.9543L116.654 90.1082C116.09 90.3432 115.432 90.4707 114.665 90.4707V92.4707ZM117.423 91.9543C118.221 91.6218 118.906 91.1878 119.435 90.6286L117.982 89.2542C117.69 89.5622 117.262 89.8547 116.654 90.1082L117.423 91.9543ZM119.434 90.6292C119.929 90.107 120.333 89.5165 120.647 88.8618L118.843 87.9976C118.618 88.4678 118.331 88.8852 117.982 89.2537L119.434 90.6292ZM120.643 88.8696C120.955 88.2331 121.177 87.6072 121.291 86.9954L119.325 86.6296C119.251 87.0256 119.098 87.4778 118.847 87.9898L120.643 88.8696ZM121.288 87.0129C121.405 86.4392 121.466 85.8796 121.466 85.3359H119.466C119.466 85.7298 119.422 86.1545 119.328 86.6121L121.288 87.0129ZM132.338 93V94H133.338V93H132.338ZM129.842 93H128.842V94H129.842V93ZM129.842 75.0176V74.0176H128.842V75.0176H129.842ZM132.25 75.0176L133.25 74.9929L133.226 74.0176H132.25V75.0176ZM132.321 77.8652L131.321 77.8899L131.408 81.4144L133.184 78.3691L132.321 77.8652ZM134.817 75.4219L135.264 76.3163L135.272 76.3121L134.817 75.4219ZM143.079 78.375L142.116 78.6446L142.834 81.2116L143.981 78.8053L143.079 78.375ZM145.61 75.5801L146.098 76.4529L146.101 76.4512L145.61 75.5801ZM151.621 75.1582L151.18 76.0557L151.186 76.0586L151.621 75.1582ZM153.256 76.4414L152.456 77.0414L152.464 77.0516L152.472 77.0616L153.256 76.4414ZM154.188 78.3574L153.227 78.6341L153.231 78.6474L154.188 78.3574ZM154.627 80.5547L153.631 80.6391L153.632 80.6484L153.633 80.6576L154.627 80.5547ZM154.733 93V94H155.733V93H154.733ZM152.237 93H151.237V94H152.237V93ZM152.061 79.957L151.073 80.1104L151.074 80.1187L151.075 80.1269L152.061 79.957ZM151.498 78.1289L150.596 78.5604L150.6 78.5683L150.604 78.5761L151.498 78.1289ZM144.151 79.7109L145.061 80.1256L145.063 80.1213L144.151 79.7109ZM143.518 93V94H144.518V93H143.518ZM141.022 93H140.022V94H141.022V93ZM134.782 77.4258L135.391 78.2189L135.398 78.2133L134.782 77.4258ZM132.954 79.7812L133.87 80.1821L133.871 80.1779L132.954 79.7812ZM131.338 82.752V93H133.338V82.752H131.338ZM132.338 92H129.842V94H132.338V92ZM130.842 93V75.0176H128.842V93H130.842ZM129.842 76.0176H132.25V74.0176H129.842V76.0176ZM131.251 75.0423L131.321 77.8899L133.32 77.8406L133.25 74.9929L131.251 75.0423ZM133.184 78.3691C133.758 77.3852 134.456 76.7204 135.264 76.3163L134.37 74.5274C133.162 75.1312 132.195 76.0953 131.457 77.3614L133.184 78.3691ZM135.272 76.3121C136.137 75.8697 137.059 75.6484 138.051 75.6484V73.6484C136.747 73.6484 135.512 73.9428 134.361 74.5316L135.272 76.3121ZM138.051 75.6484C139.221 75.6484 140.079 75.9336 140.707 76.4222L141.935 74.8435C140.875 74.0196 139.553 73.6484 138.051 73.6484V75.6484ZM140.707 76.4222C141.359 76.9292 141.837 77.6491 142.116 78.6446L144.041 78.1054C143.664 76.7571 142.97 75.6489 141.935 74.8435L140.707 76.4222ZM143.981 78.8053C144.5 77.7163 145.209 76.95 146.098 76.4529L145.122 74.7073C143.831 75.4289 142.852 76.5259 142.176 77.9447L143.981 78.8053ZM146.101 76.4512C147.054 75.9138 148.063 75.6484 149.143 75.6484V73.6484C147.715 73.6484 146.369 74.0041 145.119 74.709L146.101 76.4512ZM149.143 75.6484C149.988 75.6484 150.656 75.7979 151.18 76.0557L152.063 74.2608C151.204 73.8388 150.22 73.6484 149.143 73.6484V75.6484ZM151.186 76.0586C151.776 76.3434 152.184 76.6779 152.456 77.0414L154.056 75.8414C153.555 75.1736 152.874 74.6527 152.057 74.2579L151.186 76.0586ZM152.472 77.0616C152.772 77.4414 153.031 77.9551 153.227 78.6341L155.149 78.0808C154.899 77.2129 154.537 76.4493 154.041 75.8212L152.472 77.0616ZM153.231 78.6474C153.448 79.3646 153.579 80.0277 153.631 80.6391L155.624 80.4702C155.558 79.6988 155.396 78.8971 155.145 78.0674L153.231 78.6474ZM153.633 80.6576C153.699 81.2954 153.733 82.0335 153.733 82.875H155.733C155.733 81.9821 155.697 81.1733 155.622 80.4518L153.633 80.6576ZM153.733 82.875V93H155.733V82.875H153.733ZM154.733 92H152.237V94H154.733V92ZM153.237 93V82.3301H151.237V93H153.237ZM153.237 82.3301C153.237 81.3871 153.176 80.537 153.046 79.7871L151.075 80.1269C151.181 80.7364 151.237 81.4684 151.237 82.3301H153.237ZM153.049 79.8037C152.93 79.036 152.715 78.3253 152.393 77.6817L150.604 78.5761C150.821 79.0106 150.981 79.5187 151.073 80.1104L153.049 79.8037ZM152.401 77.6975C152.066 76.9986 151.576 76.4325 150.923 76.0409L149.894 77.7559C150.179 77.9269 150.415 78.1811 150.596 78.5604L152.401 77.6975ZM150.923 76.0409C150.268 75.6477 149.513 75.4766 148.704 75.4766V77.4766C149.23 77.4766 149.612 77.5866 149.894 77.7559L150.923 76.0409ZM148.704 75.4766C147.486 75.4766 146.374 75.8543 145.395 76.592L146.598 78.1892C147.237 77.7082 147.928 77.4766 148.704 77.4766V75.4766ZM145.395 76.592C144.45 77.3043 143.729 78.2121 143.239 79.3006L145.063 80.1213C145.417 79.3348 145.926 78.6957 146.598 78.1892L145.395 76.592ZM143.241 79.2963C142.76 80.351 142.518 81.459 142.518 82.6113H144.518C144.518 81.748 144.698 80.9225 145.061 80.1256L143.241 79.2963ZM142.518 82.6113V93H144.518V82.6113H142.518ZM143.518 92H141.022V94H143.518V92ZM142.022 93V82.3301H140.022V93H142.022ZM142.022 82.3301C142.022 80.3757 141.753 78.7403 141.117 77.5247L139.345 78.4519C139.763 79.2518 140.022 80.511 140.022 82.3301H142.022ZM141.117 77.5247C140.772 76.8664 140.284 76.3376 139.646 75.9814C139.015 75.6288 138.293 75.4766 137.524 75.4766V77.4766C138.032 77.4766 138.4 77.5763 138.671 77.7276C138.935 77.8752 139.162 78.1023 139.345 78.4519L141.117 77.5247ZM137.524 75.4766C136.279 75.4766 135.148 75.8688 134.165 76.6383L135.398 78.2133C136.032 77.7171 136.729 77.4766 137.524 77.4766V75.4766ZM134.172 76.6327C133.227 77.359 132.512 78.2814 132.036 79.3846L133.871 80.1779C134.215 79.3826 134.719 78.7347 135.391 78.2188L134.172 76.6327ZM132.037 79.3804C131.571 80.4468 131.338 81.5738 131.338 82.752H133.338C133.338 81.8442 133.516 80.9907 133.87 80.1821L132.037 79.3804ZM163.388 93V94H164.388V93H163.388ZM160.892 93H159.892V94H160.892V93ZM160.892 75.0176V74.0176H159.892V75.0176H160.892ZM163.3 75.0176L164.3 74.9929L164.276 74.0176H163.3V75.0176ZM163.371 77.8652L162.371 77.8899L162.458 81.4144L164.234 78.3691L163.371 77.8652ZM165.867 75.4219L166.314 76.3163L166.322 76.3121L165.867 75.4219ZM174.129 78.375L173.166 78.6446L173.884 81.2116L175.031 78.8053L174.129 78.375ZM176.66 75.5801L177.148 76.4529L177.151 76.4512L176.66 75.5801ZM182.671 75.1582L182.23 76.0557L182.236 76.0586L182.671 75.1582ZM184.306 76.4414L183.506 77.0414L183.514 77.0516L183.522 77.0616L184.306 76.4414ZM185.238 78.3574L184.277 78.6341L184.281 78.6474L185.238 78.3574ZM185.677 80.5547L184.681 80.6391L184.682 80.6484L184.683 80.6576L185.677 80.5547ZM185.783 93V94H186.783V93H185.783ZM183.287 93H182.287V94H183.287V93ZM183.111 79.957L182.123 80.1104L182.124 80.1187L182.125 80.1269L183.111 79.957ZM182.548 78.1289L181.646 78.5604L181.65 78.5683L181.654 78.5761L182.548 78.1289ZM175.201 79.7109L176.111 80.1256L176.113 80.1213L175.201 79.7109ZM174.568 93V94H175.568V93H174.568ZM172.072 93H171.072V94H172.072V93ZM165.832 77.4258L166.441 78.2189L166.448 78.2133L165.832 77.4258ZM164.004 79.7812L164.92 80.1821L164.921 80.1779L164.004 79.7812ZM162.388 82.752V93H164.388V82.752H162.388ZM163.388 92H160.892V94H163.388V92ZM161.892 93V75.0176H159.892V93H161.892ZM160.892 76.0176H163.3V74.0176H160.892V76.0176ZM162.301 75.0423L162.371 77.8899L164.37 77.8406L164.3 74.9929L162.301 75.0423ZM164.234 78.3691C164.808 77.3852 165.506 76.7204 166.314 76.3163L165.42 74.5274C164.212 75.1312 163.245 76.0953 162.507 77.3614L164.234 78.3691ZM166.322 76.3121C167.187 75.8697 168.109 75.6484 169.101 75.6484V73.6484C167.797 73.6484 166.562 73.9428 165.411 74.5316L166.322 76.3121ZM169.101 75.6484C170.271 75.6484 171.129 75.9336 171.757 76.4222L172.985 74.8435C171.925 74.0196 170.603 73.6484 169.101 73.6484V75.6484ZM171.757 76.4222C172.409 76.9292 172.887 77.6491 173.166 78.6446L175.091 78.1054C174.714 76.7571 174.02 75.6489 172.985 74.8435L171.757 76.4222ZM175.031 78.8053C175.55 77.7163 176.259 76.95 177.148 76.4529L176.172 74.7073C174.881 75.4289 173.902 76.5259 173.226 77.9447L175.031 78.8053ZM177.151 76.4512C178.104 75.9138 179.113 75.6484 180.193 75.6484V73.6484C178.765 73.6484 177.419 74.0041 176.169 74.709L177.151 76.4512ZM180.193 75.6484C181.038 75.6484 181.706 75.7979 182.23 76.0557L183.113 74.2608C182.254 73.8388 181.27 73.6484 180.193 73.6484V75.6484ZM182.236 76.0586C182.826 76.3434 183.234 76.6779 183.506 77.0414L185.106 75.8414C184.605 75.1736 183.924 74.6527 183.107 74.2579L182.236 76.0586ZM183.522 77.0616C183.822 77.4414 184.081 77.9551 184.277 78.6341L186.199 78.0808C185.949 77.2129 185.587 76.4493 185.091 75.8212L183.522 77.0616ZM184.281 78.6474C184.498 79.3646 184.629 80.0277 184.681 80.6391L186.674 80.4702C186.608 79.6988 186.446 78.8971 186.195 78.0674L184.281 78.6474ZM184.683 80.6576C184.749 81.2954 184.783 82.0335 184.783 82.875H186.783C186.783 81.9821 186.747 81.1733 186.672 80.4518L184.683 80.6576ZM184.783 82.875V93H186.783V82.875H184.783ZM185.783 92H183.287V94H185.783V92ZM184.287 93V82.3301H182.287V93H184.287ZM184.287 82.3301C184.287 81.3871 184.226 80.537 184.096 79.7871L182.125 80.1269C182.231 80.7364 182.287 81.4684 182.287 82.3301H184.287ZM184.099 79.8037C183.98 79.036 183.765 78.3253 183.443 77.6817L181.654 78.5761C181.871 79.0106 182.031 79.5187 182.123 80.1104L184.099 79.8037ZM183.451 77.6975C183.116 76.9986 182.626 76.4325 181.973 76.0409L180.944 77.7559C181.229 77.9269 181.465 78.1811 181.646 78.5604L183.451 77.6975ZM181.973 76.0409C181.318 75.6477 180.563 75.4766 179.754 75.4766V77.4766C180.28 77.4766 180.662 77.5866 180.944 77.7559L181.973 76.0409ZM179.754 75.4766C178.536 75.4766 177.424 75.8543 176.445 76.592L177.648 78.1892C178.287 77.7082 178.978 77.4766 179.754 77.4766V75.4766ZM176.445 76.592C175.5 77.3043 174.779 78.2121 174.289 79.3006L176.113 80.1213C176.467 79.3348 176.976 78.6957 177.648 78.1892L176.445 76.592ZM174.291 79.2963C173.81 80.351 173.568 81.459 173.568 82.6113H175.568C175.568 81.748 175.748 80.9225 176.111 80.1256L174.291 79.2963ZM173.568 82.6113V93H175.568V82.6113H173.568ZM174.568 92H172.072V94H174.568V92ZM173.072 93V82.3301H171.072V93H173.072ZM173.072 82.3301C173.072 80.3757 172.803 78.7403 172.167 77.5247L170.395 78.4519C170.813 79.2518 171.072 80.511 171.072 82.3301H173.072ZM172.167 77.5247C171.822 76.8664 171.334 76.3376 170.696 75.9814C170.065 75.6288 169.343 75.4766 168.574 75.4766V77.4766C169.082 77.4766 169.45 77.5763 169.721 77.7276C169.985 77.8752 170.212 78.1023 170.395 78.4519L172.167 77.5247ZM168.574 75.4766C167.329 75.4766 166.199 75.8688 165.215 76.6383L166.448 78.2133C167.082 77.7171 167.779 77.4766 168.574 77.4766V75.4766ZM165.222 76.6327C164.277 77.359 163.562 78.2814 163.086 79.3846L164.921 80.1779C165.265 79.3826 165.769 78.7347 166.441 78.2188L165.222 76.6327ZM163.087 79.3804C162.621 80.4468 162.388 81.5738 162.388 82.752H164.388C164.388 81.8442 164.566 80.9907 164.92 80.1821L163.087 79.3804ZM192.1 71.168H191.1V72.168H192.1V71.168ZM192.1 68.0215V67.0215H191.1V68.0215H192.1ZM194.579 68.0215H195.579V67.0215H194.579V68.0215ZM194.579 71.168V72.168H195.579V71.168H194.579ZM192.136 93H191.136V94H192.136V93ZM192.136 75.0176V74.0176H191.136V75.0176H192.136ZM194.632 75.0176H195.632V74.0176H194.632V75.0176ZM194.632 93V94H195.632V93H194.632ZM193.1 71.168V68.0215H191.1V71.168H193.1ZM192.1 69.0215H194.579V67.0215H192.1V69.0215ZM193.579 68.0215V71.168H195.579V68.0215H193.579ZM194.579 70.168H192.1V72.168H194.579V70.168ZM193.136 93V75.0176H191.136V93H193.136ZM192.136 76.0176H194.632V74.0176H192.136V76.0176ZM193.632 75.0176V93H195.632V75.0176H193.632ZM194.632 92H192.136V94H194.632V92ZM209.176 90.8027L210.144 90.5529L209.85 89.412L208.772 89.8879L209.176 90.8027ZM209.598 92.4375L210.137 93.2798L210.747 92.8892L210.566 92.1876L209.598 92.4375ZM203.129 91.875L202.321 92.4638L202.329 92.475L203.129 91.875ZM202.092 76.7578H203.092V75.7578H202.092V76.7578ZM199.402 76.7578H198.402V77.7578H199.402V76.7578ZM199.402 75.0176V74.0176H198.402V75.0176H199.402ZM202.25 75.0176V76.0176H203.25V75.0176H202.25ZM202.25 69.2695L201.982 68.3061L201.25 68.5098V69.2695H202.25ZM204.588 68.6191H205.588V67.303L204.32 67.6557L204.588 68.6191ZM204.588 75.0176H203.588V76.0176H204.588V75.0176ZM208.525 75.0176H209.525V74.0176H208.525V75.0176ZM208.525 76.7578V77.7578H209.525V76.7578H208.525ZM204.588 76.7578V75.7578H203.588V76.7578H204.588ZM208.208 91.0526L208.629 92.6874L210.566 92.1876L210.144 90.5529L208.208 91.0526ZM209.059 91.5952C208.361 92.0414 207.523 92.2812 206.504 92.2812V94.2812C207.852 94.2812 209.076 93.9586 210.137 93.2798L209.059 91.5952ZM206.504 92.2812C205.162 92.2812 204.386 91.8843 203.929 91.275L202.329 92.475C203.278 93.7407 204.752 94.2812 206.504 94.2812V92.2812ZM203.937 91.2862C203.436 90.5978 203.092 89.3327 203.092 87.2871H201.092C201.092 89.4602 201.439 91.2537 202.321 92.4638L203.937 91.2862ZM203.092 87.2871V76.7578H201.092V87.2871H203.092ZM202.092 75.7578H199.402V77.7578H202.092V75.7578ZM200.402 76.7578V75.0176H198.402V76.7578H200.402ZM199.402 76.0176H202.25V74.0176H199.402V76.0176ZM203.25 75.0176V69.2695H201.25V75.0176H203.25ZM202.518 70.2329L204.856 69.5826L204.32 67.6557L201.982 68.3061L202.518 70.2329ZM203.588 68.6191V75.0176H205.588V68.6191H203.588ZM204.588 76.0176H208.525V74.0176H204.588V76.0176ZM207.525 75.0176V76.7578H209.525V75.0176H207.525ZM208.525 75.7578H204.588V77.7578H208.525V75.7578ZM203.588 76.7578V88.4121H205.588V76.7578H203.588ZM203.588 88.4121C203.588 89.5176 203.808 90.5323 204.418 91.2836C205.06 92.0747 205.989 92.4004 207.014 92.4004V90.4004C206.421 90.4004 206.137 90.228 205.971 90.0231C205.772 89.7783 205.588 89.2988 205.588 88.4121H203.588ZM207.014 92.4004C207.764 92.4004 208.638 92.1332 209.58 91.7175L208.772 89.8879C207.909 90.2692 207.342 90.4004 207.014 90.4004V92.4004ZM224.365 76.5161L223.991 77.4436L224.879 77.8013L225.275 76.9306L224.365 76.5161ZM233.523 73.519L232.841 74.2504L232.849 74.2582L233.523 73.519ZM234.249 79.498L235.137 79.9584L235.139 79.9539L234.249 79.498ZM232.584 81.7383L233.281 82.4559L233.286 82.4506L232.584 81.7383ZM230.314 83.7212L230.929 84.5095L230.935 84.5049L230.314 83.7212ZM227.816 85.7041L227.188 84.926L227.184 84.9297L227.816 85.7041ZM225.531 87.7778L226.238 88.485L226.243 88.4798L225.531 87.7778ZM223.805 90.1846L224.698 90.6358L224.7 90.6318L223.805 90.1846ZM223.079 93L222.079 92.9691L222.047 94H223.079V93ZM236.989 93V94H237.989V93H236.989ZM236.989 91.1685H237.989V90.1685H236.989V91.1685ZM225.803 91.1685L224.909 90.7212L224.185 92.1685H225.803V91.1685ZM227.196 89.2158L226.461 88.5371L226.461 88.5375L227.196 89.2158ZM229.148 87.3843L229.777 88.1618L229.779 88.1607L229.148 87.3843ZM231.343 85.6436L230.735 84.8498L230.73 84.8536L231.343 85.6436ZM235.445 81.8594L236.213 82.5007L236.217 82.4951L235.445 81.8594ZM236.792 79.5737L235.867 79.1946L235.863 79.2043L236.792 79.5737ZM236.702 74.0034L235.793 74.4205L235.797 74.4292L236.702 74.0034ZM235.082 71.96L234.482 72.76L234.49 72.7656L235.082 71.96ZM232.781 70.8096L232.485 71.7649L232.496 71.768L232.781 70.8096ZM225.561 71.7026L226.116 72.5347L226.12 72.5316L225.561 71.7026ZM222.413 75.729L221.501 75.3182L221.073 76.2673L222.039 76.6565L222.413 75.729ZM225.275 76.9306C225.869 75.6265 226.586 74.7188 227.392 74.1367C228.187 73.5618 229.127 73.2627 230.253 73.2627V71.2627C228.746 71.2627 227.387 71.6725 226.22 72.5154C225.064 73.3511 224.153 74.5701 223.455 76.1016L225.275 76.9306ZM230.253 73.2627C231.294 73.2627 232.137 73.5936 232.841 74.2504L234.205 72.7877C233.113 71.7694 231.776 71.2627 230.253 71.2627V73.2627ZM232.849 74.2582C233.513 74.8628 233.885 75.7094 233.885 76.9248H235.885C235.885 75.2541 235.349 73.8302 234.196 72.7798L232.849 74.2582ZM233.885 76.9248C233.885 77.6468 233.714 78.349 233.359 79.0422L235.139 79.9539C235.632 78.9922 235.885 77.9789 235.885 76.9248H233.885ZM233.362 79.0377C232.988 79.7576 232.497 80.4201 231.883 81.026L233.286 82.4506C234.044 81.7042 234.663 80.8732 235.137 79.9584L233.362 79.0377ZM231.888 81.0207C231.228 81.6612 230.497 82.3003 229.693 82.9375L230.935 84.5049C231.786 83.8303 232.568 83.1474 233.281 82.4559L231.888 81.0207ZM229.699 82.9329C228.867 83.5822 228.03 84.2465 227.188 84.926L228.444 86.4822C229.278 85.8095 230.106 85.1519 230.929 84.5095L229.699 82.9329ZM227.184 84.9297C226.33 85.6268 225.542 86.342 224.818 87.0758L226.243 88.4798C226.912 87.8009 227.647 87.1336 228.449 86.4785L227.184 84.9297ZM224.824 87.0707C224.049 87.8454 223.411 88.7361 222.911 89.7374L224.7 90.6318C225.107 89.8167 225.62 89.1029 226.238 88.4849L224.824 87.0707ZM222.913 89.7334C222.394 90.7583 222.114 91.8399 222.079 92.9691L224.078 93.0309C224.104 92.2024 224.308 91.407 224.697 90.6358L222.913 89.7334ZM223.079 94H236.989V92H223.079V94ZM237.989 93V91.1685H235.989V93H237.989ZM236.989 90.1685H225.803V92.1685H236.989V90.1685ZM226.698 91.6157C226.97 91.0711 227.374 90.4965 227.931 89.8941L226.461 88.5375C225.806 89.247 225.282 89.9742 224.909 90.7212L226.698 91.6157ZM227.93 89.8946C228.514 89.263 229.13 88.6856 229.777 88.1618L228.519 86.6068C227.795 87.1929 227.109 87.8366 226.461 88.5371L227.93 89.8946ZM229.779 88.1607C230.469 87.6005 231.195 87.0248 231.956 86.4335L230.73 84.8536C229.958 85.4531 229.221 86.0378 228.518 86.6078L229.779 88.1607ZM231.951 86.4373C232.748 85.8268 233.505 85.1997 234.221 84.5558L232.885 83.0682C232.209 83.6756 231.492 84.2695 230.735 84.8498L231.951 86.4373ZM234.221 84.5558C234.951 83.9004 235.615 83.2155 236.213 82.5007L234.678 81.2181C234.145 81.8555 233.548 82.4724 232.885 83.0682L234.221 84.5558ZM236.217 82.4951C236.849 81.7277 237.351 80.8758 237.722 79.9432L235.863 79.2043C235.568 79.9468 235.172 80.6187 234.673 81.2237L236.217 82.4951ZM237.718 79.9528C238.11 78.9945 238.307 77.9928 238.307 76.9551H236.307C236.307 77.7337 236.161 78.4778 235.867 79.1947L237.718 79.9528ZM238.307 76.9551C238.307 75.7228 238.083 74.5895 237.606 73.5776L235.797 74.4292C236.128 75.1329 236.307 75.9673 236.307 76.9551H238.307ZM237.61 73.5864C237.154 72.5914 236.512 71.77 235.674 71.1543L234.49 72.7656C235.025 73.1591 235.462 73.7 235.793 74.4204L237.61 73.5864ZM235.682 71.16C234.898 70.5721 234.024 70.1361 233.066 69.8511L232.496 71.768C233.234 71.9876 233.893 72.3186 234.482 72.76L235.682 71.16ZM233.077 69.8543C232.126 69.56 231.123 69.416 230.072 69.416V71.416C230.938 71.416 231.741 71.5344 232.485 71.7649L233.077 69.8543ZM230.072 69.416C228.164 69.416 226.46 69.8902 225.002 70.8736L226.12 72.5316C227.205 71.7996 228.508 71.416 230.072 71.416V69.416ZM225.006 70.8706C223.536 71.8506 222.381 73.3637 221.501 75.3182L223.324 76.1398C224.099 74.4211 225.043 73.25 226.116 72.5347L225.006 70.8706ZM222.039 76.6565L223.991 77.4436L224.739 75.5886L222.786 74.8015L222.039 76.6565ZM253.398 90.1997L254.248 90.7266L253.398 90.1997ZM254.821 86.6274L255.794 86.8565L255.795 86.8549L254.821 86.6274ZM254.821 77.4092L253.846 77.6335L254.821 77.4092ZM253.383 73.7461L252.524 74.2582L252.53 74.2679L253.383 73.7461ZM250.961 71.3091L250.448 72.1674L250.458 72.1735L250.961 71.3091ZM244.225 71.3091L244.732 72.1712L244.734 72.1697L244.225 71.3091ZM241.803 73.7461L240.948 73.228L240.946 73.2304L241.803 73.7461ZM240.38 86.6274L239.407 86.8549L239.407 86.8565L240.38 86.6274ZM244.649 73.4888L245.369 74.1829L245.373 74.1786L244.649 73.4888ZM250.552 73.4888L249.828 74.1786L249.832 74.1829L250.552 73.4888ZM252.369 76.9551L251.403 77.2148L252.369 76.9551ZM252.384 86.9756L251.419 86.7136L251.417 86.7184L252.384 86.9756ZM242.802 86.9756L241.835 87.2311L241.838 87.2393L242.802 86.9756ZM243.736 93.4179C244.89 94.066 246.187 94.3784 247.601 94.3784V92.3784C246.491 92.3784 245.538 92.1358 244.715 91.6738L243.736 93.4179ZM247.601 94.3784C249.014 94.3784 250.311 94.066 251.465 93.4179L250.487 91.6738C249.663 92.1358 248.71 92.3784 247.601 92.3784V94.3784ZM251.465 93.4179C252.609 92.7763 253.537 91.8724 254.248 90.7266L252.548 89.6728C252.007 90.5452 251.321 91.2055 250.487 91.6738L251.465 93.4179ZM254.248 90.7266C254.94 89.6102 255.451 88.315 255.794 86.8565L253.847 86.3984C253.545 87.6847 253.107 88.771 252.548 89.6728L254.248 90.7266ZM255.795 86.8549C256.138 85.3859 256.305 83.7794 256.305 82.041H254.305C254.305 83.6529 254.15 85.104 253.847 86.4L255.795 86.8549ZM256.305 82.041C256.305 80.2928 256.138 78.6723 255.795 77.1848L253.846 77.6335C254.15 78.9514 254.305 80.4188 254.305 82.041H256.305ZM255.795 77.1848C255.452 75.6957 254.937 74.3706 254.236 73.2243L252.53 74.2679C253.1 75.2004 253.543 76.3173 253.846 77.6335L255.795 77.1848ZM254.242 73.234C253.535 72.049 252.609 71.111 251.464 70.4447L250.458 72.1735C251.29 72.6576 251.979 73.3442 252.524 74.2582L254.242 73.234ZM251.474 70.4508C250.324 69.7632 249.023 69.4312 247.601 69.4312V71.4312C248.701 71.4312 249.64 71.6844 250.448 72.1674L251.474 70.4508ZM247.601 69.4312C246.178 69.4312 244.874 69.7632 243.716 70.4485L244.734 72.1697C245.554 71.6844 246.5 71.4312 247.601 71.4312V69.4312ZM243.718 70.4469C242.585 71.1128 241.662 72.0484 240.948 73.228L242.659 74.2642C243.215 73.3448 243.907 72.6557 244.732 72.1712L243.718 70.4469ZM240.946 73.2304C240.257 74.3751 239.748 75.6981 239.406 77.1848L241.355 77.6335C241.658 76.315 242.098 75.1959 242.66 74.2618L240.946 73.2304ZM239.406 77.1848C239.063 78.6723 238.896 80.2928 238.896 82.041H240.896C240.896 80.4188 241.051 78.9514 241.355 77.6335L239.406 77.1848ZM238.896 82.041C238.896 83.7794 239.063 85.3859 239.407 86.8549L241.354 86.4C241.051 85.104 240.896 83.6529 240.896 82.041H238.896ZM239.407 86.8565C239.75 88.315 240.261 89.6102 240.953 90.7266L242.653 89.6728C242.094 88.771 241.656 87.6847 241.354 86.3984L239.407 86.8565ZM240.953 90.7266C241.664 91.8724 242.592 92.7763 243.736 93.4179L244.715 91.6738C243.88 91.2055 243.194 90.5452 242.653 89.6728L240.953 90.7266ZM245.373 74.1786C246.008 73.5123 246.733 73.2021 247.601 73.2021V71.2021C246.168 71.2021 244.925 71.7498 243.925 72.7989L245.373 74.1786ZM247.601 73.2021C248.468 73.2021 249.193 73.5123 249.828 74.1786L251.276 72.7989C250.276 71.7498 249.034 71.2021 247.601 71.2021V73.2021ZM249.832 74.1829C250.504 74.8789 251.041 75.8692 251.403 77.2148L253.334 76.6953C252.909 75.1145 252.236 73.794 251.272 72.7946L249.832 74.1829ZM251.403 77.2148C251.769 78.574 251.959 80.1788 251.959 82.041H253.959C253.959 80.0484 253.756 78.2626 253.334 76.6953L251.403 77.2148ZM251.959 82.041C251.959 83.853 251.774 85.4063 251.419 86.7136L253.349 87.2375C253.761 85.7193 253.959 83.9829 253.959 82.041H251.959ZM251.417 86.7184C251.078 87.9943 250.554 88.9493 249.882 89.6375L251.313 91.0344C252.276 90.0475 252.943 88.7622 253.35 87.2328L251.417 86.7184ZM249.882 89.6375C249.255 90.2803 248.515 90.5923 247.601 90.5923V92.5923C249.048 92.5923 250.306 92.0667 251.313 91.0344L249.882 89.6375ZM247.601 90.5923C246.687 90.5923 245.947 90.2803 245.319 89.6375L243.888 91.0344C244.895 92.0667 246.153 92.5923 247.601 92.5923V90.5923ZM245.319 89.6375C244.646 88.9475 244.116 87.99 243.767 86.7119L241.838 87.2393C242.255 88.7665 242.927 90.0493 243.888 91.0344L245.319 89.6375ZM243.769 86.7201C243.423 85.4104 243.242 83.8548 243.242 82.041H241.242C241.242 83.9811 241.435 85.7152 241.835 87.2311L243.769 86.7201ZM243.242 82.041C243.242 80.1788 243.433 78.574 243.798 77.2148L241.867 76.6953C241.445 78.2626 241.242 80.0484 241.242 82.041H243.242ZM243.798 77.2148C244.16 75.8692 244.698 74.8789 245.369 74.1829L243.929 72.7946C242.965 73.794 242.292 75.1145 241.867 76.6953L243.798 77.2148ZM260.77 72.8984H261.77V71.3798L260.375 71.9798L260.77 72.8984ZM260.77 93H259.77V94H260.77V93ZM262.98 93V94H263.98V93H262.98ZM262.98 70.8398H263.98V69.8398H262.98V70.8398ZM261.027 70.8398V69.8398H260.833L260.652 69.9129L261.027 70.8398ZM257.289 72.3535L256.913 71.4266L256.007 71.7937L256.354 72.7082L257.289 72.3535ZM257.955 74.1094L257.02 74.464L257.39 75.4408L258.35 75.028L257.955 74.1094ZM259.77 72.8984V93H261.77V72.8984H259.77ZM260.77 94H262.98V92H260.77V94ZM263.98 93V70.8398H261.98V93H263.98ZM262.98 69.8398H261.027V71.8398H262.98V69.8398ZM260.652 69.9129L256.913 71.4266L257.664 73.2804L261.403 71.7668L260.652 69.9129ZM256.354 72.7082L257.02 74.464L258.89 73.7547L258.224 71.9989L256.354 72.7082ZM258.35 75.028L261.165 73.8171L260.375 71.9798L257.56 73.1907L258.35 75.028ZM277.103 79.5435L276.709 80.4626L276.718 80.4662L277.103 79.5435ZM279.298 81.1177L278.524 81.7509L278.53 81.7579L279.298 81.1177ZM280.554 83.373L279.607 83.6927L279.608 83.6962L280.554 83.373ZM280.66 88.3984L279.698 88.1254L280.66 88.3984ZM279.707 90.4268L278.888 89.8533L278.886 89.8561L279.707 90.4268ZM276.135 92.9849L276.417 93.9441L276.425 93.9417L276.135 92.9849ZM269.126 92.1069L268.575 92.9411L268.582 92.9461L269.126 92.1069ZM266.25 88.3228L265.876 87.3953L264.957 87.7659L265.32 88.6884L266.25 88.3228ZM268.127 87.5659L269.036 87.1483L268.638 86.2819L267.753 86.6385L268.127 87.5659ZM270.383 90.5024L269.777 91.2983L269.781 91.3014L270.383 90.5024ZM275.711 91.123L276.108 92.0408L276.114 92.038L275.711 91.123ZM277.376 89.9121L276.618 89.26L276.61 89.2689L277.376 89.9121ZM278.405 84.1602L277.452 84.4627L277.455 84.4719L277.458 84.481L278.405 84.1602ZM277.512 82.4497L276.71 83.0472L276.717 83.056L276.723 83.0647L277.512 82.4497ZM275.983 81.2236L275.548 82.1238L275.553 82.1265L275.983 81.2236ZM268.929 82.6313L268.385 83.4704L268.973 83.8513L269.532 83.4296L268.929 82.6313ZM267.552 81.7383L266.561 81.6061L266.477 82.2332L267.008 82.5774L267.552 81.7383ZM269.005 70.8398V69.8398H268.13L268.014 70.7077L269.005 70.8398ZM279.616 70.8398H280.616V69.8398H279.616V70.8398ZM279.616 72.7622V73.7622H280.616V72.7622H279.616ZM270.988 72.7622V71.7622H270.121L269.998 72.6202L270.988 72.7622ZM269.944 80.043L268.954 79.901L268.708 81.6143L270.315 80.9714L269.944 80.043ZM270.019 80.0127L270.391 80.9412L270.45 80.9176L270.505 80.8869L270.019 80.0127ZM273.955 79.9531C275.024 79.9531 275.936 80.1312 276.709 80.4626L277.497 78.6243C276.434 78.1686 275.247 77.9531 273.955 77.9531V79.9531ZM276.718 80.4662C277.509 80.7964 278.098 81.2304 278.524 81.7509L280.072 80.4844C279.408 79.6729 278.534 79.0574 277.489 78.6207L276.718 80.4662ZM278.53 81.7579C279.004 82.3271 279.363 82.9698 279.607 83.6927L281.502 83.0534C281.181 82.1012 280.702 81.2402 280.066 80.4775L278.53 81.7579ZM279.608 83.6962C279.853 84.4123 279.978 85.1854 279.978 86.022H281.978C281.978 84.9816 281.821 83.9888 281.501 83.0499L279.608 83.6962ZM279.978 86.022C279.978 86.7745 279.883 87.4742 279.698 88.1254L281.622 88.6714C281.861 87.8292 281.978 86.9446 281.978 86.022H279.978ZM279.698 88.1254C279.515 88.7702 279.244 89.3438 278.888 89.8533L280.526 91.0002C281.017 90.2987 281.382 89.5202 281.622 88.6714L279.698 88.1254ZM278.886 89.8561C278.534 90.3617 278.111 90.7979 277.613 91.1674L278.804 92.774C279.476 92.2757 280.052 91.6825 280.528 90.9974L278.886 89.8561ZM277.613 91.1674C277.132 91.524 276.547 91.8145 275.844 92.028L276.425 93.9417C277.317 93.6709 278.114 93.2852 278.804 92.774L277.613 91.1674ZM275.852 92.0257C275.167 92.2277 274.41 92.333 273.576 92.333V94.333C274.579 94.333 275.528 94.2062 276.417 93.944L275.852 92.0257ZM273.576 92.333C272.037 92.333 270.748 91.9665 269.67 91.2677L268.582 92.9461C270.027 93.8821 271.705 94.333 273.576 94.333V92.333ZM269.678 91.2728C268.632 90.5812 267.788 89.5027 267.181 87.9571L265.32 88.6884C266.044 90.5335 267.118 91.9777 268.575 92.941L269.678 91.2728ZM266.624 89.2502L268.501 88.4934L267.753 86.6385L265.876 87.3953L266.624 89.2502ZM267.219 87.9836C267.85 89.357 268.697 90.4761 269.777 91.2983L270.988 89.7066C270.212 89.116 269.555 88.2774 269.036 87.1483L267.219 87.9836ZM269.781 91.3014C270.88 92.1288 272.108 92.562 273.44 92.562V90.562C272.572 90.562 271.762 90.2888 270.984 89.7035L269.781 91.3014ZM273.44 92.562C274.396 92.562 275.29 92.3946 276.108 92.0408L275.313 90.2053C274.779 90.4367 274.16 90.562 273.44 90.562V92.562ZM276.114 92.038C276.921 91.6821 277.607 91.1922 278.141 90.5553L276.61 89.2689C276.297 89.6412 275.873 89.9585 275.307 90.2081L276.114 92.038ZM278.134 90.5641C278.65 89.9641 279.044 89.2818 279.316 88.5247L277.434 87.8483C277.242 88.3829 276.969 88.851 276.618 89.2601L278.134 90.5641ZM279.316 88.5247C279.589 87.7657 279.723 86.9697 279.723 86.1431H277.723C277.723 86.7494 277.625 87.3157 277.434 87.8483L279.316 88.5247ZM279.723 86.1431C279.723 85.3436 279.601 84.5738 279.352 83.8393L277.458 84.481C277.633 84.9978 277.723 85.5499 277.723 86.1431H279.723ZM279.358 83.8576C279.122 83.1136 278.77 82.4367 278.3 81.8347L276.723 83.0647C277.041 83.4718 277.284 83.9352 277.452 84.4627L279.358 83.8576ZM278.314 81.8522C277.824 81.1947 277.181 80.6866 276.413 80.3208L275.553 82.1265C276.057 82.3662 276.433 82.6754 276.71 83.0472L278.314 81.8522ZM276.419 80.3235C275.64 79.9468 274.782 79.7695 273.864 79.7695V81.7695C274.52 81.7695 275.075 81.895 275.548 82.1238L276.419 80.3235ZM273.864 79.7695C271.952 79.7695 270.101 80.4946 268.327 81.8331L269.532 83.4296C271.048 82.2857 272.486 81.7695 273.864 81.7695V79.7695ZM269.473 81.7923L268.096 80.8992L267.008 82.5774L268.385 83.4704L269.473 81.7923ZM268.543 81.8704L269.996 70.972L268.014 70.7077L266.561 81.6061L268.543 81.8704ZM269.005 71.8398H279.616V69.8398H269.005V71.8398ZM278.616 70.8398V72.7622H280.616V70.8398H278.616ZM279.616 71.7622H270.988V73.7622H279.616V71.7622ZM269.998 72.6202L268.954 79.901L270.933 80.185L271.978 72.9042L269.998 72.6202ZM270.315 80.9714L270.391 80.9412L269.648 79.0842L269.572 79.1145L270.315 80.9714ZM270.505 80.8869C271.639 80.2566 272.785 79.9531 273.955 79.9531V77.9531C272.42 77.9531 270.942 78.3561 269.534 79.1385L270.505 80.8869Z" fill="black"/>
</svg>
