<svg width="33" height="33" viewBox="0 0 33 33" fill="none" xmlns="http://www.w3.org/2000/svg">
<path id="Vector" d="M29.1884 9.01914L28.9361 9.97706L28.3152 9.20523C26.3931 6.81573 23.6333 5.01812 20.4721 4.18576C12.9882 2.21519 5.54437 6.11269 3.79877 12.7422C2.05317 19.3717 6.61235 26.4297 14.0963 28.4003C17.7667 29.3667 21.5341 28.9674 24.7084 27.2898C25.216 27.0215 25.364 26.438 25.0422 25.9574C24.6982 25.4434 23.9592 25.2569 23.4153 25.5443C20.7637 26.9457 17.6329 27.2705 14.6038 26.4729C8.45339 24.8534 4.55277 18.9928 6.04299 13.3331C7.53348 7.67249 13.8111 4.51011 19.9604 6.12927C22.3813 6.7667 24.5337 8.07484 26.1045 9.89226L27.1604 11.1139L25.5989 10.7027L24.3111 10.3637C23.6429 10.1877 23.0632 10.5457 22.9352 11.0319C22.8072 11.5181 23.1354 12.1151 23.8036 12.291L29.155 13.7001L29.1551 13.7001L29.1551 13.7001L29.1551 13.7001L29.1551 13.7001L29.1551 13.7001L29.1551 13.7001L29.1551 13.7001L29.1552 13.7001L29.1552 13.7002L29.1552 13.7002L29.1552 13.7002L29.1552 13.7002L29.1552 13.7002L29.1552 13.7002L29.1553 13.7002L29.1553 13.7002L29.1553 13.7002L29.1553 13.7002L29.1553 13.7002L29.1553 13.7002L29.1553 13.7002L29.1554 13.7002L29.1554 13.7002L29.1554 13.7002L29.1554 13.7002L29.1554 13.7002L29.1554 13.7002L29.1554 13.7002L29.1555 13.7002C29.8096 13.8725 30.4085 13.4992 30.54 12.9999L31.8102 8.17587C31.9382 7.68968 31.61 7.09265 30.9418 6.91671C30.2737 6.74078 29.694 7.09876 29.566 7.58495L29.1884 9.01914Z" fill="#E5E5E5" stroke="#E5E5E5"/>
</svg>
