<svg width="28" height="28" viewBox="0 0 28 28" fill="none" xmlns="http://www.w3.org/2000/svg">
<path d="M27.6622 0.552192C27.1954 -0.00594569 26.4022 -0.14548 25.7954 0.273123L23.0888 2.13359C21.8288 0.78475 20.0554 0.0405658 18.1422 0.0405658C14.3622 0.0405658 11.2354 3.11032 11.2354 6.92427C11.2354 7.48241 11.2821 7.99403 11.4221 8.50566C8.15545 7.80798 6.19545 5.43591 5.44877 1.15684C5.35545 0.598704 4.93545 0.1801 4.37545 0.0405658C3.86211 -0.0989688 3.30211 0.133589 2.97545 0.552192C2.88211 0.645215 -4.81789 11.3429 6.33545 20.4126C5.26211 22.6916 2.04211 24.6452 0.782111 25.2963C0.175445 25.5753 -0.104556 26.2265 0.0354446 26.8778C0.175445 27.5289 0.735445 27.9475 1.38878 27.9475H3.81545C18.0022 27.9475 24.4422 20.9243 24.5822 5.20334L27.5222 2.41265C28.0822 1.94754 28.1288 1.11033 27.6622 0.552192Z" fill="white"/>
</svg>
