<?xml version="1.0" encoding="iso-8859-1"?>
<!-- Generator: Adobe Illustrator 19.0.0, SVG Export Plug-In . SVG Version: 6.00 Build 0)  -->
<svg version="1.1" id="Capa_1" xmlns="http://www.w3.org/2000/svg" xmlns:xlink="http://www.w3.org/1999/xlink" x="0px" y="0px"
	 viewBox="0 0 512 512" style="enable-background:new 0 0 512 512;" xml:space="preserve">
<g>
	<g>
		<path d="M256,0C114.848,0,0,114.848,0,256s114.848,256,256,256s256-114.848,256-256S397.152,0,256,0z M256,480
			C132.48,480,32,379.52,32,256S132.48,32,256,32s224,100.48,224,224S379.52,480,256,480z"/>
	</g>
</g>
<g>
	<g>
		<path d="M347.296,132.704c-6.24-6.24-16.352-6.272-22.624-0.032L256,201.376l-68.672-68.704c-6.24-6.24-16.384-6.24-22.624,0
			s-6.24,16.384,0,22.624L233.376,224H192c-8.832,0-16,7.168-16,16c0,8.832,7.168,16,16,16h48v32h-48c-8.832,0-16,7.168-16,16
			c0,8.832,7.168,16,16,16h48v64c0,8.832,7.168,16,16,16c8.832,0,16-7.168,16-16v-64h48c8.832,0,16-7.168,16-16
			c0-8.832-7.168-16-16-16h-48v-32h48c8.832,0,16-7.168,16-16c0-8.832-7.168-16-16-16h-41.376l68.672-68.672
			C353.536,149.088,353.536,138.944,347.296,132.704z"/>
	</g>
</g>
<g>
</g>
<g>
</g>
<g>
</g>
<g>
</g>
<g>
</g>
<g>
</g>
<g>
</g>
<g>
</g>
<g>
</g>
<g>
</g>
<g>
</g>
<g>
</g>
<g>
</g>
<g>
</g>
<g>
</g>
</svg>
